<?xml version="1.0" encoding="UTF-8" standalone="no"?>
<!DOCTYPE svg PUBLIC "-//W3C//DTD SVG 1.1//EN" "http://www.w3.org/Graphics/SVG/1.1/DTD/svg11.dtd">
<svg width="100%" height="100%" viewBox="0 0 1920 900" version="1.1" xmlns="http://www.w3.org/2000/svg" xmlns:xlink="http://www.w3.org/1999/xlink" xml:space="preserve" xmlns:serif="http://www.serif.com/" style="fill-rule:evenodd;clip-rule:evenodd;stroke-linejoin:round;stroke-miterlimit:2;">
    <g transform="matrix(1,0,0,1,-3.00963,-267.857)">
        <g transform="matrix(2.07281,0.0558209,-0.0558209,2.07281,-170.353,-35.1508)">
            <circle cx="158.914" cy="280.786" r="3.556" style="fill-opacity:0.2;"/>
        </g>
        <g transform="matrix(2.07281,0.0558209,-0.0558209,2.07281,-223.287,-54.0839)">
            <circle cx="158.914" cy="280.786" r="3.556" style="fill-opacity:0.2;"/>
        </g>
        <g transform="matrix(2.07281,0.0558209,-0.0558209,2.07281,-278.271,-48.193)">
            <circle cx="158.914" cy="280.786" r="3.556" style="fill-opacity:0.2;"/>
        </g>
        <g transform="matrix(2.07281,0.0558209,-0.0558209,2.07281,-170.353,-35.1508)">
            <circle cx="185.379" cy="290.475" r="3.556" style="fill-opacity:0.2;"/>
        </g>
        <g transform="matrix(2.07281,0.0558209,-0.0558209,2.07281,-170.353,-35.1508)">
            <circle cx="211.864" cy="293.832" r="3.556" style="fill-opacity:0.2;"/>
        </g>
        <g transform="matrix(2.07281,0.0558209,-0.0558209,2.07281,-170.353,-35.1508)">
            <circle cx="238.337" cy="297.256" r="3.556" style="fill-opacity:0.2;"/>
        </g>
        <g transform="matrix(2.07281,0.0558209,-0.0558209,2.07281,-170.353,-35.1508)">
            <circle cx="264.818" cy="293.832" r="3.556" style="fill-opacity:0.2;"/>
        </g>
        <g transform="matrix(2.07281,0.0558209,-0.0558209,2.07281,-170.353,-35.1508)">
            <circle cx="291.299" cy="287.183" r="3.556" style="fill-opacity:0.2;"/>
        </g>
        <g transform="matrix(2.07281,0.0558209,-0.0558209,2.07281,-172.721,-19.5696)">
            <circle cx="317.78" cy="283.955" r="3.556" style="fill-opacity:0.2;"/>
        </g>
        <g transform="matrix(2.07281,0.0558209,-0.0558209,2.07281,-170.036,-22.8041)">
            <circle cx="344.257" cy="283.955" r="3.556" style="fill-opacity:0.2;"/>
        </g>
        <g transform="matrix(2.07281,0.0558209,-0.0558209,2.07281,-170.353,-35.1508)">
            <circle cx="370.737" cy="280.786" r="3.556" style="fill-opacity:0.2;"/>
        </g>
        <g transform="matrix(2.07281,0.0558209,-0.0558209,2.07281,-170.353,-35.1508)">
            <circle cx="397.218" cy="271.621" r="3.556" style="fill-opacity:0.2;"/>
        </g>
        <g transform="matrix(2.07281,0.0558209,-0.0558209,2.07281,-170.353,-35.1508)">
            <circle cx="423.684" cy="268.673" r="3.556" style="fill-opacity:0.2;"/>
        </g>
        <g transform="matrix(2.07281,0.0558209,-0.0558209,2.07281,-170.353,-35.1508)">
            <circle cx="450.172" cy="260.125" r="3.556" style="fill-opacity:0.2;"/>
        </g>
        <g transform="matrix(2.07281,0.0558209,-0.0558209,2.07281,-170.353,-35.1508)">
            <circle cx="476.641" cy="251.987" r="3.556" style="fill-opacity:0.2;"/>
        </g>
        <g transform="matrix(2.07281,0.0558209,-0.0558209,2.07281,-170.353,-35.1508)">
            <circle cx="503.13" cy="246.77" r="3.556" style="fill-opacity:0.2;"/>
        </g>
        <g transform="matrix(2.07281,0.0558209,-0.0558209,2.07281,-170.353,-35.1508)">
            <circle cx="529.614" cy="246.77" r="3.556" style="fill-opacity:0.2;"/>
        </g>
        <g transform="matrix(2.07281,0.0558209,-0.0558209,2.07281,-170.353,-35.1508)">
            <circle cx="556.088" cy="249.358" r="3.556" style="fill-opacity:0.2;"/>
        </g>
        <g transform="matrix(2.07281,0.0558209,-0.0558209,2.07281,-129.076,-14.9468)">
            <circle cx="556.088" cy="249.358" r="3.556" style="fill-opacity:0.2;"/>
        </g>
        <g transform="matrix(2.07281,0.0558209,-0.0558209,2.07281,-93.3224,7.83578)">
            <circle cx="556.088" cy="249.358" r="3.556" style="fill-opacity:0.2;"/>
        </g>
        <g transform="matrix(2.07281,0.0558209,-0.0558209,2.07281,-56.4897,24.2834)">
            <circle cx="556.088" cy="249.358" r="3.556" style="fill-opacity:0.2;"/>
        </g>
        <g transform="matrix(2.07281,0.0558209,-0.0558209,2.07281,-14.5764,20.8661)">
            <circle cx="556.088" cy="249.358" r="3.556" style="fill-opacity:0.2;"/>
        </g>
    </g>
    <g id="Layer1" transform="matrix(1,0,0,1,-184.525,451.958)">
        <g transform="matrix(1.89733,0.836518,-0.836518,1.89733,1382.15,-767.458)">
            <circle cx="158.914" cy="280.786" r="3.556" style="fill-opacity:0.2;"/>
        </g>
        <g transform="matrix(1.89733,0.836518,-0.836518,1.89733,1340.33,-805.024)">
            <circle cx="158.914" cy="280.786" r="3.556" style="fill-opacity:0.2;"/>
        </g>
        <g transform="matrix(1.89733,0.836518,-0.836518,1.89733,1287.2,-820.391)">
            <circle cx="158.914" cy="280.786" r="3.556" style="fill-opacity:0.2;"/>
        </g>
        <g transform="matrix(1.89733,0.836518,-0.836518,1.89733,1382.15,-767.458)">
            <circle cx="185.379" cy="290.475" r="3.556" style="fill-opacity:0.2;"/>
        </g>
        <g transform="matrix(1.89733,0.836518,-0.836518,1.89733,1382.15,-767.458)">
            <circle cx="211.864" cy="293.832" r="3.556" style="fill-opacity:0.2;"/>
        </g>
        <g transform="matrix(1.89733,0.836518,-0.836518,1.89733,1382.15,-767.458)">
            <circle cx="238.337" cy="297.256" r="3.556" style="fill-opacity:0.2;"/>
        </g>
        <g transform="matrix(1.89733,0.836518,-0.836518,1.89733,1382.15,-767.458)">
            <circle cx="264.818" cy="293.832" r="3.556" style="fill-opacity:0.2;"/>
        </g>
        <g transform="matrix(1.89733,0.836518,-0.836518,1.89733,1382.15,-767.458)">
            <circle cx="291.299" cy="287.183" r="3.556" style="fill-opacity:0.2;"/>
        </g>
        <g transform="matrix(1.89733,0.836518,-0.836518,1.89733,1374.06,-753.933)">
            <circle cx="317.78" cy="283.955" r="3.556" style="fill-opacity:0.2;"/>
        </g>
        <g transform="matrix(1.89733,0.836518,-0.836518,1.89733,1377.77,-755.91)">
            <circle cx="344.257" cy="283.955" r="3.556" style="fill-opacity:0.2;"/>
        </g>
        <g transform="matrix(1.89733,0.836518,-0.836518,1.89733,1382.15,-767.458)">
            <circle cx="370.737" cy="280.786" r="3.556" style="fill-opacity:0.2;"/>
        </g>
        <g transform="matrix(1.89733,0.836518,-0.836518,1.89733,1382.15,-767.458)">
            <circle cx="397.218" cy="271.621" r="3.556" style="fill-opacity:0.2;"/>
        </g>
        <g transform="matrix(1.89733,0.836518,-0.836518,1.89733,1382.15,-767.458)">
            <circle cx="423.684" cy="268.673" r="3.556" style="fill-opacity:0.2;"/>
        </g>
        <g transform="matrix(1.89733,0.836518,-0.836518,1.89733,1382.15,-767.458)">
            <circle cx="450.172" cy="260.125" r="3.556" style="fill-opacity:0.2;"/>
        </g>
        <g transform="matrix(1.89733,0.836518,-0.836518,1.89733,1382.15,-767.458)">
            <circle cx="476.641" cy="251.987" r="3.556" style="fill-opacity:0.2;"/>
        </g>
    </g>
    <g id="Layer11" serif:id="Layer1" transform="matrix(0.646964,-0.762521,0.762521,0.646964,411.313,1429.44)">
        <g transform="matrix(1.89733,0.836518,-0.836518,1.89733,1382.15,-767.458)">
            <circle cx="158.914" cy="280.786" r="3.556" style="fill:white;fill-opacity:0.2;"/>
        </g>
        <g transform="matrix(1.89733,0.836518,-0.836518,1.89733,1340.33,-805.024)">
            <circle cx="158.914" cy="280.786" r="3.556" style="fill:white;fill-opacity:0.2;"/>
        </g>
        <g transform="matrix(1.89733,0.836518,-0.836518,1.89733,1287.2,-820.391)">
            <circle cx="158.914" cy="280.786" r="3.556" style="fill:white;fill-opacity:0.2;"/>
        </g>
        <g transform="matrix(1.89733,0.836518,-0.836518,1.89733,1382.15,-767.458)">
            <circle cx="185.379" cy="290.475" r="3.556" style="fill:white;fill-opacity:0.2;"/>
        </g>
        <g transform="matrix(1.89733,0.836518,-0.836518,1.89733,1382.15,-767.458)">
            <circle cx="211.864" cy="293.832" r="3.556" style="fill:white;fill-opacity:0.2;"/>
        </g>
        <g transform="matrix(1.89733,0.836518,-0.836518,1.89733,1382.15,-767.458)">
            <circle cx="238.337" cy="297.256" r="3.556" style="fill:white;fill-opacity:0.2;"/>
        </g>
        <g transform="matrix(1.89733,0.836518,-0.836518,1.89733,1382.15,-767.458)">
            <circle cx="264.818" cy="293.832" r="3.556" style="fill:white;fill-opacity:0.2;"/>
        </g>
        <g transform="matrix(1.89733,0.836518,-0.836518,1.89733,1382.15,-767.458)">
            <circle cx="291.299" cy="287.183" r="3.556" style="fill:white;fill-opacity:0.2;"/>
        </g>
        <g transform="matrix(1.89733,0.836518,-0.836518,1.89733,1374.06,-753.933)">
            <circle cx="317.78" cy="283.955" r="3.556" style="fill:white;fill-opacity:0.2;"/>
        </g>
        <g transform="matrix(1.89733,0.836518,-0.836518,1.89733,1377.77,-755.91)">
            <circle cx="344.257" cy="283.955" r="3.556" style="fill:white;fill-opacity:0.2;"/>
        </g>
        <g transform="matrix(1.89733,0.836518,-0.836518,1.89733,1382.15,-767.458)">
            <circle cx="370.737" cy="280.786" r="3.556" style="fill:white;fill-opacity:0.2;"/>
        </g>
        <g transform="matrix(1.89733,0.836518,-0.836518,1.89733,1382.15,-767.458)">
            <circle cx="397.218" cy="271.621" r="3.556" style="fill:white;fill-opacity:0.2;"/>
        </g>
    </g>
    <g id="Layer2" transform="matrix(1,0,0,1,3.1533,0)">
        <g transform="matrix(2.07161,0.0898746,-0.0898746,2.07161,970.582,-283.468)">
            <circle cx="158.914" cy="280.786" r="3.556" style="fill:rgb(102,102,102);fill-opacity:0.2;"/>
        </g>
        <g transform="matrix(2.07161,0.0898746,-0.0898746,2.07161,915.384,-299.393)">
            <circle cx="158.914" cy="280.786" r="3.556" style="fill:rgb(102,102,102);fill-opacity:0.2;"/>
        </g>
        <g transform="matrix(2.07161,0.0898746,-0.0898746,2.07161,862.893,-298.282)">
            <circle cx="158.914" cy="280.786" r="3.556" style="fill:rgb(102,102,102);fill-opacity:0.2;"/>
        </g>
        <g transform="matrix(2.07161,0.0898746,-0.0898746,2.07161,970.582,-283.468)">
            <circle cx="185.379" cy="290.475" r="3.556" style="fill:rgb(102,102,102);fill-opacity:0.2;"/>
        </g>
        <g transform="matrix(2.07161,0.0898746,-0.0898746,2.07161,970.582,-283.468)">
            <circle cx="211.864" cy="293.832" r="3.556" style="fill:rgb(102,102,102);fill-opacity:0.2;"/>
        </g>
        <g transform="matrix(2.07161,0.0898746,-0.0898746,2.07161,970.582,-283.468)">
            <circle cx="238.337" cy="297.256" r="3.556" style="fill:rgb(102,102,102);fill-opacity:0.2;"/>
        </g>
        <g transform="matrix(2.07161,0.0898746,-0.0898746,2.07161,970.582,-283.468)">
            <circle cx="264.818" cy="293.832" r="3.556" style="fill:rgb(102,102,102);fill-opacity:0.2;"/>
        </g>
        <g transform="matrix(2.07161,0.0898746,-0.0898746,2.07161,970.582,-283.468)">
            <circle cx="291.299" cy="287.183" r="3.556" style="fill:rgb(102,102,102);fill-opacity:0.2;"/>
        </g>
        <g transform="matrix(2.07161,0.0898746,-0.0898746,2.07161,967.959,-267.928)">
            <circle cx="317.78" cy="283.955" r="3.556" style="fill:rgb(102,102,102);fill-opacity:0.2;"/>
        </g>
        <g transform="matrix(2.07161,0.0898746,-0.0898746,2.07161,970.696,-271.118)">
            <circle cx="344.257" cy="283.955" r="3.556" style="fill:rgb(102,102,102);fill-opacity:0.2;"/>
        </g>
        <g transform="matrix(2.07161,0.0898746,-0.0898746,2.07161,970.582,-283.468)">
            <circle cx="370.737" cy="280.786" r="3.556" style="fill:rgb(102,102,102);fill-opacity:0.2;"/>
        </g>
        <g transform="matrix(2.07161,0.0898746,-0.0898746,2.07161,970.582,-283.468)">
            <circle cx="397.218" cy="271.621" r="3.556" style="fill:rgb(102,102,102);fill-opacity:0.2;"/>
        </g>
        <g transform="matrix(2.07161,0.0898746,-0.0898746,2.07161,970.582,-283.468)">
            <circle cx="423.684" cy="268.673" r="3.556" style="fill:rgb(102,102,102);fill-opacity:0.2;"/>
        </g>
        <g transform="matrix(2.07161,0.0898746,-0.0898746,2.07161,970.582,-283.468)">
            <circle cx="450.172" cy="260.125" r="3.556" style="fill:rgb(102,102,102);fill-opacity:0.2;"/>
        </g>
    </g>
    <g transform="matrix(-1.82316,0.00143544,-0.00133441,-1.69484,1884.51,1774.04)">
        <g id="s2" transform="matrix(-0.453538,-0.000384122,0.000357087,-0.487876,243.509,796.136)">
            <path d="M4.554,359.286L4.092,359.286C4.092,465.43 91.427,552.765 197.572,552.765C303.716,552.765 391.051,465.43 391.051,359.286L390.621,359.286C389.618,254.481 302.877,168.53 197.587,168.53C92.298,168.53 5.557,254.481 4.554,359.286ZM356.236,344.367L38.939,344.367C47.446,264.834 115.754,202.03 197.587,202.03C279.421,202.03 347.728,264.834 356.236,344.367Z" style="fill:rgb(172,172,172);fill-opacity:0.06;fill-rule:nonzero;"/>
        </g>
        <g transform="matrix(1,1.0842e-19,0,1,0.0308523,-42.1525)">
            <path d="M959.029,611.214L968.798,611.214L968.798,651.872L991.141,652.43L991.141,611.214L1003.03,611.214L1003.03,677.649L1018.66,677.649L1018.66,645.074L1033.56,645.074L1033.56,700.163L1052.63,700.163L1052.63,662.065L1063.32,662.065L1063.32,680.666L1078.28,680.666L1078.28,638.506L1098.43,638.506L1098.43,617.878L1132.28,617.878L1132.28,342.492L181.473,342.492L-39.836,464.061L-122.389,464.061L-174.861,481.232L-174.861,530.983L-103.426,530.983L-103.426,550.648L-85.83,550.648L-85.83,530.983L-39.836,530.983L-38.482,517.076L-10.468,517.076L-11.822,530.983L19.186,530.983L20.54,548.712L61.177,548.712L59.823,530.983L80.623,530.983L81.977,517.076L104.558,517.076L104.558,563.967L119.547,563.967L119.547,517.076L138.545,517.076L138.545,548.712L165.837,548.712L164.483,530.983L181.473,530.983L182.827,563.967L198.802,563.967L197.448,540.356L207.906,540.356L209.26,580.824L229.644,580.824L230.361,555.174L267.016,555.174L267.016,517.076L285.222,517.076L285.222,580.824L317.963,580.824L317.963,597.827L331.157,597.827L331.157,639.323L362.161,639.323L362.161,538.304L393.363,538.304L393.363,662.382L421.466,662.382L421.523,585.281L441.804,585.298L441.768,668.374L462.993,668.374L462.993,651.872L480.316,652.43L480.316,577.789L510.416,577.789L510.416,564.323L539.51,564.323L539.51,668.374L578.767,668.374L578.767,693.952L600.557,693.952L600.557,577.789L646.415,577.789L646.415,686.57L685.587,686.57L685.587,662.065L711.617,662.065L711.617,585.551L740.471,585.551L740.471,652.43L754.943,652.43L754.943,638.506L768.921,638.506L768.921,709.629L783.244,709.629L783.244,680.666L802.445,680.666L802.445,645.074L823.491,645.074L823.491,617.878L839.031,617.878L839.031,680.666L855.128,680.666L855.128,602.421L868.463,602.421L868.463,672.5L880.067,672.5L880.067,662.065L889.596,662.065L889.596,693.952L899.841,693.952L899.841,680.666L909.929,680.666L909.929,688.932L915.286,688.932L915.286,703.454L929.408,703.454L929.408,677.649L944.764,677.649L944.764,659.141L959.029,659.141L959.029,611.214Z" style="fill-opacity:0.5;"/>
        </g>
    </g>
</svg>
