<?xml version="1.0" encoding="UTF-8" standalone="no"?>
<!DOCTYPE svg PUBLIC "-//W3C//DTD SVG 1.1//EN" "http://www.w3.org/Graphics/SVG/1.1/DTD/svg11.dtd">
<svg width="100%" height="100%" viewBox="0 0 1920 900" version="1.1" xmlns="http://www.w3.org/2000/svg" xmlns:xlink="http://www.w3.org/1999/xlink" xml:space="preserve" xmlns:serif="http://www.serif.com/" style="fill-rule:evenodd;clip-rule:evenodd;stroke-linejoin:round;stroke-miterlimit:2;">
    <g transform="matrix(1,0,0,1,-149.169,-334.427)">
        <circle cx="359.422" cy="527.432" r="162.183" style="fill:rgb(235,235,235);"/>
    </g>
    <g transform="matrix(1,0,0,1,-3.00963,-267.857)">
        <g transform="matrix(2.07281,0.0558209,-0.0558209,2.07281,-170.353,-35.1508)">
            <circle cx="158.914" cy="280.786" r="3.556" style="fill-opacity:0.2;"/>
        </g>
        <g transform="matrix(2.07281,0.0558209,-0.0558209,2.07281,-223.287,-54.0839)">
            <circle cx="158.914" cy="280.786" r="3.556" style="fill-opacity:0.2;"/>
        </g>
        <g transform="matrix(2.07281,0.0558209,-0.0558209,2.07281,-278.271,-48.193)">
            <circle cx="158.914" cy="280.786" r="3.556" style="fill-opacity:0.2;"/>
        </g>
        <g transform="matrix(2.07281,0.0558209,-0.0558209,2.07281,-170.353,-35.1508)">
            <circle cx="185.379" cy="290.475" r="3.556" style="fill-opacity:0.2;"/>
        </g>
        <g transform="matrix(2.07281,0.0558209,-0.0558209,2.07281,-170.353,-35.1508)">
            <circle cx="211.864" cy="293.832" r="3.556" style="fill-opacity:0.2;"/>
        </g>
        <g transform="matrix(2.07281,0.0558209,-0.0558209,2.07281,-170.353,-35.1508)">
            <circle cx="238.337" cy="297.256" r="3.556" style="fill-opacity:0.2;"/>
        </g>
        <g transform="matrix(2.07281,0.0558209,-0.0558209,2.07281,-170.353,-35.1508)">
            <circle cx="264.818" cy="293.832" r="3.556" style="fill-opacity:0.2;"/>
        </g>
        <g transform="matrix(2.07281,0.0558209,-0.0558209,2.07281,-170.353,-35.1508)">
            <circle cx="291.299" cy="287.183" r="3.556" style="fill-opacity:0.2;"/>
        </g>
        <g transform="matrix(2.07281,0.0558209,-0.0558209,2.07281,-172.721,-19.5696)">
            <circle cx="317.78" cy="283.955" r="3.556" style="fill-opacity:0.2;"/>
        </g>
        <g transform="matrix(2.07281,0.0558209,-0.0558209,2.07281,-170.036,-22.8041)">
            <circle cx="344.257" cy="283.955" r="3.556" style="fill-opacity:0.2;"/>
        </g>
        <g transform="matrix(2.07281,0.0558209,-0.0558209,2.07281,-170.353,-35.1508)">
            <circle cx="370.737" cy="280.786" r="3.556" style="fill-opacity:0.2;"/>
        </g>
        <g transform="matrix(2.07281,0.0558209,-0.0558209,2.07281,-170.353,-35.1508)">
            <circle cx="397.218" cy="271.621" r="3.556" style="fill-opacity:0.2;"/>
        </g>
        <g transform="matrix(2.07281,0.0558209,-0.0558209,2.07281,-170.353,-35.1508)">
            <circle cx="423.684" cy="268.673" r="3.556" style="fill-opacity:0.2;"/>
        </g>
        <g transform="matrix(2.07281,0.0558209,-0.0558209,2.07281,-170.353,-35.1508)">
            <circle cx="450.172" cy="260.125" r="3.556" style="fill-opacity:0.2;"/>
        </g>
        <g transform="matrix(2.07281,0.0558209,-0.0558209,2.07281,-170.353,-35.1508)">
            <circle cx="476.641" cy="251.987" r="3.556" style="fill-opacity:0.2;"/>
        </g>
        <g transform="matrix(2.07281,0.0558209,-0.0558209,2.07281,-170.353,-35.1508)">
            <circle cx="503.13" cy="246.77" r="3.556" style="fill-opacity:0.2;"/>
        </g>
        <g transform="matrix(2.07281,0.0558209,-0.0558209,2.07281,-170.353,-35.1508)">
            <circle cx="529.614" cy="246.77" r="3.556" style="fill-opacity:0.2;"/>
        </g>
        <g transform="matrix(2.07281,0.0558209,-0.0558209,2.07281,-170.353,-35.1508)">
            <circle cx="556.088" cy="249.358" r="3.556" style="fill-opacity:0.2;"/>
        </g>
        <g transform="matrix(2.07281,0.0558209,-0.0558209,2.07281,-129.076,-14.9468)">
            <circle cx="556.088" cy="249.358" r="3.556" style="fill-opacity:0.2;"/>
        </g>
        <g transform="matrix(2.07281,0.0558209,-0.0558209,2.07281,-93.3224,7.83578)">
            <circle cx="556.088" cy="249.358" r="3.556" style="fill-opacity:0.2;"/>
        </g>
        <g transform="matrix(2.07281,0.0558209,-0.0558209,2.07281,-56.4897,24.2834)">
            <circle cx="556.088" cy="249.358" r="3.556" style="fill-opacity:0.2;"/>
        </g>
        <g transform="matrix(2.07281,0.0558209,-0.0558209,2.07281,-14.5764,20.8661)">
            <circle cx="556.088" cy="249.358" r="3.556" style="fill-opacity:0.2;"/>
        </g>
    </g>
    <g id="Layer1" transform="matrix(1,0,0,1,-184.525,451.958)">
        <g transform="matrix(1.89733,0.836518,-0.836518,1.89733,1382.15,-767.458)">
            <circle cx="158.914" cy="280.786" r="3.556" style="fill-opacity:0.31;"/>
        </g>
        <g transform="matrix(1.89733,0.836518,-0.836518,1.89733,1340.33,-805.024)">
            <circle cx="158.914" cy="280.786" r="3.556" style="fill-opacity:0.31;"/>
        </g>
        <g transform="matrix(1.89733,0.836518,-0.836518,1.89733,1287.2,-820.391)">
            <circle cx="158.914" cy="280.786" r="3.556" style="fill-opacity:0.31;"/>
        </g>
        <g transform="matrix(1.89733,0.836518,-0.836518,1.89733,1382.15,-767.458)">
            <circle cx="185.379" cy="290.475" r="3.556" style="fill-opacity:0.31;"/>
        </g>
        <g transform="matrix(1.89733,0.836518,-0.836518,1.89733,1382.15,-767.458)">
            <circle cx="211.864" cy="293.832" r="3.556" style="fill-opacity:0.31;"/>
        </g>
        <g transform="matrix(1.89733,0.836518,-0.836518,1.89733,1382.15,-767.458)">
            <circle cx="238.337" cy="297.256" r="3.556" style="fill-opacity:0.31;"/>
        </g>
        <g transform="matrix(1.89733,0.836518,-0.836518,1.89733,1382.15,-767.458)">
            <circle cx="264.818" cy="293.832" r="3.556" style="fill-opacity:0.31;"/>
        </g>
        <g transform="matrix(1.89733,0.836518,-0.836518,1.89733,1382.15,-767.458)">
            <circle cx="291.299" cy="287.183" r="3.556" style="fill-opacity:0.31;"/>
        </g>
        <g transform="matrix(1.89733,0.836518,-0.836518,1.89733,1374.06,-753.933)">
            <circle cx="317.78" cy="283.955" r="3.556" style="fill-opacity:0.31;"/>
        </g>
        <g transform="matrix(1.89733,0.836518,-0.836518,1.89733,1377.77,-755.91)">
            <circle cx="344.257" cy="283.955" r="3.556" style="fill-opacity:0.31;"/>
        </g>
        <g transform="matrix(1.89733,0.836518,-0.836518,1.89733,1382.15,-767.458)">
            <circle cx="370.737" cy="280.786" r="3.556" style="fill-opacity:0.31;"/>
        </g>
        <g transform="matrix(1.89733,0.836518,-0.836518,1.89733,1382.15,-767.458)">
            <circle cx="397.218" cy="271.621" r="3.556" style="fill-opacity:0.31;"/>
        </g>
        <g transform="matrix(1.89733,0.836518,-0.836518,1.89733,1382.15,-767.458)">
            <circle cx="423.684" cy="268.673" r="3.556" style="fill-opacity:0.31;"/>
        </g>
        <g transform="matrix(1.89733,0.836518,-0.836518,1.89733,1382.15,-767.458)">
            <circle cx="450.172" cy="260.125" r="3.556" style="fill-opacity:0.31;"/>
        </g>
        <g transform="matrix(1.89733,0.836518,-0.836518,1.89733,1382.15,-767.458)">
            <circle cx="476.641" cy="251.987" r="3.556" style="fill-opacity:0.31;"/>
        </g>
    </g>
    <g id="Layer11" serif:id="Layer1" transform="matrix(0.646964,-0.762521,0.762521,0.646964,411.313,1429.44)">
        <g transform="matrix(1.89733,0.836518,-0.836518,1.89733,1382.15,-767.458)">
            <circle cx="158.914" cy="280.786" r="3.556" style="fill:rgb(152,152,152);fill-opacity:0.28;"/>
        </g>
        <g transform="matrix(1.89733,0.836518,-0.836518,1.89733,1340.33,-805.024)">
            <circle cx="158.914" cy="280.786" r="3.556" style="fill:rgb(152,152,152);fill-opacity:0.28;"/>
        </g>
        <g transform="matrix(1.89733,0.836518,-0.836518,1.89733,1382.15,-767.458)">
            <circle cx="185.379" cy="290.475" r="3.556" style="fill:rgb(152,152,152);fill-opacity:0.28;"/>
        </g>
        <g transform="matrix(1.89733,0.836518,-0.836518,1.89733,1382.15,-767.458)">
            <circle cx="211.864" cy="293.832" r="3.556" style="fill:rgb(152,152,152);fill-opacity:0.28;"/>
        </g>
        <g transform="matrix(1.89733,0.836518,-0.836518,1.89733,1382.15,-767.458)">
            <circle cx="238.337" cy="297.256" r="3.556" style="fill:rgb(152,152,152);fill-opacity:0.28;"/>
        </g>
        <g transform="matrix(1.89733,0.836518,-0.836518,1.89733,1382.15,-767.458)">
            <circle cx="264.818" cy="293.832" r="3.556" style="fill:rgb(152,152,152);fill-opacity:0.28;"/>
        </g>
        <g transform="matrix(1.89733,0.836518,-0.836518,1.89733,1382.15,-767.458)">
            <circle cx="291.299" cy="287.183" r="3.556" style="fill:rgb(152,152,152);fill-opacity:0.28;"/>
        </g>
        <g transform="matrix(1.89733,0.836518,-0.836518,1.89733,1374.06,-753.933)">
            <circle cx="317.78" cy="283.955" r="3.556" style="fill:rgb(152,152,152);fill-opacity:0.28;"/>
        </g>
        <g transform="matrix(1.89733,0.836518,-0.836518,1.89733,1377.77,-755.91)">
            <circle cx="344.257" cy="283.955" r="3.556" style="fill:rgb(152,152,152);fill-opacity:0.28;"/>
        </g>
        <g transform="matrix(1.89733,0.836518,-0.836518,1.89733,1382.15,-767.458)">
            <circle cx="370.737" cy="280.786" r="3.556" style="fill:rgb(152,152,152);fill-opacity:0.28;"/>
        </g>
        <g transform="matrix(1.89733,0.836518,-0.836518,1.89733,1382.15,-767.458)">
            <circle cx="397.218" cy="271.621" r="3.556" style="fill:rgb(152,152,152);fill-opacity:0.28;"/>
        </g>
    </g>
    <g id="Layer2" transform="matrix(1,0,0,1,3.1533,0)">
        <g transform="matrix(2.07161,0.0898746,-0.0898746,2.07161,970.582,-283.468)">
            <circle cx="158.914" cy="280.786" r="3.556" style="fill:rgb(102,102,102);fill-opacity:0.38;"/>
        </g>
        <g transform="matrix(2.07161,0.0898746,-0.0898746,2.07161,915.384,-299.393)">
            <circle cx="158.914" cy="280.786" r="3.556" style="fill:rgb(102,102,102);fill-opacity:0.38;"/>
        </g>
        <g transform="matrix(2.07161,0.0898746,-0.0898746,2.07161,970.582,-283.468)">
            <circle cx="185.379" cy="290.475" r="3.556" style="fill:rgb(102,102,102);fill-opacity:0.38;"/>
        </g>
        <g transform="matrix(2.07161,0.0898746,-0.0898746,2.07161,970.582,-283.468)">
            <circle cx="211.864" cy="293.832" r="3.556" style="fill:rgb(102,102,102);fill-opacity:0.38;"/>
        </g>
        <g transform="matrix(2.07161,0.0898746,-0.0898746,2.07161,970.582,-283.468)">
            <circle cx="238.337" cy="297.256" r="3.556" style="fill:rgb(102,102,102);fill-opacity:0.38;"/>
        </g>
        <g transform="matrix(2.07161,0.0898746,-0.0898746,2.07161,970.582,-283.468)">
            <circle cx="264.818" cy="293.832" r="3.556" style="fill:rgb(102,102,102);fill-opacity:0.38;"/>
        </g>
        <g transform="matrix(2.07161,0.0898746,-0.0898746,2.07161,970.582,-283.468)">
            <circle cx="291.299" cy="287.183" r="3.556" style="fill:rgb(102,102,102);fill-opacity:0.38;"/>
        </g>
        <g transform="matrix(2.07161,0.0898746,-0.0898746,2.07161,967.959,-267.928)">
            <circle cx="317.78" cy="283.955" r="3.556" style="fill:rgb(102,102,102);fill-opacity:0.38;"/>
        </g>
        <g transform="matrix(2.07161,0.0898746,-0.0898746,2.07161,970.696,-271.118)">
            <circle cx="344.257" cy="283.955" r="3.556" style="fill:rgb(102,102,102);fill-opacity:0.38;"/>
        </g>
        <g transform="matrix(2.07161,0.0898746,-0.0898746,2.07161,970.582,-283.468)">
            <circle cx="370.737" cy="280.786" r="3.556" style="fill:rgb(102,102,102);fill-opacity:0.38;"/>
        </g>
        <g transform="matrix(2.07161,0.0898746,-0.0898746,2.07161,970.582,-283.468)">
            <circle cx="397.218" cy="271.621" r="3.556" style="fill:rgb(102,102,102);fill-opacity:0.38;"/>
        </g>
        <g transform="matrix(2.07161,0.0898746,-0.0898746,2.07161,970.582,-283.468)">
            <circle cx="423.684" cy="268.673" r="3.556" style="fill:rgb(102,102,102);fill-opacity:0.38;"/>
        </g>
        <g transform="matrix(2.07161,0.0898746,-0.0898746,2.07161,970.582,-283.468)">
            <circle cx="450.172" cy="260.125" r="3.556" style="fill:rgb(102,102,102);fill-opacity:0.38;"/>
        </g>
    </g>
    <g transform="matrix(1,0,0,1,-146.087,-13.9131)">
        <g transform="matrix(0.83684,0,0,0.754169,19.6658,-8.02408)">
            <g opacity="0.54">
                <g transform="matrix(1,0,0,1.09895,0,-15.9794)">
                    <path d="M470.182,130.176C470.182,117.202 459.649,106.669 446.675,106.669L399.661,106.669C386.687,106.669 376.154,117.202 376.154,130.176L376.154,180.626C376.154,193.6 386.687,204.133 399.661,204.133L446.675,204.133C459.649,204.133 470.182,193.6 470.182,180.626L470.182,130.176Z" style="fill:rgb(139,139,139);"/>
                </g>
                <g transform="matrix(1,0,0,1.09895,-0.108835,-15.6529)">
                    <path d="M470.182,130.176C470.182,117.202 459.649,106.669 446.675,106.669L399.661,106.669C386.687,106.669 376.154,117.202 376.154,130.176L470.182,130.176Z" style="fill:rgb(0,66,147);"/>
                </g>
                <g transform="matrix(1,0,0,1,2.1942,5.11981)">
                    <g transform="matrix(0.707107,0.707107,-0.707107,0.707107,214.032,-286.221)">
                        <rect x="445.882" y="106.983" width="3.047" height="12.298" style="fill:rgb(236,236,236);"/>
                    </g>
                    <g transform="matrix(-0.707107,0.707107,-0.707107,-0.707107,846.758,-126.227)">
                        <rect x="445.882" y="106.983" width="3.047" height="12.298" style="fill:rgb(236,236,236);"/>
                    </g>
                </g>
                <g transform="matrix(1.03699,0,0,0.908557,-14.1351,18.391)">
                    <g opacity="0.58">
                        <g transform="matrix(0.557158,0,0,0.103278,172.889,122.776)">
                            <path d="M470.182,130.176C470.182,117.202 459.649,106.669 446.675,106.669L399.661,106.669C386.687,106.669 376.154,117.202 376.154,130.176L376.154,180.626C376.154,193.6 386.687,204.133 399.661,204.133L446.675,204.133C459.649,204.133 470.182,193.6 470.182,180.626L470.182,130.176Z" style="fill:rgb(255,0,134);"/>
                        </g>
                        <g transform="matrix(0.545583,0,0,0.103278,204.76,146.584)">
                            <path d="M470.182,130.176C470.182,117.202 459.649,106.669 446.675,106.669L399.661,106.669C386.687,106.669 376.154,117.202 376.154,130.176L376.154,180.626C376.154,193.6 386.687,204.133 399.661,204.133L446.675,204.133C459.649,204.133 470.182,193.6 470.182,180.626L470.182,130.176Z" style="fill:rgb(255,0,134);"/>
                        </g>
                        <g transform="matrix(0.544426,0,0,0.103278,177.436,169.401)">
                            <path d="M470.182,130.176C470.182,117.202 459.649,106.669 446.675,106.669L399.661,106.669C386.687,106.669 376.154,117.202 376.154,130.176L376.154,180.626C376.154,193.6 386.687,204.133 399.661,204.133L446.675,204.133C459.649,204.133 470.182,193.6 470.182,180.626L470.182,130.176Z" style="fill:rgb(255,0,134);"/>
                        </g>
                        <g transform="matrix(0.262821,0,0,0.103278,337.484,122.776)">
                            <path d="M470.182,130.176C470.182,117.202 459.649,106.669 446.675,106.669L399.661,106.669C386.687,106.669 376.154,117.202 376.154,130.176L376.154,180.626C376.154,193.6 386.687,204.133 399.661,204.133L446.675,204.133C459.649,204.133 470.182,193.6 470.182,180.626L470.182,130.176Z" style="fill:rgb(0,202,255);"/>
                        </g>
                        <g transform="matrix(0.262821,0,0,0.103278,311.223,134.529)">
                            <path d="M470.182,130.176C470.182,117.202 459.649,106.669 446.675,106.669L399.661,106.669C386.687,106.669 376.154,117.202 376.154,130.176L376.154,180.626C376.154,193.6 386.687,204.133 399.661,204.133L446.675,204.133C459.649,204.133 470.182,193.6 470.182,180.626L470.182,130.176Z" style="fill:rgb(0,202,255);"/>
                        </g>
                        <g transform="matrix(0.262821,0,0,0.103278,310.444,180.037)">
                            <path d="M470.182,130.176C470.182,117.202 459.649,106.669 446.675,106.669L399.661,106.669C386.687,106.669 376.154,117.202 376.154,130.176L376.154,180.626C376.154,193.6 386.687,204.133 399.661,204.133L446.675,204.133C459.649,204.133 470.182,193.6 470.182,180.626L470.182,130.176Z" style="fill:rgb(0,202,255);"/>
                        </g>
                        <g transform="matrix(0.262821,0,0,0.103278,283.94,110.118)">
                            <path d="M470.182,130.176C470.182,117.202 459.649,106.669 446.675,106.669L399.661,106.669C386.687,106.669 376.154,117.202 376.154,130.176L376.154,180.626C376.154,193.6 386.687,204.133 399.661,204.133L446.675,204.133C459.649,204.133 470.182,193.6 470.182,180.626L470.182,130.176Z" style="fill:rgb(0,202,255);"/>
                        </g>
                        <g transform="matrix(0.262821,0,0,0.103278,283.923,134.529)">
                            <path d="M470.182,130.176C470.182,117.202 459.649,106.669 446.675,106.669L399.661,106.669C386.687,106.669 376.154,117.202 376.154,130.176L376.154,180.626C376.154,193.6 386.687,204.133 399.661,204.133L446.675,204.133C459.649,204.133 470.182,193.6 470.182,180.626L470.182,130.176Z" style="fill:rgb(0,255,20);"/>
                        </g>
                        <g transform="matrix(0.262821,0,0,0.103278,310.461,110.118)">
                            <path d="M470.182,130.176C470.182,117.202 459.649,106.669 446.675,106.669L399.661,106.669C386.687,106.669 376.154,117.202 376.154,130.176L376.154,180.626C376.154,193.6 386.687,204.133 399.661,204.133L446.675,204.133C459.649,204.133 470.182,193.6 470.182,180.626L470.182,130.176Z" style="fill:rgb(255,159,0);"/>
                        </g>
                        <g transform="matrix(0.262821,0,0,0.103278,283.321,157.944)">
                            <path d="M470.182,130.176C470.182,117.202 459.649,106.669 446.675,106.669L399.661,106.669C386.687,106.669 376.154,117.202 376.154,130.176L376.154,180.626C376.154,193.6 386.687,204.133 399.661,204.133L446.675,204.133C459.649,204.133 470.182,193.6 470.182,180.626L470.182,130.176Z" style="fill:rgb(255,159,0);"/>
                        </g>
                        <g transform="matrix(0.262821,0,0,0.103278,283.923,180.037)">
                            <path d="M470.182,130.176C470.182,117.202 459.649,106.669 446.675,106.669L399.661,106.669C386.687,106.669 376.154,117.202 376.154,130.176L376.154,180.626C376.154,193.6 386.687,204.133 399.661,204.133L446.675,204.133C459.649,204.133 470.182,193.6 470.182,180.626L470.182,130.176Z" style="fill:rgb(255,159,0);"/>
                        </g>
                        <g transform="matrix(0.262821,0,0,0.103278,311.047,157.944)">
                            <path d="M470.182,130.176C470.182,117.202 459.649,106.669 446.675,106.669L399.661,106.669C386.687,106.669 376.154,117.202 376.154,130.176L376.154,180.626C376.154,193.6 386.687,204.133 399.661,204.133L446.675,204.133C459.649,204.133 470.182,193.6 470.182,180.626L470.182,130.176Z" style="fill:rgb(0,255,20);"/>
                        </g>
                        <g transform="matrix(0.262821,0,0,0.103278,336.965,180.037)">
                            <path d="M470.182,130.176C470.182,117.202 459.649,106.669 446.675,106.669L399.661,106.669C386.687,106.669 376.154,117.202 376.154,130.176L376.154,180.626C376.154,193.6 386.687,204.133 399.661,204.133L446.675,204.133C459.649,204.133 470.182,193.6 470.182,180.626L470.182,130.176Z" style="fill:rgb(0,255,20);"/>
                        </g>
                        <g transform="matrix(0.262821,0,0,0.103278,337.568,169.401)">
                            <path d="M470.182,130.176C470.182,117.202 459.649,106.669 446.675,106.669L399.661,106.669C386.687,106.669 376.154,117.202 376.154,130.176L376.154,180.626C376.154,193.6 386.687,204.133 399.661,204.133L446.675,204.133C459.649,204.133 470.182,193.6 470.182,180.626L470.182,130.176Z" style="fill:rgb(255,27,0);"/>
                        </g>
                        <g transform="matrix(0.262821,0,0,0.103278,283.321,146.584)">
                            <path d="M470.182,130.176C470.182,117.202 459.649,106.669 446.675,106.669L399.661,106.669C386.687,106.669 376.154,117.202 376.154,130.176L376.154,180.626C376.154,193.6 386.687,204.133 399.661,204.133L446.675,204.133C459.649,204.133 470.182,193.6 470.182,180.626L470.182,130.176Z" style="fill:rgb(255,27,0);"/>
                        </g>
                        <g transform="matrix(0.262821,0,0,0.103278,337.693,134.529)">
                            <path d="M470.182,130.176C470.182,117.202 459.649,106.669 446.675,106.669L399.661,106.669C386.687,106.669 376.154,117.202 376.154,130.176L376.154,180.626C376.154,193.6 386.687,204.133 399.661,204.133L446.675,204.133C459.649,204.133 470.182,193.6 470.182,180.626L470.182,130.176Z" style="fill:rgb(255,27,0);"/>
                        </g>
                        <g transform="matrix(0.262821,0,0,0.103278,337.568,157.944)">
                            <path d="M470.182,130.176C470.182,117.202 459.649,106.669 446.675,106.669L399.661,106.669C386.687,106.669 376.154,117.202 376.154,130.176L376.154,180.626C376.154,193.6 386.687,204.133 399.661,204.133L446.675,204.133C459.649,204.133 470.182,193.6 470.182,180.626L470.182,130.176Z" style="fill:rgb(37,0,255);"/>
                        </g>
                        <g transform="matrix(0.262821,0,0,0.103278,336.981,110.118)">
                            <path d="M470.182,130.176C470.182,117.202 459.649,106.669 446.675,106.669L399.661,106.669C386.687,106.669 376.154,117.202 376.154,130.176L376.154,180.626C376.154,193.6 386.687,204.133 399.661,204.133L446.675,204.133C459.649,204.133 470.182,193.6 470.182,180.626L470.182,130.176Z" style="fill:rgb(37,0,255);"/>
                        </g>
                        <g id="Toggle--on-" serif:id="Toggle (on)" transform="matrix(0.0981704,-1.01267e-17,-7.99605e-18,0.132618,289.753,27.732)">
                            <g transform="matrix(2.56,2.0844e-16,1.64135e-16,2.4,-2734.08,-4729)">
                                <path d="M1555.21,2220.19C1555.21,2203.08 1541.32,2189.19 1524.21,2189.19L1484.21,2189.19C1467.1,2189.19 1453.21,2203.08 1453.21,2220.19C1453.21,2237.3 1467.1,2251.19 1484.21,2251.19L1524.21,2251.19C1541.32,2251.19 1555.21,2237.3 1555.21,2220.19Z" style="fill:rgb(76,217,100);"/>
                            </g>
                            <g transform="matrix(2.56,2.0844e-16,1.64135e-16,2.4,626.702,519.774)">
                                <circle cx="211.4" cy="33.2" r="28" style="fill:white;"/>
                                <path d="M211.4,5.2C226.854,5.2 239.4,17.746 239.4,33.2C239.4,48.654 226.854,61.2 211.4,61.2C195.946,61.2 183.4,48.654 183.4,33.2C183.4,17.746 195.946,5.2 211.4,5.2ZM211.4,9.785C224.323,9.785 234.815,20.277 234.815,33.2C234.815,46.123 224.323,56.615 211.4,56.615C198.477,56.615 187.985,46.123 187.985,33.2C187.985,20.277 198.477,9.785 211.4,9.785Z" style="fill:rgb(228,228,228);"/>
                            </g>
                        </g>
                        <g id="Toggle--off-" serif:id="Toggle (off)" transform="matrix(0.093705,-1.03069e-17,-6.40846e-18,0.126586,322.839,58.9599)">
                            <g transform="matrix(2.56,2.0844e-16,1.64135e-16,2.4,-2734.61,-4951.65)">
                                <path d="M1555.21,2220.19C1555.21,2203.08 1541.32,2189.19 1524.21,2189.19L1484.21,2189.19C1467.1,2189.19 1453.21,2203.08 1453.21,2220.19C1453.21,2237.3 1467.1,2251.19 1484.21,2251.19L1524.21,2251.19C1541.32,2251.19 1555.21,2237.3 1555.21,2220.19Z" style="fill:white;"/>
                                <path d="M1555.21,2220.19C1555.21,2203.08 1541.32,2189.19 1524.21,2189.19L1484.21,2189.19C1467.1,2189.19 1453.21,2203.08 1453.21,2220.19C1453.21,2237.3 1467.1,2251.19 1484.21,2251.19L1524.21,2251.19C1541.32,2251.19 1555.21,2237.3 1555.21,2220.19ZM1552.21,2220.19C1552.21,2235.64 1539.66,2248.19 1524.21,2248.19L1484.21,2248.19C1468.75,2248.19 1456.21,2235.64 1456.21,2220.19C1456.21,2204.73 1468.75,2192.19 1484.21,2192.19C1484.21,2192.19 1524.21,2192.19 1524.21,2192.19C1539.66,2192.19 1552.21,2204.73 1552.21,2220.19Z" style="fill:rgb(227,227,227);"/>
                            </g>
                            <g transform="matrix(2.56,2.0844e-16,1.64135e-16,2.4,977.422,297.12)">
                                <circle cx="34.2" cy="33.2" r="28" style="fill:rgb(184,179,179);"/>
                                <path d="M34.2,5.2C49.654,5.2 62.2,17.746 62.2,33.2C62.2,48.654 49.654,61.2 34.2,61.2C18.746,61.2 6.2,48.654 6.2,33.2C6.2,17.746 18.746,5.2 34.2,5.2ZM34.2,6.2C49.102,6.2 61.2,18.298 61.2,33.2C61.2,48.102 49.102,60.2 34.2,60.2C19.298,60.2 7.2,48.102 7.2,33.2C7.2,18.298 19.298,6.2 34.2,6.2Z" style="fill:rgb(228,228,228);"/>
                            </g>
                        </g>
                    </g>
                </g>
            </g>
        </g>
        <path d="M336.444,271.49L348.651,201.731C346.144,200.127 344.401,197.538 344.103,194.547L255.204,124.52L351.134,184.01C352.208,183.613 353.376,183.419 354.592,183.419C360.447,183.419 365.201,187.907 365.201,193.435C365.201,198.362 361.425,202.462 356.455,203.273L336.444,271.49Z" style="fill-opacity:0.25;"/>
        <g transform="matrix(0.142724,0.0373566,-0.0373566,0.142724,458.741,-210.149)">
            <g opacity="0.63">
                <g transform="matrix(0.717194,-0.00820354,0.0093204,0.814836,-969.143,1823.47)">
                    <rect x="1903.59" y="1422.89" width="563.57" height="231.566" style="fill:rgb(44,69,71);"/>
                </g>
                <g transform="matrix(1.67965,0,0,1.67965,178.539,2721.84)">
                    <path d="M47.1,361.1C44.5,360.4 35.7,358.7 35.2,357C34.9,356.3 32.7,346.1 32.3,346.3C31.8,346.6 28.9,346.4 25.7,346C20,345.2 12.7,341.4 9.3,337.8C4.9,333.1 2.9,325.6 3.1,313.8C3.2,308.4 3.8,301.9 4.2,297.5C5.2,285.8 15.7,276 27.9,275.4C30.9,275.3 32.573,275.361 32.973,274.661C33.573,273.861 34.457,263.657 38.099,262.415C47.988,259.042 70,260.7 70,260.7L70,257.4C70,255.6 70.3,253.5 70.6,252.6C71.3,250.7 77.1,253.1 77.7,252.7C78.4,252.3 78.6,247.6 78.3,238.9C78,231.7 79.257,210.741 79.941,206.563C80.204,204.959 77.438,205.887 76.6,205.8C74.2,205.6 73.4,204.9 72.6,202.5C72.2,200.9 71.1,198.3 70.4,196.8C69.6,195.4 69,193.4 69,192.4C69,191.5 68.4,189.9 67.6,189.1C66.8,188.2 65.9,185.7 65.5,183.5C65,180.5 65.5,171.4 65.5,161.8C65.5,151.82 65.607,135.995 68.933,126.718C71.338,120.008 76.967,118 78.1,118C78.9,118 80.4,117.3 81.4,116.5C82.9,115.4 91,115 94.1,115C98.7,115 117.3,115 120.8,114.5C124.4,114.1 195.523,114.968 227.469,114.695C231.658,114.659 236.003,114.624 240.478,114.59C249.534,114.521 259.119,114.457 269,114.4C321,114.1 369.9,113.8 377.8,113.7C385.6,113.6 415.5,113.3 415.5,113.3L428.3,113.3C435.3,113.2 441.3,113 441.6,112.8C442.038,112.299 449.644,113.067 454.736,115.847C457.782,117.509 458.795,120.557 459.989,122.636C462.715,127.381 463.846,134.625 463.8,135.5C463.7,137.4 464.8,142.1 464.9,149.6C465,159.2 468.1,296 468.9,296C469.835,296 470.397,326.914 465.889,344.872C463.168,355.713 455.205,357.035 454,357.6C450.8,359.1 440.4,359.2 342.5,358.7C253.222,358.24 109.921,356.401 85.735,356.964C83.616,357.013 78.305,359.96 78.2,360C75.3,361.2 50.4,362.1 47.1,361.1ZM11.7,337.3C11.3,337 10.7,337 10.3,337.3C10,337.7 10.3,338 11,338C11.7,338 12,337.7 11.7,337.3ZM10.7,335.3C10.3,335 9.7,335 9.3,335.3C9,335.7 9.3,336 10,336C10.7,336 11,335.7 10.7,335.3ZM152.822,239.793C152.822,239.793 355.551,240.3 356.451,239.4C356.951,238.9 356,219.4 356.1,196L356.3,153.5C356.3,153.5 155.3,154 153.5,154C152.2,154 152.822,239.793 152.822,239.793Z" style="fill:rgb(49,49,51);fill-rule:nonzero;"/>
                </g>
                <g transform="matrix(1.67965,0,0,1.67965,178.539,2721.84)">
                    <g id="Layer12" serif:id="Layer1">
                        <path d="M137,311.9C147.676,314.468 161.401,308.698 175.049,304.141C182.599,301.621 188.645,298.712 195.651,297.212C203.907,295.445 212.979,295.29 219.89,295.016C238.427,294.283 241.547,303.805 269.026,303.778C285.105,303.761 298.924,293.215 311.699,292.761C327.078,292.213 335.739,300.164 347.7,300.041C358.9,299.926 364.599,292.473 381.137,292.382C397.492,292.292 407.176,302.425 418.718,302.337C428.798,302.259 430.159,296.508 433.948,288.44C441.95,271.402 441.004,244.235 440.855,237.984C440.418,219.612 445.268,167.045 431.332,151.473C422.337,141.42 399.486,141.316 385.529,143.738C376.017,145.389 373.256,152.821 373.176,153.954C372.611,161.972 374.125,198.385 373.809,228.773C373.638,245.19 374.792,250.999 367.757,251.075C340.98,251.367 273.78,251 225.3,251C170.7,251.1 145.4,250.7 144,250C139,247.3 139,247.5 138.7,198.8C138.5,155.7 138.4,153.1 136.6,151.1C135.6,150 128.584,146.516 123.19,147.031C117.559,147.569 111.343,152.047 108.45,156.851C100.897,169.39 95.798,192.954 94.552,203.115C92.607,218.982 93.47,241.058 93.8,247C94.2,253.3 95.9,264.9 97,268.5C97.4,270.2 101.328,287.724 105.603,293.479C107.886,296.552 112.903,302.301 119.337,305.961C125.536,309.488 133.123,310.968 137,311.9Z" style="fill:rgb(0,25,58);fill-rule:nonzero;"/>
                    </g>
                </g>
                <g transform="matrix(1.32601,0,0,1.32601,-162.303,-1097.76)">
                    <ellipse cx="534.579" cy="3292.53" rx="35.713" ry="34.597" style="fill:rgb(0,25,58);"/>
                </g>
                <g transform="matrix(1.32601,0,0,1.32601,112.399,-1097.34)">
                    <ellipse cx="534.579" cy="3292.53" rx="35.713" ry="34.597" style="fill:rgb(0,25,58);"/>
                </g>
                <g transform="matrix(1.32601,0,0,1.32601,-23.3206,-1095.07)">
                    <ellipse cx="534.579" cy="3292.53" rx="35.713" ry="34.597" style="fill:rgb(0,25,58);"/>
                </g>
            </g>
        </g>
        <g transform="matrix(0.141928,-0.0287885,0.0287885,0.141928,125.937,-130.455)">
            <g opacity="0.5">
                <rect x="74.61" y="2497.16" width="403.627" height="305.975" style="fill:rgb(103,103,103);"/>
                <g transform="matrix(1,-2.87632e-17,1.07476e-16,0.334401,-5.82751e-14,1770.62)">
                    <rect x="74.61" y="2497.16" width="403.627" height="305.975" style="fill:rgb(38,47,40);"/>
                </g>
                <g transform="matrix(0.877446,0,0,0.877446,31.0861,2451.87)">
                    <path d="M826.3,431.5C822.4,432.6 747.7,430 613.6,430C464.2,430 411.4,429.7 409.6,428.9C407.7,428 406.7,428 405.7,428.9C404,430.3 99.4,430.5 95.7,429.1C94.5,428.6 57.4,430.1 47.2,429.6C41.3,429.3 35.2,428.7 33.5,428.2C32.724,427.981 16.167,423.545 16.177,406.508C16.22,334.539 14.88,160.466 16.1,148.5C16,138.1 15.273,59.343 16.173,59.043C17.273,58.543 52.433,42.773 55,61C55.181,62.287 54.8,112.2 54.8,121.3C54.8,127.4 54.9,161.1 55,196C55.1,230.9 55,262.9 54.8,292.8C54.4,332.4 55.3,392.6 56.2,393.5C56.5,393.9 136,394.1 232.7,394.1C329.4,394 429.5,394 455.3,394L502,394L502,390C502,387.1 502,310.6 501.8,191.5L501.5,57L56.6,57C55.4,57 55,58 55,61C55,63.9 54.6,65 53.5,65C53.186,65 47.277,64.976 40.248,64.597C29.344,64.01 15.747,62.57 16.173,59.043C16.473,55.943 13.512,14.979 18.412,15.379C22.112,15.679 371.6,16.1 376.3,15.7C381.9,15.3 463,15.1 730.5,14.6L823.5,14.5L833,19.3C839.179,22.364 886.049,50.497 915.131,89.657C943.944,128.456 955,178.3 955,178.4C955,178.6 955.5,181.2 956,184.1C957.3,190.7 957.9,197.4 958.6,215.4C958.953,223.626 958.011,262.675 947.592,295.276C937.363,327.277 917.679,352.882 915.4,356.3C911.5,362.1 906,366.4 906,368C906,371 873.1,403.5 868.7,404.9C868,405.1 866.8,406 866,407C865.2,408 863.1,409.7 861.4,410.7C859.7,411.7 854.3,415.2 849.4,418.4C839.7,424.8 829.8,430.4 826.3,431.5Z" style="fill:rgb(29,29,29);fill-rule:nonzero;"/>
                </g>
                <g transform="matrix(0.877446,1.73472e-18,-1.73472e-18,0.877446,31.0861,2451.87)">
                    <path d="M757.5,355.6C763,354.2 768.9,352.5 770.5,351.8C784.5,346.5 797.8,339.4 808,331.7C813.907,327.27 829.795,314.469 839.641,298.227C853.13,275.975 860.269,249.447 860.5,249.1C860.77,248.615 862.845,239.558 863.081,230.414C863.184,226.402 862.864,214.439 860.806,202.906C858.851,191.955 855.205,181.432 853.5,177C851.4,171.8 849.2,166.2 848.6,164.5C848,162.9 846.2,159.5 844.6,157C843,154.5 840.5,150.7 839.1,148.5C827.9,131.1 809.4,114.2 790,103.8C781.6,99.3 763.5,92.6 754.5,90.7C747,89.1 729.6,86.6 726.8,86.8C726.253,86.8 702.509,85.62 679.358,91.777C670.282,94.191 654.481,101.195 641.789,109.725C627.628,119.242 617,130.267 617,130.9C617,131.2 603.9,148.5 599,157.3C597.733,159.53 589.927,174.665 586.265,191.272C582.701,207.432 583.246,225.029 584.306,230.397C585.812,238.019 588.026,246.925 589.096,252.238C590.45,258.904 593.915,269.092 599.192,279.044C601.762,283.891 613.391,306.855 632.933,324.584C650.314,340.352 674.937,351.087 690,354.9C703.9,358.4 709.6,358.9 729,358.5C745,358.2 748.9,357.8 757.5,355.6Z" style="fill-rule:nonzero;"/>
                </g>
                <g transform="matrix(-0.877446,2.77556e-16,-2.77556e-16,-0.877446,1299.5,2852.38)">
                    <path d="M725.4,406C725.9,406 747.2,388.4 748.1,386.1C749,383.7 744.255,380.153 743.329,381.08C740.525,383.884 726.4,397 725.9,397C725.4,397 710.052,382.014 708.42,380.606C707.028,379.406 702.147,383.501 703.147,384.901C705.547,388.001 724.5,405.9 725.4,406Z" style="fill-rule:nonzero;"/>
                </g>
                <g transform="matrix(0.877446,-3.85012e-16,3.85012e-16,0.877446,26.1264,2450.11)">
                    <path d="M725.4,406C725.9,406 747.2,388.4 748.1,386.1C749,383.7 744.255,380.153 743.329,381.08C740.525,383.884 726.4,397 725.9,397C725.4,397 710.052,382.014 708.42,380.606C707.028,379.406 702.147,383.501 703.147,384.901C705.547,388.001 724.5,405.9 725.4,406Z" style="fill-rule:nonzero;"/>
                </g>
                <g transform="matrix(1.43298e-15,0.877446,-0.877446,1.43298e-15,860.168,2007.32)">
                    <path d="M725.4,406C725.9,406 747.2,388.4 748.1,386.1C749,383.7 744.255,380.153 743.329,381.08C740.525,383.884 726.4,397 725.9,397C725.4,397 710.052,382.014 708.42,380.606C707.028,379.406 702.147,383.501 703.147,384.901C705.547,388.001 724.5,405.9 725.4,406Z" style="fill-rule:nonzero;"/>
                </g>
                <g transform="matrix(2.33133e-16,-0.877446,0.877446,2.33133e-16,462.371,3280.69)">
                    <path d="M725.4,406C725.9,406 747.2,388.4 748.1,386.1C749,383.7 744.255,380.153 743.329,381.08C740.525,383.884 726.4,397 725.9,397C725.4,397 710.052,382.014 708.42,380.606C707.028,379.406 702.147,383.501 703.147,384.901C705.547,388.001 724.5,405.9 725.4,406Z" style="fill-rule:nonzero;"/>
                </g>
                <g transform="matrix(1.43473,0,0,1.43473,-297.756,-1138.11)">
                    <circle cx="670.7" cy="2635.8" r="18.955"/>
                </g>
                <g transform="matrix(-0.684995,-0.0183268,0.0365938,-1.36776,1001.95,6507.5)">
                    <path d="M1496.26,2798.06C1497.03,2797.59 1496.21,2795.29 1496.14,2793.89C1496.1,2792.88 1496.07,2791.82 1496.02,2790.86C1495.87,2788.4 1495.49,2786.57 1493.8,2787.64C1471.4,2801.89 1436.94,2799.87 1432.12,2799.9C1399.48,2800.1 1373.52,2771.89 1342.02,2772.43C1310.2,2772.99 1264.74,2806.77 1235.45,2806.96C1198.31,2807.19 1163.89,2776.33 1132.83,2776.82C1083.47,2777.6 1043.93,2801.71 1017.26,2801.71C986.885,2801.71 926.889,2779.14 926.889,2779.14C925.164,2779.14 923.764,2780.54 923.764,2782.26L923.764,2788.51C923.764,2790.24 925.164,2791.64 926.889,2791.64C926.889,2791.64 986.587,2814.21 1016.82,2814.21C1043.66,2814.21 1083.54,2790.1 1133.35,2789.31C1164.28,2788.82 1198.51,2819.68 1235.44,2819.44C1265.33,2819.25 1311.45,2785.45 1343.96,2784.88C1375.23,2784.33 1400.93,2812.54 1433.3,2812.34C1438.53,2812.31 1473.68,2811.72 1496.26,2798.06Z" style="fill:rgb(0,255,62);"/>
                </g>
            </g>
        </g>
    </g>
</svg>
