<?xml version="1.0" encoding="UTF-8" standalone="no"?>
<!DOCTYPE svg PUBLIC "-//W3C//DTD SVG 1.1//EN" "http://www.w3.org/Graphics/SVG/1.1/DTD/svg11.dtd">
<svg width="100%" height="100%" viewBox="0 0 1920 900" version="1.1" xmlns="http://www.w3.org/2000/svg" xmlns:xlink="http://www.w3.org/1999/xlink" xml:space="preserve" xmlns:serif="http://www.serif.com/" style="fill-rule:evenodd;clip-rule:evenodd;stroke-linejoin:round;stroke-miterlimit:2;">
    <g transform="matrix(1,0,0,1,-3.00963,-267.857)">
        <g transform="matrix(2.07281,0.0558209,-0.0558209,2.07281,-170.353,-35.1508)">
            <circle cx="158.914" cy="280.786" r="3.556" style="fill-opacity:0.2;"/>
        </g>
        <g transform="matrix(2.07281,0.0558209,-0.0558209,2.07281,-223.287,-54.0839)">
            <circle cx="158.914" cy="280.786" r="3.556" style="fill-opacity:0.2;"/>
        </g>
        <g transform="matrix(2.07281,0.0558209,-0.0558209,2.07281,-278.271,-48.193)">
            <circle cx="158.914" cy="280.786" r="3.556" style="fill-opacity:0.2;"/>
        </g>
        <g transform="matrix(2.07281,0.0558209,-0.0558209,2.07281,-170.353,-35.1508)">
            <circle cx="185.379" cy="290.475" r="3.556" style="fill-opacity:0.2;"/>
        </g>
        <g transform="matrix(2.07281,0.0558209,-0.0558209,2.07281,-170.353,-35.1508)">
            <circle cx="211.864" cy="293.832" r="3.556" style="fill-opacity:0.2;"/>
        </g>
        <g transform="matrix(2.07281,0.0558209,-0.0558209,2.07281,-170.353,-35.1508)">
            <circle cx="238.337" cy="297.256" r="3.556" style="fill-opacity:0.2;"/>
        </g>
        <g transform="matrix(2.07281,0.0558209,-0.0558209,2.07281,-170.353,-35.1508)">
            <circle cx="264.818" cy="293.832" r="3.556" style="fill-opacity:0.2;"/>
        </g>
        <g transform="matrix(2.07281,0.0558209,-0.0558209,2.07281,-170.353,-35.1508)">
            <circle cx="291.299" cy="287.183" r="3.556" style="fill-opacity:0.2;"/>
        </g>
        <g transform="matrix(2.07281,0.0558209,-0.0558209,2.07281,-172.721,-19.5696)">
            <circle cx="317.78" cy="283.955" r="3.556" style="fill-opacity:0.2;"/>
        </g>
        <g transform="matrix(2.07281,0.0558209,-0.0558209,2.07281,-170.036,-22.8041)">
            <circle cx="344.257" cy="283.955" r="3.556" style="fill-opacity:0.2;"/>
        </g>
        <g transform="matrix(2.07281,0.0558209,-0.0558209,2.07281,-170.353,-35.1508)">
            <circle cx="370.737" cy="280.786" r="3.556" style="fill-opacity:0.2;"/>
        </g>
        <g transform="matrix(2.07281,0.0558209,-0.0558209,2.07281,-170.353,-35.1508)">
            <circle cx="397.218" cy="271.621" r="3.556" style="fill-opacity:0.2;"/>
        </g>
        <g transform="matrix(2.07281,0.0558209,-0.0558209,2.07281,-170.353,-35.1508)">
            <circle cx="423.684" cy="268.673" r="3.556" style="fill-opacity:0.2;"/>
        </g>
        <g transform="matrix(2.07281,0.0558209,-0.0558209,2.07281,-170.353,-35.1508)">
            <circle cx="450.172" cy="260.125" r="3.556" style="fill-opacity:0.2;"/>
        </g>
        <g transform="matrix(2.07281,0.0558209,-0.0558209,2.07281,-170.353,-35.1508)">
            <circle cx="476.641" cy="251.987" r="3.556" style="fill-opacity:0.2;"/>
        </g>
        <g transform="matrix(2.07281,0.0558209,-0.0558209,2.07281,-170.353,-35.1508)">
            <circle cx="503.13" cy="246.77" r="3.556" style="fill-opacity:0.2;"/>
        </g>
        <g transform="matrix(2.07281,0.0558209,-0.0558209,2.07281,-170.353,-35.1508)">
            <circle cx="529.614" cy="246.77" r="3.556" style="fill-opacity:0.2;"/>
        </g>
        <g transform="matrix(2.07281,0.0558209,-0.0558209,2.07281,-170.353,-35.1508)">
            <circle cx="556.088" cy="249.358" r="3.556" style="fill-opacity:0.2;"/>
        </g>
        <g transform="matrix(2.07281,0.0558209,-0.0558209,2.07281,-129.076,-14.9468)">
            <circle cx="556.088" cy="249.358" r="3.556" style="fill-opacity:0.2;"/>
        </g>
        <g transform="matrix(2.07281,0.0558209,-0.0558209,2.07281,-93.3224,7.83578)">
            <circle cx="556.088" cy="249.358" r="3.556" style="fill-opacity:0.2;"/>
        </g>
        <g transform="matrix(2.07281,0.0558209,-0.0558209,2.07281,-56.4897,24.2834)">
            <circle cx="556.088" cy="249.358" r="3.556" style="fill-opacity:0.2;"/>
        </g>
        <g transform="matrix(2.07281,0.0558209,-0.0558209,2.07281,-14.5764,20.8661)">
            <circle cx="556.088" cy="249.358" r="3.556" style="fill-opacity:0.2;"/>
        </g>
    </g>
    <g id="Layer1" transform="matrix(1,0,0,1,-184.525,451.958)">
        <g transform="matrix(1.89733,0.836518,-0.836518,1.89733,1382.15,-767.458)">
            <circle cx="158.914" cy="280.786" r="3.556" style="fill-opacity:0.2;"/>
        </g>
        <g transform="matrix(1.89733,0.836518,-0.836518,1.89733,1340.33,-805.024)">
            <circle cx="158.914" cy="280.786" r="3.556" style="fill-opacity:0.2;"/>
        </g>
        <g transform="matrix(1.89733,0.836518,-0.836518,1.89733,1287.2,-820.391)">
            <circle cx="158.914" cy="280.786" r="3.556" style="fill-opacity:0.2;"/>
        </g>
        <g transform="matrix(1.89733,0.836518,-0.836518,1.89733,1382.15,-767.458)">
            <circle cx="185.379" cy="290.475" r="3.556" style="fill-opacity:0.2;"/>
        </g>
        <g transform="matrix(1.89733,0.836518,-0.836518,1.89733,1382.15,-767.458)">
            <circle cx="211.864" cy="293.832" r="3.556" style="fill-opacity:0.2;"/>
        </g>
        <g transform="matrix(1.89733,0.836518,-0.836518,1.89733,1382.15,-767.458)">
            <circle cx="238.337" cy="297.256" r="3.556" style="fill-opacity:0.2;"/>
        </g>
        <g transform="matrix(1.89733,0.836518,-0.836518,1.89733,1382.15,-767.458)">
            <circle cx="264.818" cy="293.832" r="3.556" style="fill-opacity:0.2;"/>
        </g>
        <g transform="matrix(1.89733,0.836518,-0.836518,1.89733,1382.15,-767.458)">
            <circle cx="291.299" cy="287.183" r="3.556" style="fill-opacity:0.2;"/>
        </g>
        <g transform="matrix(1.89733,0.836518,-0.836518,1.89733,1374.06,-753.933)">
            <circle cx="317.78" cy="283.955" r="3.556" style="fill-opacity:0.2;"/>
        </g>
        <g transform="matrix(1.89733,0.836518,-0.836518,1.89733,1377.77,-755.91)">
            <circle cx="344.257" cy="283.955" r="3.556" style="fill-opacity:0.2;"/>
        </g>
        <g transform="matrix(1.89733,0.836518,-0.836518,1.89733,1382.15,-767.458)">
            <circle cx="370.737" cy="280.786" r="3.556" style="fill-opacity:0.2;"/>
        </g>
        <g transform="matrix(1.89733,0.836518,-0.836518,1.89733,1382.15,-767.458)">
            <circle cx="397.218" cy="271.621" r="3.556" style="fill-opacity:0.2;"/>
        </g>
        <g transform="matrix(1.89733,0.836518,-0.836518,1.89733,1382.15,-767.458)">
            <circle cx="423.684" cy="268.673" r="3.556" style="fill-opacity:0.2;"/>
        </g>
        <g transform="matrix(1.89733,0.836518,-0.836518,1.89733,1382.15,-767.458)">
            <circle cx="450.172" cy="260.125" r="3.556" style="fill-opacity:0.2;"/>
        </g>
        <g transform="matrix(1.89733,0.836518,-0.836518,1.89733,1382.15,-767.458)">
            <circle cx="476.641" cy="251.987" r="3.556" style="fill-opacity:0.2;"/>
        </g>
    </g>
    <g id="Layer11" serif:id="Layer1" transform="matrix(0.646964,-0.762521,0.762521,0.646964,411.313,1429.44)">
        <g transform="matrix(1.89733,0.836518,-0.836518,1.89733,1382.15,-767.458)">
            <circle cx="158.914" cy="280.786" r="3.556" style="fill:white;fill-opacity:0.2;"/>
        </g>
        <g transform="matrix(1.89733,0.836518,-0.836518,1.89733,1340.33,-805.024)">
            <circle cx="158.914" cy="280.786" r="3.556" style="fill:white;fill-opacity:0.2;"/>
        </g>
        <g transform="matrix(1.89733,0.836518,-0.836518,1.89733,1287.2,-820.391)">
            <circle cx="158.914" cy="280.786" r="3.556" style="fill:white;fill-opacity:0.2;"/>
        </g>
        <g transform="matrix(1.89733,0.836518,-0.836518,1.89733,1382.15,-767.458)">
            <circle cx="185.379" cy="290.475" r="3.556" style="fill:white;fill-opacity:0.2;"/>
        </g>
        <g transform="matrix(1.89733,0.836518,-0.836518,1.89733,1382.15,-767.458)">
            <circle cx="211.864" cy="293.832" r="3.556" style="fill:white;fill-opacity:0.2;"/>
        </g>
        <g transform="matrix(1.89733,0.836518,-0.836518,1.89733,1382.15,-767.458)">
            <circle cx="238.337" cy="297.256" r="3.556" style="fill:white;fill-opacity:0.2;"/>
        </g>
        <g transform="matrix(1.89733,0.836518,-0.836518,1.89733,1382.15,-767.458)">
            <circle cx="264.818" cy="293.832" r="3.556" style="fill:white;fill-opacity:0.2;"/>
        </g>
        <g transform="matrix(1.89733,0.836518,-0.836518,1.89733,1382.15,-767.458)">
            <circle cx="291.299" cy="287.183" r="3.556" style="fill:white;fill-opacity:0.2;"/>
        </g>
        <g transform="matrix(1.89733,0.836518,-0.836518,1.89733,1374.06,-753.933)">
            <circle cx="317.78" cy="283.955" r="3.556" style="fill:white;fill-opacity:0.2;"/>
        </g>
        <g transform="matrix(1.89733,0.836518,-0.836518,1.89733,1377.77,-755.91)">
            <circle cx="344.257" cy="283.955" r="3.556" style="fill:white;fill-opacity:0.2;"/>
        </g>
        <g transform="matrix(1.89733,0.836518,-0.836518,1.89733,1382.15,-767.458)">
            <circle cx="370.737" cy="280.786" r="3.556" style="fill:white;fill-opacity:0.2;"/>
        </g>
        <g transform="matrix(1.89733,0.836518,-0.836518,1.89733,1382.15,-767.458)">
            <circle cx="397.218" cy="271.621" r="3.556" style="fill:white;fill-opacity:0.2;"/>
        </g>
    </g>
    <g id="Layer2" transform="matrix(1,0,0,1,3.1533,0)">
        <g transform="matrix(2.07161,0.0898746,-0.0898746,2.07161,970.582,-283.468)">
            <circle cx="158.914" cy="280.786" r="3.556" style="fill:rgb(102,102,102);fill-opacity:0.2;"/>
        </g>
        <g transform="matrix(2.07161,0.0898746,-0.0898746,2.07161,915.384,-299.393)">
            <circle cx="158.914" cy="280.786" r="3.556" style="fill:rgb(102,102,102);fill-opacity:0.2;"/>
        </g>
        <g transform="matrix(2.07161,0.0898746,-0.0898746,2.07161,862.893,-298.282)">
            <circle cx="158.914" cy="280.786" r="3.556" style="fill:rgb(102,102,102);fill-opacity:0.2;"/>
        </g>
        <g transform="matrix(2.07161,0.0898746,-0.0898746,2.07161,970.582,-283.468)">
            <circle cx="185.379" cy="290.475" r="3.556" style="fill:rgb(102,102,102);fill-opacity:0.2;"/>
        </g>
        <g transform="matrix(2.07161,0.0898746,-0.0898746,2.07161,970.582,-283.468)">
            <circle cx="211.864" cy="293.832" r="3.556" style="fill:rgb(102,102,102);fill-opacity:0.2;"/>
        </g>
        <g transform="matrix(2.07161,0.0898746,-0.0898746,2.07161,970.582,-283.468)">
            <circle cx="238.337" cy="297.256" r="3.556" style="fill:rgb(102,102,102);fill-opacity:0.2;"/>
        </g>
        <g transform="matrix(2.07161,0.0898746,-0.0898746,2.07161,970.582,-283.468)">
            <circle cx="264.818" cy="293.832" r="3.556" style="fill:rgb(102,102,102);fill-opacity:0.2;"/>
        </g>
        <g transform="matrix(2.07161,0.0898746,-0.0898746,2.07161,970.582,-283.468)">
            <circle cx="291.299" cy="287.183" r="3.556" style="fill:rgb(102,102,102);fill-opacity:0.2;"/>
        </g>
        <g transform="matrix(2.07161,0.0898746,-0.0898746,2.07161,967.959,-267.928)">
            <circle cx="317.78" cy="283.955" r="3.556" style="fill:rgb(102,102,102);fill-opacity:0.2;"/>
        </g>
        <g transform="matrix(2.07161,0.0898746,-0.0898746,2.07161,970.696,-271.118)">
            <circle cx="344.257" cy="283.955" r="3.556" style="fill:rgb(102,102,102);fill-opacity:0.2;"/>
        </g>
        <g transform="matrix(2.07161,0.0898746,-0.0898746,2.07161,970.582,-283.468)">
            <circle cx="370.737" cy="280.786" r="3.556" style="fill:rgb(102,102,102);fill-opacity:0.2;"/>
        </g>
        <g transform="matrix(2.07161,0.0898746,-0.0898746,2.07161,970.582,-283.468)">
            <circle cx="397.218" cy="271.621" r="3.556" style="fill:rgb(102,102,102);fill-opacity:0.2;"/>
        </g>
        <g transform="matrix(2.07161,0.0898746,-0.0898746,2.07161,970.582,-283.468)">
            <circle cx="423.684" cy="268.673" r="3.556" style="fill:rgb(102,102,102);fill-opacity:0.2;"/>
        </g>
        <g transform="matrix(2.07161,0.0898746,-0.0898746,2.07161,970.582,-283.468)">
            <circle cx="450.172" cy="260.125" r="3.556" style="fill:rgb(102,102,102);fill-opacity:0.2;"/>
        </g>
    </g>
    <g transform="matrix(0.826873,-1.25624e-09,-1.2176e-10,0.826872,1439.49,425.066)">
        <g id="s2">
            <path d="M4.554,359.286L4.092,359.286C4.092,465.43 91.427,552.765 197.572,552.765C303.716,552.765 391.051,465.43 391.051,359.286L390.621,359.286C389.618,254.481 302.877,168.53 197.587,168.53C92.298,168.53 5.557,254.481 4.554,359.286ZM356.236,344.367L38.939,344.367C47.446,264.834 115.754,202.03 197.587,202.03C279.421,202.03 347.728,264.834 356.236,344.367Z" style="fill:rgb(172,172,172);fill-opacity:0.06;fill-rule:nonzero;"/>
        </g>
    </g>
</svg>
