<?xml version="1.0" encoding="UTF-8" standalone="no"?>
<!DOCTYPE svg PUBLIC "-//W3C//DTD SVG 1.1//EN" "http://www.w3.org/Graphics/SVG/1.1/DTD/svg11.dtd">
<svg width="100%" height="100%" viewBox="0 0 1920 900" version="1.1" xmlns="http://www.w3.org/2000/svg" xmlns:xlink="http://www.w3.org/1999/xlink" xml:space="preserve" xmlns:serif="http://www.serif.com/" style="fill-rule:evenodd;clip-rule:evenodd;stroke-linejoin:round;stroke-miterlimit:2;">
    <g transform="matrix(1,0,0,1,-3.00963,-267.857)">
        <g transform="matrix(2.07281,0.0558209,-0.0558209,2.07281,-170.353,-35.1508)">
            <circle cx="158.914" cy="280.786" r="3.556" style="fill-opacity:0.2;"/>
        </g>
        <g transform="matrix(2.07281,0.0558209,-0.0558209,2.07281,-223.287,-54.0839)">
            <circle cx="158.914" cy="280.786" r="3.556" style="fill-opacity:0.2;"/>
        </g>
        <g transform="matrix(2.07281,0.0558209,-0.0558209,2.07281,-278.271,-48.193)">
            <circle cx="158.914" cy="280.786" r="3.556" style="fill-opacity:0.2;"/>
        </g>
        <g transform="matrix(2.07281,0.0558209,-0.0558209,2.07281,-170.353,-35.1508)">
            <circle cx="185.379" cy="290.475" r="3.556" style="fill-opacity:0.2;"/>
        </g>
        <g transform="matrix(2.07281,0.0558209,-0.0558209,2.07281,-170.353,-35.1508)">
            <circle cx="211.864" cy="293.832" r="3.556" style="fill-opacity:0.2;"/>
        </g>
        <g transform="matrix(2.07281,0.0558209,-0.0558209,2.07281,-170.353,-35.1508)">
            <circle cx="238.337" cy="297.256" r="3.556" style="fill-opacity:0.2;"/>
        </g>
        <g transform="matrix(2.07281,0.0558209,-0.0558209,2.07281,-170.353,-35.1508)">
            <circle cx="264.818" cy="293.832" r="3.556" style="fill-opacity:0.2;"/>
        </g>
        <g transform="matrix(2.07281,0.0558209,-0.0558209,2.07281,-170.353,-35.1508)">
            <circle cx="291.299" cy="287.183" r="3.556" style="fill-opacity:0.2;"/>
        </g>
        <g transform="matrix(2.07281,0.0558209,-0.0558209,2.07281,-172.721,-19.5696)">
            <circle cx="317.78" cy="283.955" r="3.556" style="fill-opacity:0.2;"/>
        </g>
        <g transform="matrix(2.07281,0.0558209,-0.0558209,2.07281,-170.036,-22.8041)">
            <circle cx="344.257" cy="283.955" r="3.556" style="fill-opacity:0.2;"/>
        </g>
        <g transform="matrix(2.07281,0.0558209,-0.0558209,2.07281,-170.353,-35.1508)">
            <circle cx="370.737" cy="280.786" r="3.556" style="fill-opacity:0.2;"/>
        </g>
        <g transform="matrix(2.07281,0.0558209,-0.0558209,2.07281,-170.353,-35.1508)">
            <circle cx="397.218" cy="271.621" r="3.556" style="fill-opacity:0.2;"/>
        </g>
        <g transform="matrix(2.07281,0.0558209,-0.0558209,2.07281,-170.353,-35.1508)">
            <circle cx="423.684" cy="268.673" r="3.556" style="fill-opacity:0.2;"/>
        </g>
        <g transform="matrix(2.07281,0.0558209,-0.0558209,2.07281,-170.353,-35.1508)">
            <circle cx="450.172" cy="260.125" r="3.556" style="fill-opacity:0.2;"/>
        </g>
        <g transform="matrix(2.07281,0.0558209,-0.0558209,2.07281,-170.353,-35.1508)">
            <circle cx="476.641" cy="251.987" r="3.556" style="fill-opacity:0.2;"/>
        </g>
        <g transform="matrix(2.07281,0.0558209,-0.0558209,2.07281,-170.353,-35.1508)">
            <circle cx="503.13" cy="246.77" r="3.556" style="fill-opacity:0.2;"/>
        </g>
        <g transform="matrix(2.07281,0.0558209,-0.0558209,2.07281,-170.353,-35.1508)">
            <circle cx="529.614" cy="246.77" r="3.556" style="fill-opacity:0.2;"/>
        </g>
        <g transform="matrix(2.07281,0.0558209,-0.0558209,2.07281,-170.353,-35.1508)">
            <circle cx="556.088" cy="249.358" r="3.556" style="fill-opacity:0.2;"/>
        </g>
        <g transform="matrix(2.07281,0.0558209,-0.0558209,2.07281,-129.076,-14.9468)">
            <circle cx="556.088" cy="249.358" r="3.556" style="fill-opacity:0.2;"/>
        </g>
        <g transform="matrix(2.07281,0.0558209,-0.0558209,2.07281,-93.3224,7.83578)">
            <circle cx="556.088" cy="249.358" r="3.556" style="fill-opacity:0.2;"/>
        </g>
        <g transform="matrix(2.07281,0.0558209,-0.0558209,2.07281,-56.4897,24.2834)">
            <circle cx="556.088" cy="249.358" r="3.556" style="fill-opacity:0.2;"/>
        </g>
        <g transform="matrix(2.07281,0.0558209,-0.0558209,2.07281,-14.5764,20.8661)">
            <circle cx="556.088" cy="249.358" r="3.556" style="fill-opacity:0.2;"/>
        </g>
    </g>
    <g id="Layer1" transform="matrix(1,0,0,1,-184.525,451.958)">
        <g transform="matrix(1.89733,0.836518,-0.836518,1.89733,1382.15,-767.458)">
            <circle cx="158.914" cy="280.786" r="3.556" style="fill-opacity:0.2;"/>
        </g>
        <g transform="matrix(1.89733,0.836518,-0.836518,1.89733,1340.33,-805.024)">
            <circle cx="158.914" cy="280.786" r="3.556" style="fill-opacity:0.2;"/>
        </g>
        <g transform="matrix(1.89733,0.836518,-0.836518,1.89733,1287.2,-820.391)">
            <circle cx="158.914" cy="280.786" r="3.556" style="fill-opacity:0.2;"/>
        </g>
        <g transform="matrix(1.89733,0.836518,-0.836518,1.89733,1382.15,-767.458)">
            <circle cx="185.379" cy="290.475" r="3.556" style="fill-opacity:0.2;"/>
        </g>
        <g transform="matrix(1.89733,0.836518,-0.836518,1.89733,1382.15,-767.458)">
            <circle cx="211.864" cy="293.832" r="3.556" style="fill-opacity:0.2;"/>
        </g>
        <g transform="matrix(1.89733,0.836518,-0.836518,1.89733,1382.15,-767.458)">
            <circle cx="238.337" cy="297.256" r="3.556" style="fill-opacity:0.2;"/>
        </g>
        <g transform="matrix(1.89733,0.836518,-0.836518,1.89733,1382.15,-767.458)">
            <circle cx="264.818" cy="293.832" r="3.556" style="fill-opacity:0.2;"/>
        </g>
        <g transform="matrix(1.89733,0.836518,-0.836518,1.89733,1382.15,-767.458)">
            <circle cx="291.299" cy="287.183" r="3.556" style="fill-opacity:0.2;"/>
        </g>
        <g transform="matrix(1.89733,0.836518,-0.836518,1.89733,1374.06,-753.933)">
            <circle cx="317.78" cy="283.955" r="3.556" style="fill-opacity:0.2;"/>
        </g>
        <g transform="matrix(1.89733,0.836518,-0.836518,1.89733,1377.77,-755.91)">
            <circle cx="344.257" cy="283.955" r="3.556" style="fill-opacity:0.2;"/>
        </g>
        <g transform="matrix(1.89733,0.836518,-0.836518,1.89733,1382.15,-767.458)">
            <circle cx="370.737" cy="280.786" r="3.556" style="fill-opacity:0.2;"/>
        </g>
        <g transform="matrix(1.89733,0.836518,-0.836518,1.89733,1382.15,-767.458)">
            <circle cx="397.218" cy="271.621" r="3.556" style="fill-opacity:0.2;"/>
        </g>
        <g transform="matrix(1.89733,0.836518,-0.836518,1.89733,1382.15,-767.458)">
            <circle cx="423.684" cy="268.673" r="3.556" style="fill-opacity:0.2;"/>
        </g>
        <g transform="matrix(1.89733,0.836518,-0.836518,1.89733,1382.15,-767.458)">
            <circle cx="450.172" cy="260.125" r="3.556" style="fill-opacity:0.2;"/>
        </g>
        <g transform="matrix(1.89733,0.836518,-0.836518,1.89733,1382.15,-767.458)">
            <circle cx="476.641" cy="251.987" r="3.556" style="fill-opacity:0.2;"/>
        </g>
    </g>
    <g id="Layer11" serif:id="Layer1" transform="matrix(0.646964,-0.762521,0.762521,0.646964,411.313,1429.44)">
        <g transform="matrix(1.89733,0.836518,-0.836518,1.89733,1382.15,-767.458)">
            <circle cx="158.914" cy="280.786" r="3.556" style="fill:white;fill-opacity:0.2;"/>
        </g>
        <g transform="matrix(1.89733,0.836518,-0.836518,1.89733,1340.33,-805.024)">
            <circle cx="158.914" cy="280.786" r="3.556" style="fill:white;fill-opacity:0.2;"/>
        </g>
        <g transform="matrix(1.89733,0.836518,-0.836518,1.89733,1287.2,-820.391)">
            <circle cx="158.914" cy="280.786" r="3.556" style="fill:white;fill-opacity:0.2;"/>
        </g>
        <g transform="matrix(1.89733,0.836518,-0.836518,1.89733,1382.15,-767.458)">
            <circle cx="185.379" cy="290.475" r="3.556" style="fill:white;fill-opacity:0.2;"/>
        </g>
        <g transform="matrix(1.89733,0.836518,-0.836518,1.89733,1382.15,-767.458)">
            <circle cx="211.864" cy="293.832" r="3.556" style="fill:white;fill-opacity:0.2;"/>
        </g>
        <g transform="matrix(1.89733,0.836518,-0.836518,1.89733,1382.15,-767.458)">
            <circle cx="238.337" cy="297.256" r="3.556" style="fill:white;fill-opacity:0.2;"/>
        </g>
        <g transform="matrix(1.89733,0.836518,-0.836518,1.89733,1382.15,-767.458)">
            <circle cx="264.818" cy="293.832" r="3.556" style="fill:white;fill-opacity:0.2;"/>
        </g>
        <g transform="matrix(1.89733,0.836518,-0.836518,1.89733,1382.15,-767.458)">
            <circle cx="291.299" cy="287.183" r="3.556" style="fill:white;fill-opacity:0.2;"/>
        </g>
        <g transform="matrix(1.89733,0.836518,-0.836518,1.89733,1374.06,-753.933)">
            <circle cx="317.78" cy="283.955" r="3.556" style="fill:white;fill-opacity:0.2;"/>
        </g>
        <g transform="matrix(1.89733,0.836518,-0.836518,1.89733,1377.77,-755.91)">
            <circle cx="344.257" cy="283.955" r="3.556" style="fill:white;fill-opacity:0.2;"/>
        </g>
        <g transform="matrix(1.89733,0.836518,-0.836518,1.89733,1382.15,-767.458)">
            <circle cx="370.737" cy="280.786" r="3.556" style="fill:white;fill-opacity:0.2;"/>
        </g>
        <g transform="matrix(1.89733,0.836518,-0.836518,1.89733,1382.15,-767.458)">
            <circle cx="397.218" cy="271.621" r="3.556" style="fill:white;fill-opacity:0.2;"/>
        </g>
    </g>
    <g id="Layer2" transform="matrix(1,0,0,1,3.1533,0)">
        <g transform="matrix(2.07161,0.0898746,-0.0898746,2.07161,970.582,-283.468)">
            <circle cx="158.914" cy="280.786" r="3.556" style="fill:rgb(102,102,102);fill-opacity:0.2;"/>
        </g>
        <g transform="matrix(2.07161,0.0898746,-0.0898746,2.07161,915.384,-299.393)">
            <circle cx="158.914" cy="280.786" r="3.556" style="fill:rgb(102,102,102);fill-opacity:0.2;"/>
        </g>
        <g transform="matrix(2.07161,0.0898746,-0.0898746,2.07161,862.893,-298.282)">
            <circle cx="158.914" cy="280.786" r="3.556" style="fill:rgb(102,102,102);fill-opacity:0.2;"/>
        </g>
        <g transform="matrix(2.07161,0.0898746,-0.0898746,2.07161,970.582,-283.468)">
            <circle cx="185.379" cy="290.475" r="3.556" style="fill:rgb(102,102,102);fill-opacity:0.2;"/>
        </g>
        <g transform="matrix(2.07161,0.0898746,-0.0898746,2.07161,970.582,-283.468)">
            <circle cx="211.864" cy="293.832" r="3.556" style="fill:rgb(102,102,102);fill-opacity:0.2;"/>
        </g>
        <g transform="matrix(2.07161,0.0898746,-0.0898746,2.07161,970.582,-283.468)">
            <circle cx="238.337" cy="297.256" r="3.556" style="fill:rgb(102,102,102);fill-opacity:0.2;"/>
        </g>
        <g transform="matrix(2.07161,0.0898746,-0.0898746,2.07161,970.582,-283.468)">
            <circle cx="264.818" cy="293.832" r="3.556" style="fill:rgb(102,102,102);fill-opacity:0.2;"/>
        </g>
        <g transform="matrix(2.07161,0.0898746,-0.0898746,2.07161,970.582,-283.468)">
            <circle cx="291.299" cy="287.183" r="3.556" style="fill:rgb(102,102,102);fill-opacity:0.2;"/>
        </g>
        <g transform="matrix(2.07161,0.0898746,-0.0898746,2.07161,967.959,-267.928)">
            <circle cx="317.78" cy="283.955" r="3.556" style="fill:rgb(102,102,102);fill-opacity:0.2;"/>
        </g>
        <g transform="matrix(2.07161,0.0898746,-0.0898746,2.07161,970.696,-271.118)">
            <circle cx="344.257" cy="283.955" r="3.556" style="fill:rgb(102,102,102);fill-opacity:0.2;"/>
        </g>
        <g transform="matrix(2.07161,0.0898746,-0.0898746,2.07161,970.582,-283.468)">
            <circle cx="370.737" cy="280.786" r="3.556" style="fill:rgb(102,102,102);fill-opacity:0.2;"/>
        </g>
        <g transform="matrix(2.07161,0.0898746,-0.0898746,2.07161,970.582,-283.468)">
            <circle cx="397.218" cy="271.621" r="3.556" style="fill:rgb(102,102,102);fill-opacity:0.2;"/>
        </g>
        <g transform="matrix(2.07161,0.0898746,-0.0898746,2.07161,970.582,-283.468)">
            <circle cx="423.684" cy="268.673" r="3.556" style="fill:rgb(102,102,102);fill-opacity:0.2;"/>
        </g>
        <g transform="matrix(2.07161,0.0898746,-0.0898746,2.07161,970.582,-283.468)">
            <circle cx="450.172" cy="260.125" r="3.556" style="fill:rgb(102,102,102);fill-opacity:0.2;"/>
        </g>
    </g>
    <g transform="matrix(-1.82316,0.00143544,-0.00133441,-1.69484,1884.51,1774.04)">
        <g id="s2" transform="matrix(-0.391081,-0.000331225,0.000307913,-0.420691,917.076,1029.58)">
            <path d="M4.554,359.286L4.092,359.286C4.092,465.43 91.427,552.765 197.572,552.765C303.716,552.765 391.051,465.43 391.051,359.286L390.621,359.286C389.618,254.481 302.877,168.53 197.587,168.53C92.298,168.53 5.557,254.481 4.554,359.286ZM356.236,344.367L38.939,344.367C47.446,264.834 115.754,202.03 197.587,202.03C279.421,202.03 347.728,264.834 356.236,344.367Z" style="fill:white;fill-opacity:0.56;fill-rule:nonzero;"/>
        </g>
        <g id="label" transform="matrix(-4.39002,-0.00371811,0.00345642,-4.7224,761.441,739.928)">
            <rect x="-5.799" y="-1.78" width="1.78" height="1.78" style="fill:white;fill-opacity:0.75;"/>
        </g>
        <g transform="matrix(-4.39002,-0.00371811,0.00345642,-4.7224,761.441,739.928)">
            <path d="M6.372,-9.609L4.818,-9.488C4.679,-10.101 4.482,-10.547 4.227,-10.825C3.805,-11.27 3.284,-11.493 2.665,-11.493C2.167,-11.493 1.73,-11.354 1.354,-11.076C0.862,-10.718 0.475,-10.194 0.191,-9.505C-0.093,-8.817 -0.24,-7.836 -0.252,-6.563C0.124,-7.135 0.584,-7.561 1.128,-7.839C1.672,-8.116 2.242,-8.255 2.839,-8.255C3.88,-8.255 4.767,-7.872 5.499,-7.105C6.231,-6.338 6.597,-5.347 6.597,-4.132C6.597,-3.333 6.425,-2.591 6.081,-1.905C5.736,-1.22 5.263,-0.694 4.661,-0.33C4.06,0.035 3.377,0.217 2.613,0.217C1.311,0.217 0.249,-0.262 -0.573,-1.22C-1.395,-2.177 -1.806,-3.756 -1.806,-5.955C-1.806,-8.414 -1.351,-10.203 -0.443,-11.319C0.35,-12.292 1.418,-12.778 2.76,-12.778C3.762,-12.778 4.582,-12.497 5.221,-11.936C5.861,-11.374 6.244,-10.599 6.372,-9.609ZM-0.009,-4.123C-0.009,-3.585 0.106,-3.07 0.334,-2.578C0.563,-2.086 0.883,-1.712 1.293,-1.454C1.704,-1.196 2.135,-1.068 2.587,-1.068C3.247,-1.068 3.814,-1.334 4.288,-1.866C4.763,-2.399 5,-3.122 5,-4.036C5,-4.916 4.766,-5.609 4.297,-6.115C3.828,-6.622 3.238,-6.875 2.526,-6.875C1.82,-6.875 1.221,-6.622 0.729,-6.115C0.237,-5.609 -0.009,-4.945 -0.009,-4.123Z" style="fill:white;fill-opacity:0.56;fill-rule:nonzero;"/>
        </g>
    </g>
</svg>
