<?xml version="1.0" encoding="UTF-8" standalone="no"?>
<!DOCTYPE svg PUBLIC "-//W3C//DTD SVG 1.1//EN" "http://www.w3.org/Graphics/SVG/1.1/DTD/svg11.dtd">
<svg width="100%" height="100%" viewBox="0 0 1920 900" version="1.1" xmlns="http://www.w3.org/2000/svg" xmlns:xlink="http://www.w3.org/1999/xlink" xml:space="preserve" xmlns:serif="http://www.serif.com/" style="fill-rule:evenodd;clip-rule:evenodd;stroke-linejoin:round;stroke-miterlimit:2;">
    <g transform="matrix(-1.82316,0.00143544,-0.00133441,-1.69484,1884.51,1774.04)">
        <g id="s2" transform="matrix(-0.391081,-0.000331225,0.000307913,-0.420691,917.076,1029.58)">
            <path d="M4.554,359.286L4.092,359.286C4.092,465.43 91.427,552.765 197.572,552.765C303.716,552.765 391.051,465.43 391.051,359.286L390.621,359.286C389.618,254.481 302.877,168.53 197.587,168.53C92.298,168.53 5.557,254.481 4.554,359.286ZM356.236,344.367L38.939,344.367C47.446,264.834 115.754,202.03 197.587,202.03C279.421,202.03 347.728,264.834 356.236,344.367Z" style="fill:white;fill-opacity:0.56;fill-rule:nonzero;"/>
        </g>
        <g transform="matrix(-0.0013428,1.83462,-1.7055,-0.00144447,1667.13,196.234)">
            <path d="M311.728,424.84C314.706,428.086 317.281,430.555 319.452,432.245C321.624,433.936 323.673,435.195 325.599,436.024L325.599,437.535C323.382,438.61 321.233,439.981 319.15,441.649C317.068,443.317 314.583,445.764 311.694,448.988L309.108,448.988C311.213,444.487 313.418,441.028 315.724,438.61L262.155,438.61L262.155,435.218L315.724,435.218C314.023,433.046 312.836,431.434 312.164,430.381C311.493,429.329 310.496,427.482 309.175,424.84L311.728,424.84Z" style="fill-opacity:0.09;fill-rule:nonzero;"/>
        </g>
        <g transform="matrix(-0.0013428,1.83462,-1.7055,-0.00144447,1615.58,195.484)">
            <path d="M311.728,424.84C314.706,428.086 317.281,430.555 319.452,432.245C321.624,433.936 323.673,435.195 325.599,436.024L325.599,437.535C323.382,438.61 321.233,439.981 319.15,441.649C317.068,443.317 314.583,445.764 311.694,448.988L309.108,448.988C311.213,444.487 313.418,441.028 315.724,438.61L262.155,438.61L262.155,435.218L315.724,435.218C314.023,433.046 312.836,431.434 312.164,430.381C311.493,429.329 310.496,427.482 309.175,424.84L311.728,424.84Z" style="fill-opacity:0.09;fill-rule:nonzero;"/>
        </g>
        <g transform="matrix(-1.20502,-1.2983,1.20692,-1.29625,514.305,1765.43)">
            <path d="M311.728,424.84C314.706,428.086 317.281,430.555 319.452,432.245C321.624,433.936 323.673,435.195 325.599,436.024L325.599,437.535C323.382,438.61 321.233,439.981 319.15,441.649C317.068,443.317 314.583,445.764 311.694,448.988L309.108,448.988C311.213,444.487 313.418,441.028 315.724,438.61L262.155,438.61L262.155,435.218L315.724,435.218C314.023,433.046 312.836,431.434 312.164,430.381C311.493,429.329 310.496,427.482 309.175,424.84L311.728,424.84Z" style="fill-opacity:0.09;fill-rule:nonzero;"/>
        </g>
        <g transform="matrix(-1.20692,1.29625,-1.20502,-1.2983,1332.59,1166)">
            <path d="M311.728,424.84C314.706,428.086 317.281,430.555 319.452,432.245C321.624,433.936 323.673,435.195 325.599,436.024L325.599,437.535C323.382,438.61 321.233,439.981 319.15,441.649C317.068,443.317 314.583,445.764 311.694,448.988L309.108,448.988C311.213,444.487 313.418,441.028 315.724,438.61L262.155,438.61L262.155,435.218L315.724,435.218C314.023,433.046 312.836,431.434 312.164,430.381C311.493,429.329 310.496,427.482 309.175,424.84L311.728,424.84Z" style="fill-opacity:0.09;fill-rule:nonzero;"/>
        </g>
        <g transform="matrix(-1.7055,-0.00144447,0.0013428,-1.83462,1302.87,1782.32)">
            <path d="M311.728,424.84C314.706,428.086 317.281,430.555 319.452,432.245C321.624,433.936 323.673,435.195 325.599,436.024L325.599,437.535C323.382,438.61 321.233,439.981 319.15,441.649C317.068,443.317 314.583,445.764 311.694,448.988L309.108,448.988C311.213,444.487 313.418,441.028 315.724,438.61L262.155,438.61L262.155,435.218L315.724,435.218C314.023,433.046 312.836,431.434 312.164,430.381C311.493,429.329 310.496,427.482 309.175,424.84L311.728,424.84Z" style="fill-opacity:0.09;fill-rule:nonzero;"/>
        </g>
        <g transform="matrix(0.0013428,-1.83462,1.7055,0.00144447,-283.777,1250.01)">
            <path d="M311.728,424.84C314.706,428.086 317.281,430.555 319.452,432.245C321.624,433.936 323.673,435.195 325.599,436.024L325.599,437.535C323.382,438.61 321.233,439.981 319.15,441.649C317.068,443.317 314.583,445.764 311.694,448.988L309.108,448.988C311.213,444.487 313.418,441.028 315.724,438.61L262.155,438.61L262.155,435.218L315.724,435.218C314.023,433.046 312.836,431.434 312.164,430.381C311.493,429.329 310.496,427.482 309.175,424.84L311.728,424.84Z" style="fill-opacity:0.09;fill-rule:nonzero;"/>
        </g>
        <g transform="matrix(0.0013428,-1.83462,1.7055,0.00144447,-229.188,1250.06)">
            <path d="M311.728,424.84C314.706,428.086 317.281,430.555 319.452,432.245C321.624,433.936 323.673,435.195 325.599,436.024L325.599,437.535C323.382,438.61 321.233,439.981 319.15,441.649C317.068,443.317 314.583,445.764 311.694,448.988L309.108,448.988C311.213,444.487 313.418,441.028 315.724,438.61L262.155,438.61L262.155,435.218L315.724,435.218C314.023,433.046 312.836,431.434 312.164,430.381C311.493,429.329 310.496,427.482 309.175,424.84L311.728,424.84Z" style="fill-opacity:0.09;fill-rule:nonzero;"/>
        </g>
        <g transform="matrix(-0.0013428,1.83462,-1.7055,-0.00144447,1013.16,344.903)">
            <path d="M311.728,424.84C314.706,428.086 317.281,430.555 319.452,432.245C321.624,433.936 323.673,435.195 325.599,436.024L325.599,437.535C323.382,438.61 321.233,439.981 319.15,441.649C317.068,443.317 314.583,445.764 311.694,448.988L309.108,448.988C311.213,444.487 313.418,441.028 315.724,438.61L262.155,438.61L262.155,435.218L315.724,435.218C314.023,433.046 312.836,431.434 312.164,430.381C311.493,429.329 310.496,427.482 309.175,424.84L311.728,424.84Z" style="fill-opacity:0.09;fill-rule:nonzero;"/>
        </g>
        <g transform="matrix(0.0013428,-1.83462,1.7055,0.00144447,250.036,1514.43)">
            <path d="M311.728,424.84C314.706,428.086 317.281,430.555 319.452,432.245C321.624,433.936 323.673,435.195 325.599,436.024L325.599,437.535C323.382,438.61 321.233,439.981 319.15,441.649C317.068,443.317 314.583,445.764 311.694,448.988L309.108,448.988C311.213,444.487 313.418,441.028 315.724,438.61L262.155,438.61L262.155,435.218L315.724,435.218C314.023,433.046 312.836,431.434 312.164,430.381C311.493,429.329 310.496,427.482 309.175,424.84L311.728,424.84Z" style="fill-opacity:0.09;fill-rule:nonzero;"/>
        </g>
        <g id="label" transform="matrix(-4.39002,-0.00371811,0.00345642,-4.7224,761.441,739.928)">
            <rect x="-5.799" y="-1.78" width="1.78" height="1.78" style="fill:white;fill-opacity:0.75;"/>
        </g>
        <g transform="matrix(-4.39002,-0.00371811,0.00345642,-4.7224,761.441,739.928)">
            <path d="M6.372,-9.609L4.818,-9.488C4.679,-10.101 4.482,-10.547 4.227,-10.825C3.805,-11.27 3.284,-11.493 2.665,-11.493C2.167,-11.493 1.73,-11.354 1.354,-11.076C0.862,-10.718 0.475,-10.194 0.191,-9.505C-0.093,-8.817 -0.24,-7.836 -0.252,-6.563C0.124,-7.135 0.584,-7.561 1.128,-7.839C1.672,-8.116 2.242,-8.255 2.839,-8.255C3.88,-8.255 4.767,-7.872 5.499,-7.105C6.231,-6.338 6.597,-5.347 6.597,-4.132C6.597,-3.333 6.425,-2.591 6.081,-1.905C5.736,-1.22 5.263,-0.694 4.661,-0.33C4.06,0.035 3.377,0.217 2.613,0.217C1.311,0.217 0.249,-0.262 -0.573,-1.22C-1.395,-2.177 -1.806,-3.756 -1.806,-5.955C-1.806,-8.414 -1.351,-10.203 -0.443,-11.319C0.35,-12.292 1.418,-12.778 2.76,-12.778C3.762,-12.778 4.582,-12.497 5.221,-11.936C5.861,-11.374 6.244,-10.599 6.372,-9.609ZM-0.009,-4.123C-0.009,-3.585 0.106,-3.07 0.334,-2.578C0.563,-2.086 0.883,-1.712 1.293,-1.454C1.704,-1.196 2.135,-1.068 2.587,-1.068C3.247,-1.068 3.814,-1.334 4.288,-1.866C4.763,-2.399 5,-3.122 5,-4.036C5,-4.916 4.766,-5.609 4.297,-6.115C3.828,-6.622 3.238,-6.875 2.526,-6.875C1.82,-6.875 1.221,-6.622 0.729,-6.115C0.237,-5.609 -0.009,-4.945 -0.009,-4.123Z" style="fill:white;fill-opacity:0.56;fill-rule:nonzero;"/>
        </g>
    </g>
</svg>
