<?xml version="1.0" encoding="UTF-8" standalone="no"?>
<!DOCTYPE svg PUBLIC "-//W3C//DTD SVG 1.1//EN" "http://www.w3.org/Graphics/SVG/1.1/DTD/svg11.dtd">
<svg width="100%" height="100%" viewBox="0 0 1920 900" version="1.1" xmlns="http://www.w3.org/2000/svg" xmlns:xlink="http://www.w3.org/1999/xlink" xml:space="preserve" xmlns:serif="http://www.serif.com/" style="fill-rule:evenodd;clip-rule:evenodd;stroke-linejoin:round;stroke-miterlimit:2;">
    <g transform="matrix(-1.82316,0.00143544,-0.00133441,-1.69484,1884.51,1774.04)">
        <g transform="matrix(1,1.0842e-19,0,1,0.0308523,-42.1525)">
            <path d="M959.029,611.214L968.798,611.214L968.798,651.872L991.141,652.43L991.141,611.214L1003.03,611.214L1003.03,677.649L1018.66,677.649L1018.66,645.074L1033.56,645.074L1033.56,700.163L1052.63,700.163L1052.63,662.065L1063.32,662.065L1063.32,680.666L1078.28,680.666L1078.28,638.506L1098.43,638.506L1098.43,617.878L1132.28,617.878L1132.28,342.492L181.473,342.492L-39.836,464.061L-122.389,464.061L-174.861,481.232L-22.735,1091.66L367.174,1110.57L680.486,558.443L685.567,558.447L685.587,662.065L711.617,662.065L711.617,585.551L740.471,585.551L740.471,652.43L754.943,652.43L754.943,638.506L768.921,638.506L768.921,709.629L783.244,709.629L783.244,680.666L802.445,680.666L802.445,645.074L823.491,645.074L823.491,617.878L839.031,617.878L839.031,680.666L855.128,680.666L855.128,602.421L868.463,602.421L868.463,672.5L880.067,672.5L880.067,662.065L889.596,662.065L889.596,693.952L899.841,693.952L899.841,680.666L909.929,680.666L909.929,688.932L915.286,688.932L915.286,703.454L929.408,703.454L929.408,677.649L944.764,677.649L944.764,659.141L959.029,659.141L959.029,611.214Z" style="fill-opacity:0.5;"/>
        </g>
        <g transform="matrix(-0.238601,-0.156732,0.346159,-0.609793,451.216,1089.19)">
            <path d="M292.799,-41.111L1520.1,-326.587L2471.64,330.45L292.799,935.631L292.799,-41.111Z" style="fill-opacity:0.31;"/>
        </g>
    </g>
</svg>
