<?xml version="1.0" encoding="UTF-8" standalone="no"?>
<!DOCTYPE svg PUBLIC "-//W3C//DTD SVG 1.1//EN" "http://www.w3.org/Graphics/SVG/1.1/DTD/svg11.dtd">
<svg width="100%" height="100%" viewBox="0 0 1920 900" version="1.1" xmlns="http://www.w3.org/2000/svg" xmlns:xlink="http://www.w3.org/1999/xlink" xml:space="preserve" xmlns:serif="http://www.serif.com/" style="fill-rule:evenodd;clip-rule:evenodd;stroke-linejoin:round;stroke-miterlimit:2;">
    <g transform="matrix(-1.82316,0.00143544,-0.00133441,-1.69484,1884.51,1774.04)">
        <g id="s2" transform="matrix(-0.391081,-0.000331225,0.000307913,-0.420691,282.398,987.875)">
            <path d="M4.554,359.286L4.092,359.286C4.092,465.43 91.427,552.765 197.572,552.765C303.716,552.765 391.051,465.43 391.051,359.286L390.621,359.286C389.618,254.481 302.877,168.53 197.587,168.53C92.298,168.53 5.557,254.481 4.554,359.286ZM356.236,344.367L38.939,344.367C47.446,264.834 115.754,202.03 197.587,202.03C279.421,202.03 347.728,264.834 356.236,344.367Z" style="fill:white;fill-opacity:0.56;fill-rule:nonzero;"/>
        </g>
        <g transform="matrix(1,1.0842e-19,0,1,0.0308523,-42.1525)">
            <path d="M959.029,611.214L968.798,611.214L968.798,651.872L991.141,652.43L991.141,611.214L1003.03,611.214L1003.03,677.649L1018.66,677.649L1018.66,645.074L1033.56,645.074L1033.56,700.163L1052.63,700.163L1052.63,662.065L1063.32,662.065L1063.32,680.666L1078.28,680.666L1078.28,638.506L1098.43,638.506L1098.43,617.878L1132.28,617.878L1132.28,342.492L181.473,342.492L-39.836,464.061L-122.389,464.061L-174.861,481.232L-174.861,530.983L-103.426,530.983L-103.426,550.648L-85.83,550.648L-85.83,530.983L-39.836,530.983L-38.482,517.076L-10.468,517.076L-11.822,530.983L19.186,530.983L20.54,548.712L61.177,548.712L59.823,530.983L80.623,530.983L81.977,517.076L104.558,517.076L104.558,563.967L119.547,563.967L119.547,517.076L138.545,517.076L138.545,548.712L165.837,548.712L164.483,530.983L181.473,530.983L182.827,563.967L198.802,563.967L197.448,540.356L207.906,540.356L209.26,580.824L229.644,580.824L230.361,555.174L267.016,555.174L267.016,517.076L285.222,517.076L285.222,580.824L317.963,580.824L317.963,597.827L331.157,597.827L331.157,639.323L362.161,639.323L362.161,538.304L393.363,538.304L393.363,662.382L421.466,662.382L421.523,585.281L441.804,585.298L441.768,668.374L462.993,668.374L462.993,651.872L480.316,652.43L480.316,577.789L510.416,577.789L510.416,564.323L539.51,564.323L539.51,668.374L578.767,668.374L578.767,693.952L600.557,693.952L600.557,577.789L646.415,577.789L646.415,686.57L685.587,686.57L685.587,662.065L711.617,662.065L711.617,585.551L740.471,585.551L740.471,652.43L754.943,652.43L754.943,638.506L768.921,638.506L768.921,709.629L783.244,709.629L783.244,680.666L802.445,680.666L802.445,645.074L823.491,645.074L823.491,617.878L839.031,617.878L839.031,680.666L855.128,680.666L855.128,602.421L868.463,602.421L868.463,672.5L880.067,672.5L880.067,662.065L889.596,662.065L889.596,693.952L899.841,693.952L899.841,680.666L909.929,680.666L909.929,688.932L915.286,688.932L915.286,703.454L929.408,703.454L929.408,677.649L944.764,677.649L944.764,659.141L959.029,659.141L959.029,611.214Z" style="fill-opacity:0.5;"/>
        </g>
        <g transform="matrix(-0.00292169,3.99181,-3.71086,-0.0031429,2493.03,-382.067)">
            <path d="M311.728,424.84C314.706,428.086 317.281,430.555 319.452,432.245C321.624,433.936 323.673,435.195 325.599,436.024L325.599,437.535C323.382,438.61 321.233,439.981 319.15,441.649C317.068,443.317 314.583,445.764 311.694,448.988L309.108,448.988C311.213,444.487 313.418,441.028 315.724,438.61L262.155,438.61L262.155,435.218L315.724,435.218C314.023,433.046 312.836,431.434 312.164,430.381C311.493,429.329 310.496,427.482 309.175,424.84L311.728,424.84Z" style="fill-rule:nonzero;"/>
        </g>
    </g>
</svg>
