<?xml version="1.0" encoding="UTF-8" standalone="no"?>
<!DOCTYPE svg PUBLIC "-//W3C//DTD SVG 1.1//EN" "http://www.w3.org/Graphics/SVG/1.1/DTD/svg11.dtd">
<svg width="100%" height="100%" viewBox="0 0 1920 900" version="1.1" xmlns="http://www.w3.org/2000/svg" xmlns:xlink="http://www.w3.org/1999/xlink" xml:space="preserve" xmlns:serif="http://www.serif.com/" style="fill-rule:evenodd;clip-rule:evenodd;stroke-linejoin:round;stroke-miterlimit:2;">
    <g transform="matrix(-1.82316,0.00143544,-0.00133441,-1.69484,1884.51,1774.04)">
        <path d="M600.557,577.789L619.063,577.803L619.097,531.655L654.251,531.383L654.217,577.83L693.4,577.86L693.419,551.308L706.902,551.319L706.929,513.527L727.872,513.545L727.845,551.337L741.391,551.349L741.372,577.897L760.938,577.912L760.897,634.67L800.084,634.703L800.112,596.497L823.079,596.515L823.013,686.988L857.493,686.991L857.572,577.986L871.066,577.996L871.029,628.541L912.243,628.575L912.261,602.969L924.423,602.979L924.451,564.649L944.038,565.156L944.01,602.996L954.808,603.005L954.766,660.911L999.38,660.948L999.44,578.095L1078.32,578.155L1078.28,638.506L1098.43,638.506L1098.43,617.878L1132.28,617.878L1132.28,342.492L181.473,342.492L-39.836,464.061L-122.389,464.061L-174.861,481.232L-174.861,530.983L-103.426,530.983L-103.426,550.648L-85.83,550.648L-85.83,530.983L-39.836,530.983L-39.836,564.323L-11.822,564.323L-11.822,530.983L19.186,530.983L19.186,595.959L59.823,595.959L59.823,530.983L80.623,530.983L80.623,564.323L103.204,564.323L103.204,611.214L118.193,611.214L118.193,564.323L137.191,564.323L137.191,595.959L164.483,595.959L164.483,530.983L181.473,530.983L181.473,611.214L197.448,611.214L197.448,540.356L207.906,540.356L207.906,628.071L228.29,628.071L229.007,602.421L265.662,602.421L265.662,564.323L283.868,564.323L283.868,628.071L316.609,628.071L316.609,645.074L329.803,645.074L329.803,686.57L360.807,686.57L360.807,585.551L392.009,585.551L392.009,709.629L420.112,709.629L420.112,634.381L441.768,634.381L441.768,668.374L462.993,668.374L462.993,651.872L480.316,652.43L480.316,577.789L510.416,577.789L510.416,564.323L539.51,564.323L539.51,668.374L578.767,668.374L578.767,693.952L600.557,693.952L600.557,577.789Z" style="fill:white;fill-opacity:0.5;"/>
    </g>
    <g transform="matrix(1,0,0,1,-3.00963,-267.857)">
        <g transform="matrix(3.51445,0.0946446,-0.0946446,3.51445,-307.49,-444.97)">
            <circle cx="317.78" cy="283.955" r="3.556" style="fill:white;"/>
        </g>
        <g transform="matrix(3.51445,0.0946446,-0.0946446,3.51445,-387.554,-464.986)">
            <circle cx="317.78" cy="283.955" r="3.556" style="fill:white;"/>
        </g>
        <g transform="matrix(3.51445,0.0946446,-0.0946446,3.51445,-469.158,-481.923)">
            <circle cx="317.78" cy="283.955" r="3.556" style="fill:white;"/>
        </g>
        <g transform="matrix(3.51445,0.0946446,-0.0946446,3.51445,-535.365,-521.955)">
            <circle cx="317.78" cy="283.955" r="3.556" style="fill:white;"/>
        </g>
        <g transform="matrix(3.51445,0.0946446,-0.0946446,3.51445,-615.429,-549.67)">
            <circle cx="317.78" cy="283.955" r="3.556" style="fill:white;"/>
        </g>
        <g transform="matrix(3.51445,0.0946446,-0.0946446,3.51445,-693.953,-563.527)">
            <circle cx="317.78" cy="283.955" r="3.556" style="fill:white;"/>
        </g>
        <g transform="matrix(3.51445,0.0946446,-0.0946446,3.51445,-777.097,-551.209)">
            <circle cx="317.78" cy="283.955" r="3.556" style="fill:white;"/>
        </g>
        <g transform="matrix(3.51445,0.0946446,-0.0946446,3.51445,-849.463,-529.654)">
            <circle cx="317.78" cy="283.955" r="3.556" style="fill:white;"/>
        </g>
        <g transform="matrix(3.51445,0.0946446,-0.0946446,3.51445,-923.368,-497.32)">
            <circle cx="317.78" cy="283.955" r="3.556" style="fill:white;"/>
        </g>
        <g transform="matrix(3.51445,0.0946446,-0.0946446,3.51445,-1003.43,-472.685)">
            <circle cx="317.78" cy="283.955" r="3.556" style="fill:white;"/>
        </g>
        <g transform="matrix(3.51445,0.0946446,-0.0946446,3.51445,-302.938,-450.454)">
            <circle cx="344.257" cy="283.955" r="3.556" style="fill:white;"/>
        </g>
        <g transform="matrix(3.51445,0.0946446,-0.0946446,3.51445,-303.476,-471.388)">
            <circle cx="370.737" cy="280.786" r="3.556" style="fill:white;"/>
        </g>
        <g transform="matrix(3.51445,0.0946446,-0.0946446,3.51445,-303.476,-471.388)">
            <circle cx="397.218" cy="271.621" r="3.556" style="fill:white;"/>
        </g>
        <g transform="matrix(3.51445,0.0946446,-0.0946446,3.51445,-303.476,-471.388)">
            <circle cx="423.684" cy="268.673" r="3.556" style="fill:white;"/>
        </g>
        <g transform="matrix(3.51445,0.0946446,-0.0946446,3.51445,-303.476,-471.388)">
            <circle cx="450.172" cy="260.125" r="3.556" style="fill:white;"/>
        </g>
        <g transform="matrix(3.51445,0.0946446,-0.0946446,3.51445,-303.476,-471.388)">
            <circle cx="476.641" cy="251.987" r="3.556" style="fill:white;"/>
        </g>
        <g transform="matrix(3.51445,0.0946446,-0.0946446,3.51445,-303.476,-471.388)">
            <circle cx="503.13" cy="246.77" r="3.556" style="fill:white;"/>
        </g>
        <g transform="matrix(3.51445,0.0946446,-0.0946446,3.51445,-303.476,-471.388)">
            <circle cx="529.614" cy="246.77" r="3.556" style="fill:white;"/>
        </g>
        <g transform="matrix(3.51445,0.0946446,-0.0946446,3.51445,-303.476,-471.388)">
            <circle cx="556.088" cy="249.358" r="3.556" style="fill:white;"/>
        </g>
        <g transform="matrix(3.51445,0.0946446,-0.0946446,3.51445,-233.49,-437.132)">
            <circle cx="556.088" cy="249.358" r="3.556" style="fill:white;"/>
        </g>
        <g transform="matrix(3.51445,0.0946446,-0.0946446,3.51445,-172.87,-398.504)">
            <circle cx="556.088" cy="249.358" r="3.556" style="fill:white;"/>
        </g>
        <g transform="matrix(3.51445,0.0946446,-0.0946446,3.51445,-110.42,-370.617)">
            <circle cx="556.088" cy="249.358" r="3.556" style="fill:white;"/>
        </g>
        <g transform="matrix(3.51445,0.0946446,-0.0946446,3.51445,-39.3558,-376.411)">
            <circle cx="556.088" cy="249.358" r="3.556" style="fill:white;"/>
        </g>
        <g transform="matrix(0.736748,0,0,0.736748,1475.22,442.449)">
            <path d="M241.1,309.4L240.1,310.4C239.6,310.9 226.6,323.9 222,336.9L199.3,336.9C204.4,317.5 229.4,297.6 229.6,297.4L230.9,296.4L229.6,295.4C229.3,295.1 207.7,277 199.5,256.7L222.4,256.7C227.8,272.8 239.2,282.2 239.7,282.4L240.5,283.2L241.3,282.4C241.8,281.9 253.5,272.5 259.1,256.7L282,256.7C273.3,277.1 251.7,295.2 251.4,295.4L250.1,296.4L251.4,297.4C251.7,297.7 276.6,317.3 282.2,336.9L259.5,336.9C255.2,324.2 241.7,310.9 241.1,310.4L241.1,309.4ZM155.4,338.5C172.5,338.5 183.4,331.4 187.3,328.3C184.8,327 175.8,322.7 174.6,321.9C172.8,323.9 167,326 157.3,326C145.3,326 140.2,320.9 140.2,303.6L140.2,302.3L141.5,302.3C161.1,302.3 175.9,298.7 188.7,290.6C189,289.6 189.7,286.3 189.7,283.5C189.7,270.2 180.8,255 155.8,255C129.3,255 116.3,268.8 116.3,296.8C116.2,326 127.9,338.5 155.4,338.5ZM140.1,290.8C140.1,278.6 141.9,266.6 156.2,266.6C163.6,266.6 168.7,270.2 168.7,279.3C168.7,282.1 167.2,285.2 167.2,285.4L166.9,285.9L166.1,286.4C159,290.2 155.1,292.3 141.4,292.3L140.1,292.3L140.1,290.8ZM99.3,295.9C99.3,267.6 85,253.8 56,253.8L24.4,253.8L24.4,338.4L56,338.4C85.1,338.2 99.3,324.5 99.3,295.9ZM47.6,266.9L56.8,266.9C58.8,266.9 60.9,267.2 63.2,267.9C70.6,271.7 74.2,279.1 74.2,296.2C74.2,315.1 69.9,322.7 60.7,325.5L56.9,325.8L47.7,325.8L47.7,266.9L47.6,266.9ZM575,336.7L575,277.8C575,269.4 574,266.8 567.9,266.8C557.2,266.8 552.9,274.2 552.6,274.4L552.3,274.7L552.3,336.6L529.6,336.6L529.6,277.7C529.6,269.3 528.6,266.7 522.5,266.7C511.8,266.7 507.5,274.1 507.2,274.3L506.9,274.6L506.9,336.5L484.5,336.5L484.5,272.8C484.5,267.4 479.1,262.4 473.3,259.3C477.9,258 490.6,254.2 491.4,253.9C493.9,254.9 500.1,257.7 501.8,260.3L502.6,261.3L503.6,260.5C503.6,260.5 513.8,254.1 527,254.1C536.7,254.1 543.6,255.9 547.6,259.7L548.4,260.2L549.2,259.9C557.6,256.1 565.3,254 572.1,254C590.5,254 597.1,261.4 597.1,268.3L597.1,336.4C595.4,336.7 577.3,336.7 575,336.7ZM319.8,296.7C319.8,318.1 325.7,326 338.2,326C347.6,326 352.5,324.2 354.3,322.2C355.8,323 364.7,327.6 367.3,328.8C364,331.6 353.8,338.7 337.7,338.7C309.9,338.7 295.4,324.2 295.4,296.9C295.4,269.4 309.9,255.1 337.7,255.1C353.8,255.1 364,262.2 367.3,265C364.8,266.3 355.8,270.9 354.3,271.6C352.5,269.6 347.9,267.8 338.5,267.8C325.7,267.4 319.8,275 319.8,296.7ZM418.5,254.6C393.3,254.6 378,270.1 378,296.4C378,322.7 393,338.2 418.5,338.2C443.7,338.2 458.5,322.7 458.5,296.4C458.7,270.4 443.7,254.6 418.5,254.6ZM418.5,325C407.5,325 402.7,318.1 402.7,296.7C402.7,275.3 407.5,268.4 418.5,268.4C429.2,268.4 433.8,275 433.8,296.7C434,318.3 429.4,325 418.5,325Z" style="fill:white;fill-opacity:0.5;fill-rule:nonzero;"/>
        </g>
    </g>
</svg>
