<?xml version="1.0" encoding="UTF-8" standalone="no"?>
<!DOCTYPE svg PUBLIC "-//W3C//DTD SVG 1.1//EN" "http://www.w3.org/Graphics/SVG/1.1/DTD/svg11.dtd">
<svg width="100%" height="100%" viewBox="0 0 1920 900" version="1.1" xmlns="http://www.w3.org/2000/svg" xmlns:xlink="http://www.w3.org/1999/xlink" xml:space="preserve" xmlns:serif="http://www.serif.com/" style="fill-rule:evenodd;clip-rule:evenodd;stroke-linejoin:round;stroke-miterlimit:2;">
    <g transform="matrix(-1.82316,0.00143544,-0.00133441,-1.69484,1884.51,1774.04)">
        <path d="M600.557,577.789L619.063,577.803L619.097,531.655L654.251,531.383L654.217,577.83L693.4,577.86L693.419,551.308L706.902,551.319L706.929,513.527L727.872,513.545L727.845,551.337L741.391,551.349L741.372,577.897L760.938,577.912L760.897,634.67L800.084,634.703L800.112,596.497L823.079,596.515L823.048,638.299L857.528,638.302L857.572,577.986L857.604,535.428L872.078,535.44L872.047,577.98L913.261,578.014L913.273,560.413L925.435,560.423L925.463,522.093L945.05,522.6L945.036,540.989L1042.61,541.072L1078.32,578.155L1078.28,638.506L1098.43,638.506L1098.43,617.878L1132.28,617.878L1132.28,342.492L181.473,342.492L-39.836,464.061L-122.389,464.061L-174.861,481.232L-174.861,530.983L-103.426,530.983L-103.426,550.648L-85.83,550.648L-85.83,530.983L-39.836,530.983L-39.836,564.323L-11.822,564.323L-11.822,530.983L19.186,530.983L19.186,595.959L59.823,595.959L59.823,530.983L80.623,530.983L80.623,564.323L103.204,564.323L103.204,611.214L118.193,611.214L118.193,564.323L137.191,564.323L137.191,595.959L164.483,595.959L164.483,530.983L181.473,530.983L181.473,611.214L197.448,611.214L197.448,540.356L207.906,540.356L207.906,628.071L228.29,628.071L229.007,602.421L265.662,602.421L265.662,564.323L283.868,564.323L283.868,628.071L316.609,628.071L316.609,645.074L329.803,645.074L329.803,686.57L360.807,686.57L360.807,585.551L392.009,585.551L392.009,709.629L420.112,709.629L420.112,634.381L441.768,634.381L441.768,668.374L462.993,668.374L462.993,651.872L480.316,652.43L480.316,577.789L510.416,577.789L510.416,564.323L539.51,564.323L539.51,668.374L578.767,668.374L578.767,693.952L600.557,693.952L600.557,577.789Z" style="fill:white;fill-opacity:0.5;"/>
    </g>
    <g transform="matrix(1,0,0,1,-3.00963,-267.857)">
        <g transform="matrix(0.701482,-0.0220555,0.0220555,0.701482,-17.3448,359.709)">
            <path id="NZ-AUK" d="M92.417,928.086L98.419,931.097L100.036,936.876L101.519,937.461L101.902,938.988L104.725,940.115L104.28,941.956L107.689,942.426L107.702,943.211L108.044,943.953L108.798,945.266L107.469,946.621L103.261,945.323L102.96,946.379L103.116,947.135L102.188,947.249L100.321,945.837L101.421,945.409L99.484,943.026L99.923,945.166L98.525,944.881L97.781,946.25L98.448,948.063L96.892,948.762L94.633,951.701L97.575,950.003L98.905,947.991L100.39,947.592L101.187,948.79L100.886,949.761L103.084,949.404L105.079,950.517L106.863,950.331L103.663,952.543L106.53,953.156L107.273,952.857L107.604,951.216L109.301,951.43L108.906,948.805L110.45,947.278L110.834,947.977L109.819,948.833L109.515,951.658L111.667,953.242L110.895,954.212L111.265,955.026L112.406,955.026L110.849,956.024L111.389,957.294L110.66,958.079L109.277,957.537L108.833,958.707L109.843,960.448L111.185,960.177L111.924,961.732L110.711,961.875L110.442,960.776L109.087,960.177L107.573,961.218L108.141,963.273L107.156,963.273L106.484,963.972L103.747,962.345L102.977,962.588L102.96,963.901L102.032,964.329L100.307,963.444L97.507,965.171L96.81,964.243L93.951,967.668L92.253,967.582L91.98,968.681L91.081,968.438L89.624,969.48L87.913,968.552L86.643,968.852L86.188,967.782L84.175,968.666L82.809,966.127L82.207,967.739L81.18,967.439L81.548,969.637L80.334,970.45L79.735,969.851L79.148,971.163L77.679,971.049L77.92,972.148L76.177,973.133L74.937,972.562L75.435,973.518L79.559,972.904L79.547,971.891L80.46,971.977L80.915,972.576L79.841,975.416L78.013,975.986L78.359,974.003L76.289,974.759L76.902,975.087L75.915,976.557L74.016,977.527L71.362,977.128L71.293,975.929L70.193,976.899L69.194,976.543L69.987,971.435L71.774,969.851L72.886,970.322L73.33,968.995L75.6,968.238L76.03,967.382L75.889,965.955L75.245,967.011L74.89,966.455L76.793,963.173L75.637,963.073L75.155,961.247L76.326,960.705L78.586,957.223L80.313,956.809L82.551,957.965L83.594,957.494L83.31,956.538L82.539,956.581L82.185,955.026L83.071,954.141L81.902,953.67L82.218,952.172L81.305,952.086L81.21,949.39L82.124,948.876L81.509,949.761L82.006,950.973L84.604,950.617L86.821,946.935L86.768,944.652L85.642,943.711L86.342,943.168L85.945,941.556L83.141,937.29L84.127,936.619L83.289,934.051L84.534,931.853L84.136,930.74L87.964,928.486L90.502,929.856L92.417,928.086ZM335.07,474.311L337.362,473.501L343.462,468.721L347.565,463.77L352.465,460.346L353.234,461.13L351.219,463L351.375,463.713L353.96,461.929L355.201,462.414L354.547,461.259L355.332,460.688L358.029,460.403L357.662,458.177L357.075,459.247L354.964,459.147L354.776,460.288L353.407,460.36L353.565,459.404L358.324,455.052L361.25,454.053L365.601,455.023L367.428,454.524L374.717,455.68L378.482,457.078L379.579,458.048L372.477,455.737L364.986,455.366L360.726,460.531L361.41,461.216L360.633,465.111L359.305,465.725L361.172,467.252L361.31,469.991L363.786,474.129L370.612,479.294L373.783,477.468L374.185,476.07L375.666,477.853L375.969,475.356L378.51,474.843L379.886,480.179L378.686,480.664L378.87,481.42L380.999,479.922L381.797,480.279L382.209,481.891L381.166,482.633L382.105,483.875L382.016,486.2L380.93,486.928L381.8,487.584L382.272,486.871L382.398,487.955L380.913,488.84L380.526,490.024L378.97,490.181L378.368,491.922L379.738,492.065L379.864,493.477L379.834,494.177L378.605,495.432L380.456,498.029L379.866,500.897L378.781,501.539L383.254,506.248L383.209,507.589L384.519,509.259L384.061,510.015L382.534,510.086L382.86,511.085L383.402,511.77L387.182,512.027L387.75,513.996L389.86,514.966L389.846,514.923L390.79,513.14L389.992,512.683L393.95,509.515L394.134,510.272L395.948,509.016L396.493,507.175L396.508,507.2L396.539,505.634L400.953,502.21L402.578,503.594L406.72,500.64L407.138,498.429L408.965,497.744L411.581,494.562L412.337,495.247L412.508,495.247L414.289,496.759L413.088,498.443L414.844,497.416L415.142,498.928L415.855,499.071L416.398,498.372L415.759,496.616L419.042,495.903L419.114,495.218L421.27,494.305L420.015,494.391L420.302,493.363L417.202,495.075L416.192,493.563L417.793,491.965L418.835,491.194L419.234,491.879L419.749,490.638L420.462,491.294L421.422,488.968L422.19,490.167L423.19,489.768L422.564,488.426L423.848,488.597L423.65,487.442L425.035,486.885L425.351,485.301L426.464,485.758L425.202,489.611L426.728,489.996L427.987,487.699L428.8,487.955L429.93,486.657L429.303,485.544L430.731,485.373L433.318,482.69L433.843,484.146L435.484,484.203L434.982,486.1L433.996,486.9L433.401,484.331L432.559,484.403L431.873,485.102L432.729,485.187L432.299,486.115L431.413,486.671L431.768,488.284L431.225,488.754L430.027,487.97L428.599,489.097L428.811,489.896L430.296,489.496L429.695,490.452L428.081,491.351L427.369,490.909L426.553,492.307L424.042,492.207L424.616,489.967L423.286,491.794L422.274,491.266L421.573,492.25L423.669,493.149L421.341,494.662L422.354,494.919L421.922,497.102L421.536,497.658L421.563,498.486L422.319,498.899L421.964,497.972L422.749,497.601L423.548,497.53L424.751,494.647L426.263,495.418L426.834,494.676L427.718,495.318L429.36,494.804L431.514,495.347L429.073,495.86L428.786,496.959L426.917,496.588L426.358,497.943L427.985,498.172L427.725,499.713L425.614,499.171L426.069,500.498L424.87,500.769L425.14,501.439L421.871,502.096L422.297,503.622L425.767,501.981L424.694,503.523L426.293,503.194L426.704,504.849L425.488,506.847L425.799,508.588L424.271,509.23L422.703,508.146L423.3,509.487L420.816,510.186L421.485,511.698L421.901,510.115L423.425,511.884L425.365,512.226L425.766,511.47L424.524,511.841L423.584,510.329L426.839,509.672L430.139,507.318L427.627,507.732L426.4,507.532L426.515,506.933L431.183,505.563L431.239,506.362L432.494,506.804L434.95,505.392L435.992,505.606L435.28,504.507L438.247,505.121L440.946,503.465L437.093,503.993L436.423,503.679L436.696,502.495L433.483,504.179L432.582,505.006L432.442,503.508L430.227,505.363L428.53,505.278L427.13,506.205L427.576,503.893L428.462,503.18L427.406,503.094L426.867,501.154L429.822,499.97L428.696,499.713L429.082,498.857L430.309,499.199L430.512,496.973L431.068,497.401L432.853,496.517L431.479,499.228L432.345,501.882L432.761,500.226L433.859,500.797L433.906,498.329L434.834,497.772L436.316,499.128L436.773,498.643L435.294,495.76L435.624,494.919L436.837,494.776L436.955,492.379L436.155,492.821L434.743,492.108L433.728,493.606L432.215,494.105L430.56,493.72L431.646,493.064L430.677,492.165L433.574,491.936L432.278,490.21L432.664,489.596L434.033,490.353L433.95,488.54L435.078,488.255L435.519,489.068L434.961,489.839L435.5,491.979L436.243,491.508L436.841,492.122L437.971,490.552L437.897,491.865L438.867,492.15L440.204,494.676L439.626,490.452L442.134,492.279L442.194,490.624L443.28,489.611L444.304,491.622L447.104,489.739L446.331,491.48L445.132,491.708L445.328,493.777L444.771,493.963L444.502,493.007L443.573,494.034L446.423,496.074L447.682,493.791L448.724,494.005L449.296,492.949L450.865,493.377L449.451,494.077L449.377,495.875L447.291,497.615L448.117,498.557L447.958,499.855L446.718,499.056L445.875,499.556L445.816,500.626L444.589,501.083L445.147,499.984L444.362,499.913L444.266,497.358L443.35,499.399L442.395,498.857L442.493,500.184L443.519,500.854L443.218,501.867L445.4,502.153L444.542,503.637L445.398,503.523L445.553,504.393L443.682,505.72L443.798,504.479L442.758,503.622L442.967,506.59L441.313,505.905L441.243,505.049L440.571,505.962L440.94,507.061L440.141,507.204L439.53,505.748L438.542,507.789L437.829,507.261L438.202,506.02L437.359,506.776L436.918,506.333L435.99,506.419L435.189,507.603L434.291,506.918L434.217,508.845L432.721,507.546L432.803,509.53L429.506,510.357L429.062,511.37L434.872,509.915L434.854,511.955L436.327,509.601L437.969,509.415L438.925,509.03L442.437,507.946L441.792,509.829L442.678,509.159L443.161,510.186L444.119,509.273L445.485,511.199L445.972,510.471L444.575,509.415L445.247,508.83L446.03,509.644L448.043,508.859L449.584,508.788L449.529,507.96L451.557,506.633L450.327,508.146L450.754,509.259L449.611,509.872L450.081,510.714L448.597,510.657L446.81,512.355L447.936,513.568L447.492,514.424L446.179,514.823L445.538,513.767L444.993,515.722L442.895,515.865L443.122,516.778L441.624,516.864L441.268,516.15L442.454,515.451L442.069,514.78L443.153,514.966L444.841,512.469L443.244,512.069L443.399,512.911L442.042,514.024L442.631,511.813L440.831,512.854L440.37,515.408L438.109,519.475L437.224,519.618L436.063,523.213L436.244,526.124L439.348,529.791L437.692,530.405L437.619,531.56L439.316,532.088L441.286,531.232L442.641,532.003L443.662,535.47L443.184,540.207L444.378,543.261L446.159,544.631L446.73,544.188L448.755,545.116L449.783,544.588L449.624,545.986L446.422,549.439L446.263,550.894L443.373,555.403L437.141,562.366L437.73,559.67L437.543,559.682L436.984,562.238L430.72,571.284L429.916,574.124L430.553,577.391L427.968,578.918L423.35,584.597L421.008,585.881L420.107,587.08L420.161,588.706L417.003,591.689L416.512,595.127L418.636,596.625L416.808,597.524L415.769,595.769L412.829,596.354L407.842,600.664L406.251,605.6L407.419,606.243L405.003,609.282L398.871,624.778L395.84,628.701L396.121,631.241L391.832,636.492L386.106,639.189L382.859,643.883L380.705,643.584L377.977,645.51L372.038,647.493L369.651,650.047L368.267,650.104L365.964,653.458L363.142,660.007L362.227,669.895L362.689,675.745L364.519,682.352L364.176,682.751L363.153,680.04L361.779,682.166L363.648,682.28L364.089,683.079L365.858,683.336L365.956,684.406L367.668,684.749L362.928,686.49L360.431,686.304L358.917,687.431L359.398,689.943L360.011,690.513L360.699,688.444L361.053,689.914L361.953,689.657L362.641,687.545L364.011,687.374L364.58,688.544L365.853,686.846L366.166,687.374L368.665,685.933L367.831,690.099L368.401,690.485L370.577,685.805L371.831,687.075L372.359,686.718L373.443,687.446L371.995,691.17L372.364,692.368L374.541,687.374L375.424,688.63L376.224,688.245L377.109,688.159L378.021,688.758L377.833,690.242L377.959,691.441L379.503,689.757L380.973,689.629L380.287,690.342L381.94,691.626L381.524,692.753L382.608,693.267L383.195,692.083L384.463,693.381L383.818,694.894L385.002,695.45L385.57,696.991L385.495,699.288L384.607,701.015L383.679,701.514L384.032,703.598L382.89,703.812L382.66,705.11L381.478,703.926L380.432,706.665L376.549,707.793L376.522,706.765L374.884,705.167L375.23,702.542L376.588,701.158L375.461,701.072L375.077,700.116L376.405,699.759L376.236,698.39L375.109,698.261L374.625,697.262L373.368,698.218L373.862,701.671L372.947,702.827L373.299,705.438L375.122,707.422L375.163,708.763L373.167,708.021L371.839,708.663L370.342,707.835L368.544,707.978L367.803,707.208L367.249,705.909L366.106,706.38L364.81,705.053L363.828,703.512L361.874,703.127L339.909,706.309L322.589,714.142L302.608,725.728L291.366,733.747L285.364,739.326L280.659,745.79L281.628,746.775L281.264,751.041L277.972,756.977L276.065,762.855L276.621,780.834L275.152,789.21L275.041,789.167L271.718,795.259L265.758,801.195L265.3,802.422L265.854,803.649L262.511,806.132L259.19,812.981L259.129,815.207L257.067,819.545L257.392,821.885L259.218,822.042L259.63,823.312L259.512,825.281L258.828,824.739L257.757,825.68L256.311,828.662L256.166,829.932L257.476,831.359L253.202,836.068L251.671,838.75L251.496,840.976L249.752,842.96L249.34,842.146L248.412,842.631L247.867,844.401L247.609,845.128L247.477,847.069L242.847,851.235L242.816,852.876L244.416,851.878L246.013,852.548L246.684,852.334L248.051,854.16L249.621,853.661L250.531,855.587L246.091,856.986L246.074,858.869L244.818,858.94L242.715,862.194L239.316,864.134L243.598,863.207L244.672,860.867L247.298,860.41L248.441,859.925L248.315,858.47L251.256,857.071L251.645,855.059L252.954,857.471L251.852,858.955L251.778,860.724L249.781,860.267L249.024,860.938L249.722,861.623L252.763,860.852L252.63,863.193L249.205,863.678L249.35,862.308L247.91,861.352L247.737,862.493L249.346,864.591L248.018,865.561L244.894,864.962L244.066,865.476L244.077,866.902L243.549,866.931L243.595,865.476L238.557,866.118L230.063,868.586L227.649,870.156L222.258,877.632L222.151,881.585L220.618,885.58L211.218,892.586L209.63,894.997L207.374,896.039L205.116,898.436L199.789,900.919L198.898,905.057L199.938,906.184L200.033,908.909L198.819,909.594L198.632,910.821L197.36,911.949L191.883,910.65L189.67,911.649L190.468,912.491L192.411,910.964L193.565,912.02L194.579,911.506L195.676,912.562L194.061,914.089L194.288,914.931L191.531,916.5L189.476,916.657L189.488,917.998L188.203,918.583L187.93,919.654L186.149,918.027L185.592,918.555L184.438,917.756L182.026,918.141L181.466,920.039L180.24,919.711L179.709,921.266L180.222,921.537L177.938,922.393L176.383,921.965L175.212,922.893L175.809,923.891L175.124,924.462L171.088,923.078L169.56,923.991L168.746,924.291L167.659,926.017L166.588,926.346L166.072,925.745L166.046,925.932L163.037,925.333L164.852,923.478L162.614,921.908L161.753,925.133L161.379,926.674L159.295,927.359L157.084,927.073L155.542,927.644L154.83,926.831L153.659,927.416L152.234,926.103L146.883,926.431L145.546,923.563L146.09,922.279L144.48,920.952L143.868,919.982L139.546,918.983L132.824,920.396L133.183,918.969L134.437,919.568L135.38,918.983L132.956,917.713L130.444,918.184L132.367,920.296L128.74,922.065L123.889,922.136L121.208,921.109L120.308,921.765L119.866,921.451L120.796,920.153L124.248,920.51L124.805,920.11L128.285,921.394L129.142,920.852L128.53,919.554L124.865,918.384L122.753,918.341L120.854,919.468L120.029,917.941L120.543,917.356L119.361,916.343L118.431,917.627L117.975,917.042L116.619,917.556L117.499,920.396L118.341,920.624L119.921,922.507L118.207,923.578L117.113,921.023L115.131,920.267L114.749,917.998L112.652,917.713L113.053,916.771L112.3,914.874L116.211,914.174L117.78,914.174L120.737,912.377L120.767,911.535L119.155,911.292L119.331,908.067L118.562,906.997L117.963,907.34L118.23,909.609L115.575,910.365L116.358,911.135L116.912,913.062L115.156,913.504L111.245,905.342L107.043,901.119L102.82,900.762L101.105,902.389L102.044,904.186L95.084,901.975L93.185,902.974L93.467,904.829L90.274,902.888L87.846,904.686L86.279,902.817L85.138,902.645L84.914,900.134L82.674,899.735L82.72,898.236L84.933,897.123L84.139,894.27L78.611,888.89L72.309,885.709L66.802,885.494L66.199,887.592L63.971,888.905L64.58,891.687L63.422,893.542L59.641,893.014L56.357,894.412L51.55,893.414L50.251,893.999L45.389,891.587L41.893,891.787L37.258,890.189L33.776,890.474L32.076,892.03L31.265,890.546L29.267,890.517L28.669,889.804L25.943,890.189L23.524,886.236L22.469,885.908L26.898,882.47L28.382,882.412L28.099,880.686L29.029,879.116L29.715,878.489L31.428,878.132L32.171,877.119L31.749,873.523L36.289,871.882L39.792,867.744L37.107,869.271L36.048,870.898L31.809,871.668L32.464,872.339L30.723,873.038L29.764,874.722L31.3,877.475L29.288,877.889L28.4,879.587L27.476,877.804L28.735,875.906L28.607,875.107L26.834,877.518L24.604,880.044L24.549,879.074L22.881,878.16L21.366,879.73L21.536,880.472L20.308,880.729L20.125,879.102L21.097,878.431L21.672,875.763L23.29,872.267L27.187,870.869L31.625,870.798L30.671,869.642L31.585,869.357L31.243,868.986L27.988,869.97L24.707,869.242L26.999,863.578L27.999,862.864L26.829,863.007L21.879,871.04L19.639,871.368L16.424,873.58L14.953,874.393L13.643,873.266L13.821,868.7L12.399,865.761L13.147,862.379L12.636,860.61L13.736,859.882L13.709,858.712L15.05,858.741L15.694,857.699L17.835,856.957L21.873,857.014L23.358,856.729L32.422,854.36L35.361,854.531L37.762,852.619L41.601,852.163L43.286,850.864L41.502,851.15L42.39,849.295L41.862,849.166L40.603,851.621L34.441,849.866L29.287,851.692L30.594,846.941L40.943,844.03L42.687,841.975L40.416,843.702L36.334,843.973L29.624,846.755L29.376,841.247L31.502,841.105L32.56,839.792L37.258,837.78L39.553,838.765L42.009,837.794L43.449,838.75L44.234,838.194L42.295,837.338L39.654,838.18L37.928,837.709L38.001,836.71L41.385,835.668L43.37,834.213L42.601,833.485L37.204,835.782L37.059,836.838L31.692,838.137L29.706,839.749L27.137,840.134L25.911,839.421L27.034,833.414L28.489,833.813L28.889,833.271L27.978,832.287L28.108,831.174L30.371,825.666L33.226,825.181L38.129,828.463L37.075,827.007L36.68,824.253L36.077,826.722L33.299,824.211L31.501,823.939L31.233,822.47L32.693,819.673L34.779,817.704L35.567,815.721L41.469,819.088L38.512,821.057L42.496,819.345L45.816,821.813L45.244,822.926L46.258,821.999L48.055,822.641L50.175,826.636L50.641,829.347L48.254,831.673L47.48,833.97L49.154,831.216L51.698,829.005L53.307,830.76L48.883,822.413L46.63,821.4L44.622,819.031L46.138,817.176L51.019,816.32L52.26,816.791L52.161,815.835L52.348,815.064L51.193,814.736L50.377,815.906L45.782,816.648L44.884,816.163L44.56,813.609L42.865,811.269L43.286,807.316L43.885,807.102L42.776,805.019L44.333,803.906L44.992,802.294L46.731,803.293L50.004,808.643L52.488,808.073L51.761,807.502L50.148,808.016L48.242,803.878L47.089,802.508L45.777,802.251L48.651,798.127L51.599,802.051L51.623,804.363L53.476,806.018L53.548,805.347L52.208,804.677L52.055,802.251L56.377,802.693L55.309,801.709L51.899,801.609L50.233,799.668L49.323,797.157L49.339,796.158L51.782,794.375L52.123,795.545L61.222,798.156L61.066,797.5L57.572,796.372L54.15,794.703L52.566,794.946L51.813,792.976L54.042,790.751L54.728,790.166L56.044,788.411L56.659,787.298L57.887,786.684L59.262,783.873L60.96,783.459L62.404,781.961L63.231,782.047L63.542,784.344L65.221,787.112L64.717,789.738L66.143,790.237L66.656,791.036L65.481,793.947L67.168,792.049L68.821,792.877L65.589,789.095L65.989,788.325L66.745,788.582L64.116,782.204L64.047,780.334L65.419,779.122L66.405,778.494L69.162,776.411L71.502,776.667L74.224,778.551L71.464,782.175L71.705,783.502L73.771,784.872L72.077,782.675L74.766,778.665L71.776,774.827L73.791,773.029L77.199,773.828L75.433,772.073L75.722,769.533L78.451,767.478L81.173,769.519L79.495,766.151L81.108,765.723L83.695,763.269L85.364,763.198L86.066,761.343L87.879,760.672L89.145,763.112L90.258,763.283L90.47,756.006L89.701,754.779L91.229,753.98L92.876,750.042L96.093,746.561L97.578,745.79L98.533,746.247L100.005,744.577L100.946,745.176L102.904,752.054L103.097,755.964L104.224,756.492L103.138,748.344L99.596,741.752L105.061,741.966L106.464,738.927L105.592,737.939L105.41,737.885L102.886,736.473L105.842,735.274L108.587,732.078L112.545,728.768L114.115,728.325L115.176,725.3L118.176,722.946L118.294,720.292L120.423,718.408L120.326,717.096L128.545,716.682L129.545,715.783L130.501,715.997L132.188,713.971L134.8,713.172L134.356,714.756L135.909,716.111L139.219,716.14L143.845,714.556L146.658,713.001L151.003,708.206L155.044,706.366L160.803,701.457L164.22,697.319L170.619,692.953L174.945,691.212L176.561,688.872L179.517,687.602L181.657,687.503L183.726,687.859L186.542,684.749L187.153,685.933L188.452,685.89L191.811,682.266L194.009,681.881L199.903,672.135L202.632,670.166L206.942,669.724L210.313,667.369L214.146,661.705L215.931,661.034L221.118,656.126L225.897,648.321L232.974,648.406L232.877,646.851L231.492,646.88L234.109,643.355L238.821,641.286L240.505,641.515L243.16,640.544L251.759,634.723L259.791,626.847L264.098,619.355L270.301,613.163L274.807,606.143L278.732,596.426L279.193,593.501L280.664,592.744L284.101,585.054L285.704,573.311L287.797,567.503L289.068,566.39L290.393,558.842L292.509,556.716L293.04,554.561L293.473,551.551L292.747,550.523L292.668,546.5L293.325,545.943L297.676,546.357L299.962,544.645L304.812,545.529L307.183,544.217L315.986,535.741L322.041,523.727L326.5,519.318L328.866,503.152L328.446,498.728L329.182,493.263L328.442,483.518L330.142,481.734L330.274,479.922L335.02,474.229L335.07,474.311ZM166.457,922.964L166.465,922.907L166.465,922.907L166.457,922.964ZM166.009,919.603L165.956,919.782L167.652,920.995L167.443,922.75L167.45,922.75L167.681,920.809L166.009,919.603ZM23.59,880.829L25.073,881.442L24.972,882.284L22.357,884.453L21.99,882.184L23.59,880.829ZM17.405,875.863L19.045,876.819L18.231,877.29L18.186,878.531L16.646,877.618L17.405,875.863ZM31.583,852.734L31.925,853.133L27.812,855.045L22.689,855.858L22.604,855.059L24.031,855.031L24.732,854.075L31.583,852.734ZM18.627,852.691L20.067,853.633L17.483,854.631L17.453,855.345L15.371,854.788L15.672,853.361L17.884,853.518L17.714,852.762L18.627,852.691ZM26.437,841.162L28.416,843.388L28.835,849.166L28.475,851.335L26.745,853.076L25.432,853.461L24.42,852.605L21.294,853.661L21.481,852.933L20.554,852.491L21.312,851.05L18.731,850.094L19.773,849.737L20.973,849.081L20.56,848.581L19.42,847.996L19.493,846.712L13.362,852.862L13.565,850.636L16.209,847.939L17.026,845.985L17.453,846.27L17.442,844.658L18.728,843.117L19.412,843.887L22.483,841.576L23.752,842.289L25.309,841.205L25.807,842.075L26.437,841.162ZM35.167,850.907L37.193,851.207L37.862,852.177L34.364,853.404L32.524,852.948L32.398,851.935L33.412,851.007L35.167,850.907ZM42.261,805.875L42.63,807.131L41.483,810.056L44.453,817.447L42.94,817.89L36.87,813.038L38.931,809L41.376,805.99L42.261,805.875ZM379.92,27.606L382.229,29.147L379.788,29.946L379.793,35.411L377.48,36.31L377.754,34.44L375.086,34.241L374.158,34.926L375.055,35.882L372.416,35.839L373.541,36.78L372.327,37.708L374.653,37.765L376.324,36.695L375.664,38.507L377.219,38.678L377.774,39.82L377.816,40.362L377.101,41.432L377.999,41.732L378.602,39.748L376.837,37.151L378.635,36.823L381.373,46.526L383.623,49.537L385.804,50.778L389.036,55.216L388.662,56.771L387.92,56.642L386.638,55.544L386.17,53.617L385.044,52.99L386.052,56.186L387.464,56.485L390.127,59.696L394.876,61.18L394.231,63.249L392.574,64.205L392.767,68.2L393.954,66.802L394.151,68.414L396.319,68.828L396.135,68L394.979,68.1L395.353,66.416L396.696,65.361L397.05,66.688L397.923,65.489L395.193,59.268L398.561,58.797L400.861,57.499L401.423,53.789L402.335,54.859L402.245,57.27L404.315,56.642L403.886,57.441L405.497,58.383L402.311,60.552L400.385,60.238L399.855,61.565L400.663,64.761L402.344,66.887L403.398,67.601L407.978,67.886L409.265,66.459L408.511,65.161L410.254,63.734L410.355,62.65L411.808,64.447L413.806,64.347L415.172,66.317L417.757,65.047L418.612,65.503L419.007,68.286L419.862,68.885L421.017,69.57L420.429,71.211L418.616,72.081L419.455,73.622L420.896,73.579L420.943,71.125L421.941,72.01L422.57,71.125L422.286,69.869L421.359,69.613L421.731,69.028L423.858,68.699L424.816,67.629L425.399,68.685L426.826,68.714L427.209,69.869L428.507,70.069L429.236,69.185L430.561,70.426L430.161,71.125L431.671,72.195L430.914,72.68L431.624,75.149L433.148,76.676L439.085,76.105L440.422,78.759L441.976,79.13L441.789,80.214L439.834,80.214L438.69,81.727L437.124,79.957L435.429,78.06L434.014,79.158L435.184,79.258L436.009,80.885L435.823,81.384L433.552,82.64L438.917,82.911L438.201,84.095L439.527,85.051L439.438,87.206L440.707,87.862L440.676,89.132L442.373,89.96L442.886,90.302L444.913,89.646L447.023,90.716L445.428,89.047L441.917,89.318L441.092,87.848L443.032,87.905L441.252,86.136L441.453,84.909L444.303,87.363L445.36,87.049L446.514,87.819L446.746,85.736L448.588,84.595L449.004,83.368L450.701,83.981L451.29,81.242L453.017,81.013L453.547,80.2L453.83,81.684L452.745,81.855L452.059,82.754L452.843,82.997L452.514,83.567L451.128,84.409L452.938,85.808L451.411,85.979L451.395,86.992L453.786,90.659L455.97,90.159L455.698,91.187L454.413,91.258L455.882,92L456.194,93.042L455.578,94.412L454.766,93.884L454.64,92.214L453.755,92.357L453.371,91.444L452.798,92.97L453.911,93.299L454.79,96.695L455.703,96.595L455.13,98.164L456.843,97.736L457.612,98.649L458.426,98.121L458.128,97.379L458.998,97.622L458.738,99.448L460.163,100.276L460.261,101.803L461.06,101.503L461.714,103.258L461.513,103.829L460.815,103.073L460.357,103.786L461.338,106.283L463.392,106.297L464.831,107.91L464.796,112.105L463.527,111.391L462.966,114.131L464.074,117.056L466.557,117.256L465.628,118.04L466.268,119.082L466.123,120.409L465.422,122.036L467.84,126.602L465.799,127.087L464.045,126.402L464.716,125.945L464.105,124.647L462.506,124.818L462.908,123.734L462.097,122.064L461.471,121.023L458.902,121.551L456.364,120.266L454.964,121.279L454.439,119.425L453.139,120.537L453.919,123.363L453.219,123.919L454.088,124.461L455.348,122.093L455.858,124.005L458.925,124.804L460.182,124.162L461.25,125.403L462.891,125.474L461.246,127.6L460.724,133.122L462.941,138.373L464.793,139.871L467.42,139.486L468.471,142.183L468.398,143.082L469.337,144.937L469.337,144.98L470.062,146.478L474.703,153.327L480.407,155.41L480.362,156.437L478.92,157.351L479.203,158.563L478.304,158.506L478.033,158.549L478.586,160.618L479.485,160.376L481.381,161.917L483.008,161.631L481.808,162.673L480.424,162.387L478.653,163.315L476.027,163.814L475.286,163.129L475.41,165.612L476.393,166.582L478.106,166.511L477.934,167.039L476.161,169.094L475.089,170.406L475.379,167.581L474.381,167.039L473.694,168.494L472.935,169.593L474.703,170.535L474.912,173.959L473.657,173.588L474.239,175.129L473.383,175.172L473.196,176.071L475.431,179.31L477.243,179.567L477.702,178.197L481.342,177.241L481.067,179.11L477.685,179.438L476.913,180.651L475.143,180.937L477.135,184.39L476.362,185.717L477.795,190.725L479.874,193.636L478.019,193.45L478.762,192.851L477.181,191.495L475.823,192.78L473.454,193.265L471.49,189.683L472.249,188.185L470.491,189.869L470.504,190.725L470.659,192.081L471.286,192.723L471.153,195.319L473.119,197.317L473.779,195.148L475.048,195.277L475.978,193.993L478.346,194.392L478.672,195.862L479.556,196.033L480.186,194.777L483.339,194.82L484.093,196.547L482.462,199.172L485.048,196.861L485.576,196.746L488.24,199.415L489.896,199.143L489.471,197.26L492.468,196.761L494.248,198.887L494.832,199.472L496.17,201.712L498.269,200.442L499.251,202.04L500.994,200.613L504.202,202.511L506.137,205.679L506.237,205.807L507.316,209.36L507.121,215.124L509.083,219.462L512.848,220.404L519.446,217.122L520.344,217.479L519.066,213.341L519.529,209.902L518.154,203.866L514.224,198.773L512.974,195.462L514.573,194.863L514.204,193.764L513.948,193.094L514.934,192.209L518.002,192.095L518.489,190.925L517.109,188.499L516.697,187.443L514.345,185.988L515.307,182.306L514.755,179.809L514.685,178.739L513.005,176.656L509.64,174.815L508.631,172.618L508.664,169.707L509.477,169.936L509.635,169.079L510.82,168.594L512.004,169.222L513.331,168.723L513.84,171.676L514.954,170.991L515.736,172.661L516.681,171.191L517.565,171.448L520.058,173.688L519.257,174.73L519.682,176.742L518.897,177.312L520.208,178.111L521.279,177.598L522.589,179.153L522.186,181.108L522.812,182.235L521.129,182.178L521.354,183.833L522.825,183.148L524.037,183.534L524.12,185.26L525.232,185.931L524.215,188.485L527.227,187.657L526.144,186.516L529.597,186.587L533.839,184.119L534.721,185.959L536.048,185.916L536.274,187.486L534.333,187.586L532.376,188.77L532.002,190.982L529.331,192.138L529.699,194.135L528.043,194.52L527.883,196.39L528.895,197.331L530.613,193.821L531.483,194.135L533.026,192.965L536.233,195.177L535.773,197.017L538.207,200.699L537.162,202.896L538.841,205.479L537.971,205.136L536.54,208.061L536.81,208.96L538.369,206.135L539.58,207.576L539.933,209.931L539.799,213.355L539.167,215.638L539.946,219.091L539.361,219.633L538.209,217.108L538.035,218.849L539.459,220.618L540.337,224.813L542.798,229.507L542.523,231.562L542.58,231.576L542.563,233.303L545.438,237.911L544.667,238.083L544.184,236.827L542.784,237.598L542.024,240.009L543.109,240.066L543.124,239.21L544.691,241.279L541.464,242.663L543.316,244.075L542.003,244.475L541.658,245.773L542.73,245.103L543.341,246.687L544.356,245.474L544.753,246.744L543.653,247.286L545.436,248.071L544.835,248.955L545.333,250.054L546.761,248.984L547.901,249.983L548.887,249.155L547.927,251.381L551.009,251.738L551.192,253.364L553.506,251.538L554.49,252.194L554.344,254.021L555.246,252.137L555.643,253.521L554.37,255.433L554.783,256.289L556.198,254.863L558.737,255.219L559.038,254.163L557.826,253.507L555.888,252.037L555.949,250.011L555.136,249.469L555.608,248.998L560.181,253.136L569.918,258.672L571.16,258.33L571.975,256.946L572.772,258.444L582.778,265.207L587.583,267.176L597.867,269.545L602.488,270.958L603.426,272.756L609.417,274.382L605.294,273.968L605.349,275.167L607.531,275.524L608.129,276.622L609.17,276.822L610.441,275.966L610.244,274.568L623.271,274.368L628.555,271.885L628.5,270.829L631.899,268.889L632.315,267.219L633.987,265.821L634.204,263.966L635.562,262.14L637.491,260.484L639.549,258.415L638.681,257.017L640.838,255.847L641.97,252.751L645.095,252.523L646.881,251.253L648.807,251.467L650.678,249.926L651.752,247.543L652.378,248.613L654.448,248.427L656.635,245.631L656.183,242.848L657.551,243.976L659.179,243.177L661.562,243.334L661.585,243.394L666.255,244.018L666.671,242.52L674.859,244.175L673.472,245.731L673.841,246.915L674.811,247.329L676.136,248.67L677.847,249.512L683.824,249.997L687.031,252.366L687.685,253.707L681.906,262.71L682.332,263.681L679.775,265.878L678.67,269.645L678.865,272.599L675.749,276.094L675.717,277.892L677.771,278.82L677.212,280.104L677.823,281.845L677.007,283.043L674.952,283.771L674.649,285.298L676.8,287.809L675.799,288.865L675.725,290.805L674.254,291.876L675.62,293.631L675.661,295.157L675.302,296.598L675.339,300.194L675.921,302.021L676.302,304.674L674.359,305.887L672.728,308.641L673.321,312.679L668.463,316.589L668.104,318.058L665.861,319.871L665.202,321.412L664.061,321.297L661.475,323.252L660.801,325.407L657.695,322.724L655.396,323.538L653.609,325.592L653.277,328.289L655.43,328.789L652.944,331.143L652.083,333.882L652.536,336.422L651.534,338.163L652.017,339.461L651.345,344.112L651.482,344.156L650.706,347.381L651.556,351.262L652.367,352.218L654.15,352.874L654.878,352.403L657.259,353.916L652.914,358.168L651.88,362.562L649.45,365.331L648.261,359.409L647.065,357.583L647.979,357.112L649.97,352.175L648.261,350.434L647.232,351.747L642.982,350.206L638.559,349.806L624.361,350.734L612.396,355.1L606.241,358.282L603.641,360.508L602.392,365.017L598.146,370.21L596.561,371.009L594.871,374.577L594.28,378.458L595.133,380.484L597.146,379.984L597.079,385.635L599.582,390.9L603.032,392.698L605.674,391.556L606.728,392.27L602.281,398.619L601.017,403.513L601.683,406.553L597.591,413.316L595.112,419.851L594.638,421.991L595.463,423.561L594.19,425.259L594.243,427.442L592.772,428.327L589.524,434.234L589.082,433.692L586.812,434.505L583.426,437.245L583.134,441.425L580.183,448.874L580.779,450.714L580.19,453.44L576.936,453.839L572.364,457.064L571.776,459.447L568.704,461.787L566.485,466.41L562.826,470.02L560.394,474.657L560.407,474.7L559.917,477.825L557.856,481.891L558.181,483.646L553.494,487.784L552.504,491.109L551.447,491.908L551.114,494.933L549.455,497.644L549.38,499.756L545.335,503.851L543.472,508.759L538.831,511.071L537.827,514.067L534.954,517.349L527.428,521.258L522.397,526.695L518.056,528.393L517.512,529.734L513.84,533.016L510.244,532.987L507.743,535.727L505.973,536.084L504.019,535.242L502.863,535.598L501.929,530.604L500.618,529.563L502.154,524.198L501.885,522.643L497.88,520.131L497.898,517.905L495.813,518.975L492.175,518.291L489.219,519.775L485.275,523.185L484.351,521.629L482.454,521.016L482.927,519.332L481.376,517.22L484.969,509.786L483.588,507.803L481.805,507.375L477.991,510.457L477.603,511.927L478.973,511.855L478.798,514.01L480.129,511.756L480.77,512.512L480.282,513.981L480.908,515.294L479.865,516.293L478.768,514.952L476.925,516.607L475.641,516.336L474.041,517.591L472.844,516.321L470.819,516.036L468.286,511.855L470.032,508.274L473.887,506.947L475.362,503.451L476.547,503.037L478.994,498.971L480.664,498.685L481.493,497.316L482.305,498.157L481.005,499.47L481.132,500.44L482.104,499.328L482.521,497.13L480.94,495.504L481.384,494.419L486.569,490.809L488.216,487.556L489.052,482.205L493.296,478.039L497.277,469.164L498.795,465.996L501.927,452.526L500.723,429.996L498.049,424.26L491.485,415.727L484.247,409.521L478.757,407.637L477.765,407.866L477.786,407.88L474.461,408.336L468.501,405.326L465.463,404.669L462.942,401.944L460.261,400.86L457.597,398.534L453.169,392.512L446.44,388.588L438.652,387.418L436.642,386.12L433.66,385.735L429.412,383.223L426.921,379.371L422.761,375.476L420.536,366.073L422.773,359.766L429.516,354.572L431.471,354.315L434.571,352.175L435.973,349.992L439.341,349.635L445.54,345.155L451.748,344.798L454.672,345.526L458.827,343.514L462.145,338.648L465.575,335.723L468.545,325.136L468.745,325.207L469.257,326.42L469.269,326.419L468.83,325.378L469.624,311.081L470.457,307.642L469.852,302.677L471.008,302.563L471.267,301.093L474.327,297.055L474.253,289.692L472.266,283.457L472.68,282.986L473.079,283.771L475.432,284.185L477.705,281.588L476.946,283.257L477.145,283.771L477.888,283.186L477.885,284.798L478.884,284.941L479.385,283.828L480.01,285.797L481.709,284.955L482.081,284.556L480.14,284.499L480.671,283.072L485.54,280.76L484.143,280.004L483.988,278.834L482.261,279.077L481.732,279.804L481.32,278.392L479.747,281.017L478.105,281.231L478.983,276.836L480.525,275.895L480.396,276.736L481.822,277.107L481.709,276.137L484.084,272.627L482.958,271.8L480.574,272.27L480.114,274.197L480.926,274.896L478.827,275.923L476.718,265.849L477.834,263.495L480.518,262.924L481.59,261.626L483.489,260.984L485.499,262.04L486.227,261.897L485.8,261.127L486.671,261.112L487.383,261.94L488.526,260.556L487.557,259.971L485.416,260.442L486.231,259.343L488.371,259.486L487.489,257.83L485.091,258.515L484.788,260.77L482.778,259.614L483.09,260.627L481.319,261.369L478.87,249.897L477.504,247.529L477.465,244.832L473.741,236.028L473.805,231.59L474.446,232.703L475.93,232.404L476.032,231.148L475.103,231.961L472.852,229.864L464.65,210.887L464.624,209.089L466.024,208.475L468.42,208.918L469.563,208.004L471.331,208.575L471.657,210.302L470.784,211.457L471.881,212.913L471.492,215.224L473.046,215.766L474.092,221.702L475.633,221.988L473.816,216.451L475.099,216.951L476.283,217.279L478.738,216.894L473.902,216.066L473.033,215.053L475.845,214.225L477.833,211.671L478.846,211.857L478.644,213.17L482.06,209.417L483.485,210.273L484.528,209.745L484.826,210.83L486.383,209.56L485.043,208.575L484.057,209.602L483.23,209.36L482.417,209.074L480.082,206.235L477.27,206.849L477.728,206.149L475.96,205.008L477.803,203.353L476.779,201.412L478.635,201.027L480.217,201.983L480.847,200.941L478.693,200.57L477.68,200.299L475.324,201.312L474.027,200.442L472.614,200.97L469.926,204.095L469.156,203.624L468.268,205.621L468.723,206.963L466.598,206.292L466.242,205.479L465.698,207.048L463.155,208.903L461.728,208.989L460.683,201.997L458.565,197.16L457.902,192.337L450.788,179.952L443.784,169.878L444.173,167.41L445.973,166.468L447.886,166.012L451.584,172.861L455.761,175.415L455.072,177.955L455.685,178.283L457.167,179.653L458.995,178.597L459.239,177.669L457.485,176.785L458.115,175.372L459.443,174.758L457.34,169.365L458.588,165.384L456.593,163.529L456.121,164.499L454.636,164.899L452.87,163.015L452.255,163.714L450.329,163.557L448.719,162.502L449.639,158.035L450.496,157.508L453.776,159.02L456.631,157.864L456.99,156.395L457.005,156.366L456.021,156.052L455.65,155.538L453.805,158.335L452.322,158.15L451.582,156.637L449.913,156.223L449.887,154.54L451.944,153.27L452.855,154.839L454.78,155.382L452.715,152.813L455.787,150.63L456.436,145.921L455.059,150.473L452.189,152.057L452.291,150.573L451.22,151.087L449.482,149.175L451.038,148.761L449.298,148.404L448.869,149.175L447.814,148.361L447.76,146.621L448.733,144.923L447.59,145.736L447.02,145.294L445.65,145.422L445.603,148.019L446.446,147.434L447.87,149.032L446.344,148.647L446.072,149.389L447.482,150.587L449.324,149.817L451.089,152.87L450.048,152.599L448.619,153.569L448.675,154.34L447.39,154.682L445.767,152.528L444.968,152.799L443.286,151.258L441.479,148.261L438.111,148.447L433.979,144.894L436.769,149.26L438.736,150.459L440.172,153.455L443.465,155.581L444.8,159.619L444.868,161.56L442.753,163.358L437.288,163.743L435.424,160.233L434.747,155.353L429.54,146.164L399.441,105.727L399.614,104.728L400.741,104.756L400.958,102.816L402.088,101.489L401.576,100.618L402.418,100.419L402.766,97.037L405.307,95.938L406.818,96.994L407.335,95.111L408.132,96.181L410.191,93.812L410.249,92.728L411.733,92.899L412.048,92.014L409.581,91.287L408.591,94.768L407.151,93.983L406.007,95.753L402.468,95.553L401.482,96.509L401.951,97.807L400.838,97.936L400.101,103.601L399.116,104.1L391.084,94.269L387.84,88.932L388.34,88.462L382.4,81.812L382.932,79.786L386.726,80.642L388.642,77.931L389.007,72.909L387.389,67.743L382.892,60.067L371.019,43.501L364.466,36.895L362.954,36.595L362.088,34.241L360.22,33.299L361.567,29.532L368.883,31.786L371.097,30.502L371.413,29.118L377.633,29.889L379.92,27.606ZM386.456,511.399L389.423,511.77L384.875,509.244L384.317,510.157L386.456,511.399ZM455.368,497.201L456.023,497.615L455.935,499.442L454.526,505.706L453.229,504.864L452.2,506.333L451.359,505.549L449.86,506.105L448.244,508.16L447.046,508.16L446.848,507.075L445.818,508.146L443.164,508.616L444.951,506.134L447.005,506.605L448.291,505.663L448.877,505.178L448.05,504.921L448.508,504.093L450.205,504.122L450.321,502.995L451.992,502.509L451.505,503.737L453.117,503.679L452.676,503.066L454.404,502.153L454.935,499.955L453.292,501.454L452.421,501.525L450.082,501.154L451.054,500.041L452.666,500.255L454.037,499.342L455.368,497.201ZM438.705,486.372L439.044,488.526L437.514,490.424L436.917,489.211L438.332,487.613L436.977,487.185L438.705,486.372ZM431.814,468.193L432.44,469.335L431.991,473.444L431.02,474.2L431.203,475.727L428.969,480.464L427.141,481.335L425.01,484.845L421.725,486.386L422.959,482.69L421.417,483.318L422.052,478.581L422.691,480.307L424.887,481.106L425.559,480.678L423.677,479.694L423.225,476.926L425.027,473.915L424.516,472.788L426.343,471.989L427.059,470.733L427.771,471.475L426.526,473.772L427.253,474.3L426.821,476.54L428.308,474.429L430.106,474.871L430.407,473.701L427.753,473.744L430.61,471.561L430.697,470.719L431.425,470.804L431.814,468.193ZM576.818,447.375C576.818,447.375 576.818,447.375 576.818,447.375ZM545.195,238.397L546.478,239.096L550.563,245.16L554.793,249.697L554.279,250.325L550.56,246.901L550.072,248.613L547.691,247.3L547.567,245.131L549.863,245.816L544.992,240.194L545.195,238.397ZM500.748,194.121L502.232,194.007L501.246,195.177L501.828,197.117L501.098,198.644L498.733,195.876L500.046,195.762L499.892,194.05L500.748,194.121ZM499.759,188.071L501.029,188.185L501.627,189.127L501.04,190.14L500.327,189.74L498.899,190.696L499.552,192.78L498.307,194.92L497.337,194.92L496.552,194.877L495.711,194.435L494.27,194.135L493.586,193.622L494.087,192.894L492.089,192.837L492.618,191.995L491.108,190.896L489.593,192.38L489.526,189.555L491.139,189.27L491.265,190.468L493.665,189.17L494.076,190.568L495.831,190.611L496.162,189.07L498.502,189.155L499.759,188.071ZM485.607,186.673L486.69,187.5L486.328,190.497L485.414,191.424L484.816,190.568L484.129,191.752L481.318,191.952L480.62,190.782L481.25,189.441L484.133,189.341L485.562,187.857L485.607,186.673ZM481.435,163.386L483.544,165.041L483.283,167.781L482.7,166.825L481.001,167.467L481.316,166.896L480.004,166.097L481.435,163.386ZM512.536,140.171L513.448,140.799L512.945,142.911L513.859,142.383L514.042,143.795L515.184,143.91L514.013,144.594L514.224,146.164L514.709,146.264L518.501,148.376L517.286,149.717L517.482,151.943L516.511,152.414L517.649,154.682L518.705,154.668L520.6,156.637L521.011,158.178L519.466,160.561L516.657,159.32L516.972,158.421L517.8,158.635L517.459,157.265L515.903,158.05L514.391,157.764L514.739,154.468L512.669,155.011L512.285,153.898L511.5,153.997L508.821,151.786L508.106,152.756L507.538,151.158L507.498,149.332L508.511,149.517L509.109,150.744L510.293,150.758L509.653,149.332L509.912,148.176L509.214,147.434L510.099,146.877L507.561,146.078L507.833,145.122L508.574,145.793L511.201,144.808L509.249,143.153L509.352,141.37L512.536,140.171ZM495.558,148.133L496.812,149.046L495.879,152.456L493.112,151.643L493.187,149.246L495.558,148.133Z" style="fill-opacity:0.68;fill-rule:nonzero;"/>
        </g>
        <g transform="matrix(3.09741,0.0834136,-0.0834136,3.09741,-1352.24,-283.722)">
            <circle cx="556.088" cy="249.358" r="3.556" style="fill:rgb(255,44,44);"/>
        </g>
        <g transform="matrix(3.09741,0.0834136,-0.0834136,3.09741,-1381.29,-334.061)">
            <circle cx="556.088" cy="249.358" r="3.556" style="fill:rgb(255,44,44);"/>
        </g>
        <g transform="matrix(3.09741,0.0834136,-0.0834136,3.09741,-1461.96,13.1513)">
            <circle cx="556.088" cy="249.358" r="3.556" style="fill:rgb(255,44,44);"/>
        </g>
        <g transform="matrix(3.09741,0.0834136,-0.0834136,3.09741,-1536.82,127.383)">
            <circle cx="556.088" cy="249.358" r="3.556" style="fill:rgb(255,44,44);"/>
        </g>
        <g transform="matrix(1.14083,0,0,1.14083,578.97,432.801)">
            <path d="M303.9,360.6C307.1,356 316.5,347 318.2,347C318.8,347 323.9,342.4 329.6,336.9L340,326.8L348.3,327.2C353.7,327.5 358.1,328.4 361.3,329.8C366.5,332.1 375.3,339.9 379.5,346C386.2,355.7 387,345.4 380.5,332.4C377.7,326.6 374.9,322.9 368.9,317.1L361.1,309.5L360,300.3C359.5,295.3 358.9,286.2 358.9,280.1C358.8,269.7 358.9,268.7 361.4,265C363.3,262 365.8,260.2 371.7,257.4C382.4,252.4 390.1,246.7 399.5,236.9C422.2,213.2 434,182.1 434,146C433.9,88.5 410.2,45.6 366.5,23.7C329.1,4.9 274.6,-0.4 232.6,10.6C196.4,20.1 162.5,40.8 133.8,70.9L122.4,82.9L118.5,82C112.4,80.6 101.9,80.8 96.2,82.5C84.4,86 72.6,98.8 67.9,113.2C63.6,126.5 64.9,145.8 70.7,156C72.1,158.4 71.8,159.4 66.9,171C59.8,188 50,218 45.1,238C37.2,270.2 33.8,298.6 37.4,303.5C38.7,305.3 38.8,305.3 39.9,303.3C40.5,302.1 43,292.9 45.4,282.8C51.2,258.9 53.7,251.6 62.5,233.5C79.1,199.1 100.3,174.5 116.3,171C121.1,169.9 122.5,170 133.3,172.9C155.3,178.8 165.5,178.8 184.5,172.8C207.2,165.6 224.7,170.2 235.2,186.1C238.2,190.7 238.9,192.7 239.5,199.5C241.5,221.7 249.1,236.1 264,245.6C269.9,249.4 270,249.6 270,254.1C270,261.7 268,284.2 267,288.1C266.4,290.1 265.1,292.9 263.9,294.4L261.9,297L245,297C235.7,297 225.8,297.5 223,298.1C218.2,299.1 211.3,303.6 212.5,304.9C212.9,305.2 217.9,305.3 223.8,305.2C234.3,304.9 241.9,306.3 242.7,308.6C243.1,309.8 234,314.3 224.5,317.7C213.8,321.5 202.8,327.6 198.5,332C196.4,334.2 194.9,336.2 195.2,336.6C195.6,336.9 199.4,335.8 203.7,334.2C208.7,332.2 215,330.8 221.3,330.1C230.1,329.1 245,324.6 252.3,320.8C255,319.4 255.2,320.2 253.6,324.6C251.7,330.1 250.6,340.5 251.8,342.5C252.5,343.9 253.2,343.3 255.7,338.9C260.4,330.6 275,314.8 281.7,310.8C287.4,307.4 287.5,307.3 287.3,302.9C287.3,300.5 286.9,291.1 286.5,282C285.7,265.5 286.7,254.1 289.1,248.6C289.9,246.9 291.6,245.8 294.9,244.9C297.4,244.2 303.1,242.2 307.5,240.3C311.9,238.5 315.6,237.4 315.8,237.9C317.2,242.2 327.5,255.2 332.9,259.6C336.4,262.4 339.7,265.5 340.4,266.6C341.8,269.1 341.6,295.1 340.1,300.5C338.4,306.9 336.1,308.6 327.8,310C309.6,313.1 294.9,319.1 287.5,326.4C282.9,331.1 279.2,337 281,337C281.6,337 285.3,335.4 289.2,333.4C295.3,330.3 302,328.2 317.3,324.6C319.7,324 319.2,325 312.1,333.7C302.4,345.8 299.9,350.6 299.2,358.7C298.6,366.3 299.7,366.7 303.9,360.6Z" style="fill-opacity:0.42;fill-rule:nonzero;"/>
        </g>
    </g>
</svg>
