<?xml version="1.0" encoding="UTF-8" standalone="no"?>
<!DOCTYPE svg PUBLIC "-//W3C//DTD SVG 1.1//EN" "http://www.w3.org/Graphics/SVG/1.1/DTD/svg11.dtd">
<svg width="100%" height="100%" viewBox="0 0 1920 900" version="1.1" xmlns="http://www.w3.org/2000/svg" xmlns:xlink="http://www.w3.org/1999/xlink" xml:space="preserve" xmlns:serif="http://www.serif.com/" style="fill-rule:evenodd;clip-rule:evenodd;stroke-linejoin:round;stroke-miterlimit:2;">
    <g transform="matrix(-1.82316,0.00143544,-0.00133441,-1.69484,1884.51,1774.04)">
        <path d="M600.557,577.789L619.063,577.803L619.097,531.655L654.251,531.383L654.217,577.83L693.4,577.86L693.419,551.308L706.902,551.319L706.929,513.527L727.872,513.545L727.845,551.337L741.391,551.349L741.372,577.897L760.938,577.912L760.897,634.67L800.084,634.703L800.112,596.497L823.079,596.515L823.048,638.299L857.528,638.302L857.572,577.986L871.066,577.996L871.029,628.541L912.243,628.575L912.261,602.969L924.423,602.979L924.451,564.649L944.038,565.156L944.01,602.996L954.808,603.005L954.789,628.704L999.403,628.741L999.44,578.095L1078.32,578.155L1078.28,638.506L1098.43,638.506L1098.43,617.878L1132.28,617.878L1132.28,342.492L181.473,342.492L-39.836,464.061L-122.389,464.061L-174.861,481.232L-174.861,530.983L-103.426,530.983L-103.426,550.648L-85.83,550.648L-85.83,530.983L-39.836,530.983L-39.836,564.323L-11.822,564.323L-11.822,530.983L19.186,530.983L19.186,595.959L59.823,595.959L59.823,530.983L80.623,530.983L80.623,564.323L103.204,564.323L103.204,611.214L118.193,611.214L118.193,564.323L137.191,564.323L137.191,595.959L164.483,595.959L164.483,530.983L181.473,530.983L181.473,611.214L197.448,611.214L197.448,540.356L207.906,540.356L207.906,628.071L228.29,628.071L229.007,602.421L265.662,602.421L265.662,564.323L283.868,564.323L283.868,628.071L316.609,628.071L316.609,645.074L329.803,645.074L329.803,686.57L360.807,686.57L360.807,585.551L392.009,585.551L392.009,709.629L420.112,709.629L420.112,634.381L441.768,634.381L441.768,668.374L462.993,668.374L462.993,651.872L480.316,652.43L480.316,577.789L510.416,577.789L510.416,564.323L539.51,564.323L539.51,668.374L578.767,668.374L578.767,693.952L600.557,693.952L600.557,577.789Z" style="fill:white;fill-opacity:0.5;"/>
    </g>
    <g transform="matrix(1,0,0,1,-3.00963,-267.857)">
        <g transform="matrix(0.687772,0.0153503,-0.0201995,0.629601,-14.4042,417.901)">
            <path d="M39,489.4C39,485 64.2,456.7 99.9,421.3L134.3,387L133.7,381.8C133.4,378.9 131.7,367.3 129.9,356C127.3,338.7 126.7,331.7 126.3,311.5C125.7,284.2 127.2,267.3 131.5,250.5C134.7,238.2 142.3,222 147.8,216C152.6,210.6 151.7,207.8 156.5,241.1C164.4,295.2 165,323.7 159,351.4C157.9,356.3 157.1,360.4 157.3,360.6C157.4,360.7 160,359.9 163,358.7C167.2,357.2 170.4,354.8 176.3,349C184.9,340.3 184.7,341.2 182.4,327C180.3,313.4 179.4,268.1 181,253.8C182.5,239.8 186,226 190.4,216.4C193.9,208.9 201.3,199.9 206.1,197.5L208.7,196.1L209.3,208.3C209.7,215 210.7,235 211.7,252.8C213.6,289.7 213,301.5 208.5,315.8C207,320.4 206,324.4 206.3,324.6C207.2,325.5 212.5,322.8 218.7,318.4L225,313.9L225,293.2C225,235.5 231.9,205.2 248.9,188.1C253.8,183.1 255.5,181.9 255.8,183.2C256,184.2 255.7,202.4 255.1,223.7C254,264.9 252.8,276.8 248.6,289.2C247.3,293.2 246.4,296.8 246.7,297.2C248,299.4 255.5,296.6 265.8,290.2L270.1,287.5L269.3,275.5C266.7,236.2 270.1,210.9 280.6,190.9C285,182.7 293.8,172.4 295.3,173.9C296.9,175.5 295.5,240.7 293.6,252.3C292.2,261.3 289.8,271.8 288.4,275.5C287.6,277.6 289.5,276.9 300.6,271.2L309.7,266.6L310.3,247.5C311.6,206.7 318.8,181 332.6,168C335.6,165.1 338.3,163 338.6,163.2C339.1,163.8 336.3,210.3 334.9,223.5C333.6,235.8 331.7,245.1 329,252.1C327.9,255.1 327,257.7 327,257.9C327,258.7 332.9,256.6 340.5,253L348.7,249L349.3,231.3C350.7,191.6 356.5,170.3 369.2,158.4C371.9,155.9 374.3,154 374.6,154.3C375.4,155.1 368.8,218 366.5,231.2C364.3,243.9 364.3,244 368.8,242.8C370.8,242.3 374.4,240.6 376.7,239.2C381.5,236.2 381.2,237.2 383,215.5C385.4,187 387.8,175.2 394,162.5C397.8,154.8 405.1,145 407.1,145C408.2,145 408,148 405.4,179C403.9,196 401.5,212.9 398.6,225.1L397.3,231L400.4,231C404,231 410.9,228 412.9,225.7C413.7,224.6 415.4,215.3 417.1,201.7C420.6,175 423,163.5 427.1,155.5C430,149.7 436.4,142 438.4,142C439.8,142 438.4,177.9 436.5,189C435.7,194.2 433.8,202.7 432.5,207.8C431.1,213 430,217.4 430,217.6C430,218.7 436.4,217.8 440.4,216C445.7,213.8 445.2,215.5 448.5,190.5C451.5,168.7 453.9,157.6 457.3,149.8C459.8,144.1 464.9,137.7 468.3,135.8C470.3,134.8 470.3,135 469.7,150.1C469.1,165.7 467.8,175.5 463.5,194.2C462.3,199.9 461.3,204.6 461.5,204.8C462.4,205.8 470.5,201.2 473,198.4C478.5,192.1 479.9,186.4 483.5,156.8C485.3,141.6 487.9,134.2 493.4,128.2L497.4,123.8L498.2,126.7C499.2,130.3 497.5,151.2 494.6,171.3C492.5,186.1 492.4,187 494.1,187C498.1,187 504.6,179 506.3,171.9C506.7,170.5 507.7,161.8 508.5,152.5C510.3,133.7 512.4,126.5 517.1,122.5C522.8,117.8 523.4,118.7 522.7,130.2C522.3,135.9 520.9,147.5 519.6,156C518.2,164.5 517.3,171.6 517.5,171.8C517.7,172 519.1,171.5 520.7,170.7C525.3,168.3 527.8,162.5 530,148.9C535.3,116.1 535.4,115.8 540.8,110.6L543.8,107.8L544.5,114.4C545.5,123.4 543.8,137.6 539.5,155.9C538.9,158 539.1,158.2 541.7,157.5C548.3,155.9 550.1,151.3 553,128.5C555.4,110.1 556.9,105.1 561.3,101.4L564.5,98.7L564.8,102.6C565.2,107.4 563.5,122.3 561.4,133.1C560.5,137.5 560,141.3 560.3,141.7C561.5,142.9 566.9,137.8 568.9,133.5C570.2,130.7 572,122.6 573.5,113C575.3,101.5 576.7,95.6 578.5,92C579.9,89.2 581.5,87 582,87C583.4,87 583.3,89.4 581,107.5C580,116.2 579.3,123.7 579.6,124.2C580.5,125.6 583.9,123.1 585.5,119.9C586.4,118.3 588.2,110.5 589.5,102.5C590.8,94.6 592.5,86.9 593.3,85.3C595.1,81.9 598.8,78.4 599.7,79.3C600,79.7 599.7,83.9 599,88.7C596.6,104.8 596.3,108.5 597,109.9C597.5,110.9 598.2,110.5 599.8,108.5C602.5,105 604.4,99 607.6,83C610.5,68.5 610.9,67 612,67C613.7,67 613.7,72.4 612,81.8C611,87.1 610.4,91.7 610.6,91.9C610.8,92.1 612.1,91.8 613.4,91.2C616.4,89.9 618.3,84.1 620.6,70C621.4,64.8 622.5,60.1 623,59.6C624.1,58.5 624.9,63.3 625.3,72L625.5,78.5L627.2,75C628.2,73.1 630,67.9 631.4,63.5C633.7,55.8 633.8,55.7 633.9,59.8C634.1,67.6 636.3,65.1 641.5,51C643.4,45.9 645.3,42.5 646.1,42.5C648.8,42.5 647.1,48.1 641.4,58.3C638.3,63.9 633.3,72 630.3,76.2C617.6,93.9 590,122.8 565.4,144.1C513.4,189.3 478.6,208.9 394.5,240.3C312.9,270.8 270.2,292.7 221.5,329.2C185.2,356.4 156.4,385 117.4,432.2C103.2,449.4 86.2,469.5 79.7,476.8L67.9,490L53.5,490C45.5,490 39,489.7 39,489.4Z" style="fill:white;fill-opacity:0.55;fill-rule:nonzero;"/>
        </g>
        <g transform="matrix(0.687772,0.0153503,-0.0201995,0.629601,-14.4042,417.901)">
            <path d="M257.9,440C239.2,436.7 216.6,428.2 197.7,417.4C181.6,408.2 160,394.7 160,393.8C160,393.3 164.2,388.6 169.3,383.4L178.5,373.9L188,375.9C218.8,382.6 240.1,393.2 303.4,433.8C311.5,438.9 311.3,439.3 299.1,440.9C287,442.5 270.1,442.1 257.9,440Z" style="fill:white;fill-opacity:0.55;fill-rule:nonzero;"/>
        </g>
        <g transform="matrix(0.687772,0.0153503,-0.0201995,0.629601,-14.4042,417.901)">
            <path d="M295.6,404.5C277.4,401 258.7,392.7 239.8,379.7C229.4,372.6 203.5,352.1 204.2,351.5C204.4,351.4 207.8,348.5 211.8,345.3L219.1,339.3L225.3,340.2C233.1,341.4 249.9,346.9 258.2,351.1C265.7,354.9 277.9,363 295.2,375.7C311.4,387.5 322.7,394.9 331.3,399.1C335,400.9 338,402.7 338,403.1C338,405.4 306.1,406.5 295.6,404.5Z" style="fill:white;fill-opacity:0.55;fill-rule:nonzero;"/>
        </g>
        <g transform="matrix(0.687772,0.0153503,-0.0201995,0.629601,-14.4042,417.901)">
            <path d="M333,374.6C314.6,370.5 302,363.8 266.4,338.9C258.6,333.4 249.7,327.8 246.5,326.4C243.4,324.9 241.2,323.4 241.7,323C242.1,322.6 246.6,319.5 251.7,316.2L260.8,310.1L267.7,312.4C293,321 316.1,335.9 363,373.7C365.9,376.1 342.7,376.7 333,374.6Z" style="fill:white;fill-opacity:0.55;fill-rule:nonzero;"/>
        </g>
        <g transform="matrix(0.687772,0.0153503,-0.0201995,0.629601,-14.4042,417.901)">
            <path d="M366.7,345.4C351.1,342.6 333.9,334.6 318.8,323.1C307.3,314.4 286,296.7 286,295.9C286,295 300.5,287.2 303.8,286.4C305,286 306.6,286.2 307.3,286.8C307.9,287.3 312.3,289 317,290.5C324.7,293.1 326.1,294 334,301.4C338.7,305.9 347.2,312.8 353,316.9C363.3,324.2 388.1,343 391,345.6C392.2,346.8 391,347 383.5,346.9C378.5,346.9 371,346.2 366.7,345.4Z" style="fill:white;fill-opacity:0.55;fill-rule:nonzero;"/>
        </g>
        <g transform="matrix(0.687772,0.0153503,-0.0201995,0.629601,-14.4042,417.901)">
            <path d="M395,323.3C385.1,321.7 372.4,315.9 361.3,308.1C355.5,304 327.3,278.1 326.2,275.9C326.1,275.6 329.6,273.7 334,271.7L342.1,268L347.9,271C355.4,274.7 365.5,282.4 385.5,299.5C394.3,307 404.3,315.3 407.8,317.8C411.2,320.3 414,322.7 414,323.2C414,324 399.7,324.1 395,323.3Z" style="fill:white;fill-opacity:0.55;fill-rule:nonzero;"/>
        </g>
        <g transform="matrix(0.687772,0.0153503,-0.0201995,0.629601,-14.4042,417.901)">
            <path d="M427.5,306.5C414.2,303.6 403.5,298 391,287.6C383.1,281 363.4,260.2 364.3,259.4C366,257.7 379.6,253.3 381,254C384.9,256.2 404.5,272.7 413,281.1C422.4,290.3 435,305.2 435,307.1C435,308.2 435.1,308.2 427.5,306.5Z" style="fill:white;fill-opacity:0.55;fill-rule:nonzero;"/>
        </g>
        <g transform="matrix(0.687772,0.0153503,-0.0201995,0.629601,-14.4042,417.901)">
            <path d="M449.9,285.5C441.4,282.7 434.2,279.6 430.4,277.2C422.4,271.9 396.8,246.3 398.9,245.7C399.8,245.4 403.5,244.1 407.2,242.7L413.9,240.1L426.1,248.8C442.9,260.8 461.5,278.8 467.4,288.8C468.7,290.9 464.1,290.1 449.9,285.5Z" style="fill:white;fill-opacity:0.55;fill-rule:nonzero;"/>
        </g>
        <g transform="matrix(0.687772,0.0153503,-0.0201995,0.629601,-14.4042,417.901)">
            <path d="M484.2,266.5C475.5,264.4 463.4,257.8 447,246.1C438.5,240 431.4,234.7 431.3,234.2C431.1,233.8 434.8,232 439.5,230.2L447.9,226.9L458.7,233.7C474.8,244 503.8,265.5 504,267.3C504,268.5 490,267.9 484.2,266.5Z" style="fill:white;fill-opacity:0.55;fill-rule:nonzero;"/>
        </g>
        <g transform="matrix(0.687772,0.0153503,-0.0201995,0.629601,-14.4042,417.901)">
            <path d="M509.5,245.6C503.2,243.6 498.3,240.8 486.1,232C479.8,227.5 472.8,222.9 470.4,221.7C468,220.6 466,219.3 466,219C466,218.7 469.2,216.9 473.1,215.1L480.2,211.8L486.7,214.5C495.8,218.4 514.9,231.7 529.5,244.2C532.6,246.9 517.1,248 509.5,245.6Z" style="fill:white;fill-opacity:0.55;fill-rule:nonzero;"/>
        </g>
        <g transform="matrix(0.687772,0.0153503,-0.0201995,0.629601,-14.4042,417.901)">
            <path d="M538.2,225C532.2,223.7 524.7,220.2 512.1,212.6C506.2,209 500,205.6 498.4,205L495.5,203.9L497.8,202.1C499.1,201.2 502.2,199.3 504.7,197.9L509.2,195.5L519.8,201.1C525.7,204.1 536.5,210.4 543.9,215C554.1,221.3 556.9,223.5 555.7,224.1C553.3,225.5 543,226 538.2,225Z" style="fill:white;fill-opacity:0.55;fill-rule:nonzero;"/>
        </g>
        <g transform="matrix(0.687772,0.0153503,-0.0201995,0.629601,-14.4042,417.901)">
            <path d="M555.5,203C548.3,200.4 522.9,187 523.4,186.1C523.7,185.7 525.7,184.1 527.8,182.6L531.8,179.9L541.6,183.6C556.4,189.1 577,199.8 577,202C577,203.3 570.1,205 565,204.9C562.5,204.9 558.3,204 555.5,203Z" style="fill:white;fill-opacity:0.55;fill-rule:nonzero;"/>
        </g>
        <g transform="matrix(0.687772,0.0153503,-0.0201995,0.629601,-14.4042,417.901)">
            <path d="M576.6,182.9C573.9,182.3 566.8,179.6 560.7,176.9C554.6,174.1 548.6,171.4 547.2,170.9C544.8,170 544.8,170 549.1,166.5C551.5,164.6 554,163 554.5,163C557,163 594,179.2 594,180.3C594,182.6 583.3,184.2 576.6,182.9Z" style="fill:white;fill-opacity:0.55;fill-rule:nonzero;"/>
        </g>
        <g transform="matrix(0.687772,0.0153503,-0.0201995,0.629601,-14.4042,417.901)">
            <path d="M596.5,161.3C595.4,161.1 589,159.1 582.3,156.9C575.6,154.8 569.4,153 568.5,153C566.1,153 566.7,151.4 570.4,148.7C572.4,147.1 574.1,146.5 574.6,147C575.1,147.5 581.4,149 588.5,150.4C604.1,153.3 612.5,155.9 612.5,158C612.5,160.6 602.4,162.7 596.5,161.3Z" style="fill:white;fill-opacity:0.55;fill-rule:nonzero;"/>
        </g>
        <g transform="matrix(0.687772,0.0153503,-0.0201995,0.629601,-14.4042,417.901)">
            <path d="M595.8,138.6C589.9,137.9 584.9,137.2 584.6,136.9C584.3,136.6 585.8,134.7 587.9,132.6L591.7,128.9L608.6,131.6C617.9,133.1 625.9,134.7 626.4,135.1C626.9,135.6 625.4,136.8 622.9,137.9C617.9,140.2 612.6,140.3 595.8,138.6Z" style="fill:white;fill-opacity:0.55;fill-rule:nonzero;"/>
        </g>
        <g transform="matrix(0.687772,0.0153503,-0.0201995,0.629601,-14.4042,417.901)">
            <path d="M605.2,116.3C608.2,113.2 608.8,113 615.4,113C625.2,113 636,114.1 636,115.1C636,117.5 629.8,118.8 616.3,119.2L602.1,119.5L605.2,116.3Z" style="fill:white;fill-opacity:0.55;fill-rule:nonzero;"/>
        </g>
        <g transform="matrix(0.687772,0.0153503,-0.0201995,0.629601,-14.4042,417.901)">
            <path d="M618.9,101.2C620.7,97.9 623.5,96.2 631.8,93.6C644.4,89.7 649.4,90.4 642.9,95.2C640.9,96.7 621.4,103 618.7,103C618.3,103 618.4,102.2 618.9,101.2Z" style="fill:white;fill-opacity:0.55;fill-rule:nonzero;"/>
        </g>
        <g transform="matrix(0.687772,0.0153503,-0.0201995,0.629601,-14.4042,417.901)">
            <path d="M635,81.5C637.7,78.5 646.3,74 649.4,74C654.3,74 644,80.8 635,83.5L632.5,84.2L635,81.5Z" style="fill:white;fill-rule:nonzero;"/>
        </g>
        <g transform="matrix(0.203314,0,0,0.203314,-8.41273,427.81)">
            <g transform="matrix(204.542,0,0,204.542,89.8402,303.68)">
                <path d="M0.433,0L0.333,0L0.15,-0.481C0.155,-0.458 0.157,-0.439 0.157,-0.426L0.157,0L0.046,0L0.046,-0.764L0.146,-0.764L0.329,-0.293C0.324,-0.316 0.322,-0.335 0.322,-0.348L0.322,-0.764L0.433,-0.764L0.433,0Z" style="fill:white;fill-rule:nonzero;"/>
            </g>
            <g transform="matrix(204.542,0,0,204.542,250.418,303.68)">
                <path d="M0.359,-0.061C0.359,-0.02 0.338,0 0.296,0L0.103,0C0.061,0 0.04,-0.02 0.04,-0.061L0.04,-0.432C0.04,-0.473 0.061,-0.493 0.103,-0.493L0.296,-0.493C0.338,-0.493 0.359,-0.473 0.359,-0.432L0.359,-0.251L0.328,-0.22L0.147,-0.22L0.147,-0.082L0.252,-0.082L0.252,-0.164L0.359,-0.164L0.359,-0.061ZM0.252,-0.293L0.252,-0.411L0.147,-0.411L0.147,-0.293L0.252,-0.293Z" style="fill:white;fill-rule:nonzero;"/>
            </g>
            <g transform="matrix(204.542,0,0,204.542,394.816,303.68)">
                <path d="M0.528,-0.493L0.422,0.001L0.324,0.001L0.271,-0.272L0.218,0.001L0.121,0.001L0.015,-0.493L0.122,-0.493L0.176,-0.178L0.229,-0.493L0.314,-0.493L0.367,-0.178L0.421,-0.493L0.528,-0.493Z" style="fill:white;fill-rule:nonzero;"/>
            </g>
            <g transform="matrix(204.542,0,0,204.542,620.851,303.68)">
                <path d="M0.37,0L0.019,0L0.019,-0.061L0.233,-0.661L0.036,-0.661L0.036,-0.764L0.369,-0.764L0.369,-0.698L0.156,-0.103L0.37,-0.103L0.37,0Z" style="fill:white;fill-rule:nonzero;"/>
            </g>
            <g transform="matrix(204.542,0,0,204.542,763.252,303.68)">
                <path d="M0.359,-0.061C0.359,-0.02 0.338,0 0.296,0L0.103,0C0.061,0 0.04,-0.02 0.04,-0.061L0.04,-0.432C0.04,-0.473 0.061,-0.493 0.103,-0.493L0.296,-0.493C0.338,-0.493 0.359,-0.473 0.359,-0.432L0.359,-0.251L0.328,-0.22L0.147,-0.22L0.147,-0.082L0.252,-0.082L0.252,-0.164L0.359,-0.164L0.359,-0.061ZM0.252,-0.293L0.252,-0.411L0.147,-0.411L0.147,-0.293L0.252,-0.293Z" style="fill:white;fill-rule:nonzero;"/>
            </g>
            <g transform="matrix(204.542,0,0,204.542,907.65,303.68)">
                <path d="M0.358,0L0.251,0L0.251,-0.017C0.226,-0.013 0.2,-0.009 0.175,-0.005C0.142,0 0.116,0.002 0.099,0.002C0.058,0.002 0.038,-0.018 0.038,-0.058L0.038,-0.236C0.038,-0.277 0.059,-0.297 0.101,-0.297L0.252,-0.297L0.252,-0.41L0.145,-0.41L0.145,-0.34L0.044,-0.34L0.044,-0.432C0.044,-0.473 0.065,-0.493 0.107,-0.493L0.296,-0.493C0.337,-0.493 0.358,-0.473 0.358,-0.432L0.358,0ZM0.252,-0.089L0.252,-0.221L0.145,-0.221L0.145,-0.085L0.252,-0.089Z" style="fill:white;fill-rule:nonzero;"/>
            </g>
            <g transform="matrix(204.542,0,0,204.542,1051.65,303.68)">
                <rect x="0.043" y="-0.764" width="0.11" height="0.764" style="fill:white;fill-rule:nonzero;"/>
            </g>
            <g transform="matrix(204.542,0,0,204.542,1154.3,303.68)">
                <path d="M0.358,0L0.251,0L0.251,-0.017C0.226,-0.013 0.2,-0.009 0.175,-0.005C0.142,0 0.116,0.002 0.099,0.002C0.058,0.002 0.038,-0.018 0.038,-0.058L0.038,-0.236C0.038,-0.277 0.059,-0.297 0.101,-0.297L0.252,-0.297L0.252,-0.41L0.145,-0.41L0.145,-0.34L0.044,-0.34L0.044,-0.432C0.044,-0.473 0.065,-0.493 0.107,-0.493L0.296,-0.493C0.337,-0.493 0.358,-0.473 0.358,-0.432L0.358,0ZM0.252,-0.089L0.252,-0.221L0.145,-0.221L0.145,-0.085L0.252,-0.089Z" style="fill:white;fill-rule:nonzero;"/>
            </g>
            <g transform="matrix(204.542,0,0,204.542,1298.3,303.68)">
                <path d="M0.369,0L0.257,0L0.257,-0.4L0.152,-0.398L0.152,0L0.04,0L0.04,-0.493L0.152,-0.493L0.152,-0.475C0.178,-0.479 0.204,-0.483 0.229,-0.487C0.261,-0.493 0.288,-0.495 0.308,-0.495C0.349,-0.495 0.369,-0.475 0.369,-0.435L0.369,0Z" style="fill:white;fill-rule:nonzero;"/>
            </g>
            <g transform="matrix(204.542,0,0,204.542,1444.59,303.68)">
                <path d="M0.367,0L0.256,0L0.256,-0.017C0.18,-0.004 0.138,0.003 0.129,0.003C0.101,0.003 0.079,-0.005 0.063,-0.022C0.047,-0.038 0.039,-0.061 0.039,-0.089L0.039,-0.394C0.039,-0.434 0.053,-0.462 0.082,-0.478C0.103,-0.489 0.134,-0.495 0.177,-0.495C0.186,-0.495 0.2,-0.495 0.218,-0.494C0.236,-0.493 0.248,-0.493 0.256,-0.493L0.256,-0.764L0.367,-0.764L0.367,0ZM0.256,-0.096L0.256,-0.4L0.187,-0.4C0.162,-0.4 0.15,-0.388 0.15,-0.363L0.15,-0.127C0.15,-0.103 0.162,-0.091 0.185,-0.091C0.191,-0.091 0.214,-0.093 0.256,-0.096Z" style="fill:white;fill-rule:nonzero;"/>
            </g>
        </g>
        <g transform="matrix(0.218584,0,0,0.218584,9.26974,450.829)">
            <g transform="matrix(248.395,0,0,248.395,0,0)">
                <path d="M0.433,0L0.333,0L0.15,-0.481C0.155,-0.458 0.157,-0.439 0.157,-0.426L0.157,0L0.046,0L0.046,-0.764L0.146,-0.764L0.329,-0.293C0.324,-0.316 0.322,-0.335 0.322,-0.348L0.322,-0.764L0.433,-0.764L0.433,0Z" style="fill:white;fill-rule:nonzero;"/>
            </g>
            <g transform="matrix(248.395,0,0,248.395,195.005,0)">
                <rect x="0.048" y="-0.764" width="0.114" height="0.764" style="fill:white;fill-rule:nonzero;"/>
            </g>
            <g transform="matrix(248.395,0,0,248.395,323.181,0)">
                <path d="M0.424,-0.07C0.424,-0.023 0.401,0 0.354,0L0.114,0C0.069,0 0.046,-0.023 0.046,-0.07L0.046,-0.694C0.046,-0.741 0.069,-0.764 0.115,-0.764L0.354,-0.764C0.401,-0.764 0.424,-0.741 0.424,-0.694L0.424,-0.531L0.309,-0.531L0.309,-0.666L0.16,-0.666L0.16,-0.098L0.309,-0.098L0.309,-0.312L0.224,-0.312L0.224,-0.409L0.424,-0.409L0.424,-0.07Z" style="fill:white;fill-rule:nonzero;"/>
            </g>
            <g transform="matrix(248.395,0,0,248.395,515.76,0)">
                <path d="M0.43,0L0.315,0L0.315,-0.343L0.16,-0.343L0.16,0L0.046,0L0.046,-0.764L0.16,-0.764L0.16,-0.449L0.315,-0.449L0.315,-0.764L0.43,-0.764L0.43,0Z" style="fill:white;fill-rule:nonzero;"/>
            </g>
            <g transform="matrix(248.395,0,0,248.395,709.795,0)">
                <path d="M0.378,-0.663L0.252,-0.663L0.252,0L0.138,0L0.138,-0.663L0.012,-0.663L0.012,-0.764L0.378,-0.764L0.378,-0.663Z" style="fill:white;fill-rule:nonzero;"/>
            </g>
            <g transform="matrix(248.395,0,0,248.395,882.726,0)">
                <path d="M0.412,-0.07C0.412,-0.023 0.389,0 0.343,0L0.113,0C0.067,0 0.044,-0.023 0.044,-0.07L0.044,-0.252L0.158,-0.252L0.158,-0.096L0.298,-0.096L0.298,-0.246L0.069,-0.463C0.052,-0.479 0.044,-0.499 0.044,-0.524L0.044,-0.694C0.044,-0.741 0.067,-0.764 0.113,-0.764L0.343,-0.764C0.389,-0.764 0.412,-0.741 0.412,-0.695L0.412,-0.524L0.298,-0.524L0.298,-0.668L0.158,-0.668L0.158,-0.53L0.387,-0.314C0.404,-0.298 0.412,-0.278 0.412,-0.252L0.412,-0.07Z" style="fill:white;fill-rule:nonzero;"/>
            </g>
            <g transform="matrix(248.395,0,0,248.395,1072.27,0)">
                <path d="M0.422,-0.07C0.422,-0.023 0.399,0 0.352,0L0.114,0C0.069,0 0.046,-0.023 0.046,-0.07L0.046,-0.694C0.046,-0.741 0.069,-0.764 0.114,-0.764L0.352,-0.764C0.399,-0.764 0.422,-0.741 0.422,-0.694L0.422,-0.515L0.308,-0.515L0.308,-0.666L0.16,-0.666L0.16,-0.098L0.308,-0.098L0.308,-0.259L0.422,-0.259L0.422,-0.07Z" style="fill:white;fill-rule:nonzero;"/>
            </g>
            <g transform="matrix(248.395,0,0,248.395,1264,0)">
                <path d="M0.431,-0.07C0.431,-0.023 0.408,0 0.362,0L0.114,0C0.069,0 0.046,-0.023 0.046,-0.07L0.046,-0.694C0.046,-0.741 0.069,-0.764 0.114,-0.764L0.362,-0.764C0.408,-0.764 0.431,-0.741 0.431,-0.694L0.431,-0.07ZM0.317,-0.098L0.317,-0.666L0.16,-0.666L0.16,-0.098L0.317,-0.098Z" style="fill:white;fill-rule:nonzero;"/>
            </g>
            <g transform="matrix(248.395,0,0,248.395,1458.52,0)">
                <path d="M0.428,-0.07C0.428,-0.023 0.405,0 0.358,0L0.115,0C0.069,0 0.046,-0.023 0.046,-0.07L0.046,-0.764L0.16,-0.764L0.16,-0.098L0.314,-0.098L0.314,-0.764L0.428,-0.764L0.428,-0.07Z" style="fill:white;fill-rule:nonzero;"/>
            </g>
            <g transform="matrix(248.395,0,0,248.395,1652.31,0)">
                <path d="M0.378,-0.663L0.252,-0.663L0.252,0L0.138,0L0.138,-0.663L0.012,-0.663L0.012,-0.764L0.378,-0.764L0.378,-0.663Z" style="fill:white;fill-rule:nonzero;"/>
            </g>
        </g>
        <g transform="matrix(3.51445,0.0946446,-0.0946446,3.51445,-307.49,-444.97)">
            <circle cx="317.78" cy="283.955" r="3.556" style="fill:white;"/>
        </g>
        <g transform="matrix(3.51445,0.0946446,-0.0946446,3.51445,-387.554,-464.986)">
            <circle cx="317.78" cy="283.955" r="3.556" style="fill:white;"/>
        </g>
        <g transform="matrix(3.51445,0.0946446,-0.0946446,3.51445,-469.158,-481.923)">
            <circle cx="317.78" cy="283.955" r="3.556" style="fill:white;"/>
        </g>
        <g transform="matrix(3.51445,0.0946446,-0.0946446,3.51445,-535.365,-521.955)">
            <circle cx="317.78" cy="283.955" r="3.556" style="fill:white;"/>
        </g>
        <g transform="matrix(3.51445,0.0946446,-0.0946446,3.51445,-302.938,-450.454)">
            <circle cx="344.257" cy="283.955" r="3.556" style="fill:white;"/>
        </g>
        <g transform="matrix(3.51445,0.0946446,-0.0946446,3.51445,-303.476,-471.388)">
            <circle cx="370.737" cy="280.786" r="3.556" style="fill:white;"/>
        </g>
        <g transform="matrix(3.51445,0.0946446,-0.0946446,3.51445,-303.476,-471.388)">
            <circle cx="397.218" cy="271.621" r="3.556" style="fill:white;"/>
        </g>
        <g transform="matrix(3.51445,0.0946446,-0.0946446,3.51445,-303.476,-471.388)">
            <circle cx="423.684" cy="268.673" r="3.556" style="fill:white;"/>
        </g>
        <g transform="matrix(3.51445,0.0946446,-0.0946446,3.51445,-303.476,-471.388)">
            <circle cx="450.172" cy="260.125" r="3.556" style="fill:white;"/>
        </g>
        <g transform="matrix(3.51445,0.0946446,-0.0946446,3.51445,-303.476,-471.388)">
            <circle cx="476.641" cy="251.987" r="3.556" style="fill:white;"/>
        </g>
        <g transform="matrix(3.51445,0.0946446,-0.0946446,3.51445,-303.476,-471.388)">
            <circle cx="503.13" cy="246.77" r="3.556" style="fill:white;"/>
        </g>
        <g transform="matrix(3.51445,0.0946446,-0.0946446,3.51445,-303.476,-471.388)">
            <circle cx="529.614" cy="246.77" r="3.556" style="fill:white;"/>
        </g>
        <g transform="matrix(3.51445,0.0946446,-0.0946446,3.51445,-303.476,-471.388)">
            <circle cx="556.088" cy="249.358" r="3.556" style="fill:white;"/>
        </g>
        <g transform="matrix(3.51445,0.0946446,-0.0946446,3.51445,-233.49,-437.132)">
            <circle cx="556.088" cy="249.358" r="3.556" style="fill:white;"/>
        </g>
        <g transform="matrix(3.51445,0.0946446,-0.0946446,3.51445,-172.87,-398.504)">
            <circle cx="556.088" cy="249.358" r="3.556" style="fill:white;"/>
        </g>
        <g transform="matrix(3.51445,0.0946446,-0.0946446,3.51445,-110.42,-370.617)">
            <circle cx="556.088" cy="249.358" r="3.556" style="fill:white;"/>
        </g>
        <g transform="matrix(3.51445,0.0946446,-0.0946446,3.51445,-39.3558,-376.411)">
            <circle cx="556.088" cy="249.358" r="3.556" style="fill:white;"/>
        </g>
        <g transform="matrix(0.297467,2.36745e-18,4.7349e-18,0.298855,335.735,581.946)">
            <g id="layer101" transform="matrix(0.597994,0,0,0.597994,-24.3039,-8.5464)">
                <path d="M269.9,340.6C256.4,335.4 248,322.3 249.3,308.4C251.6,283.9 279.8,271.7 299.4,286.7C306.8,292.4 310.3,299.3 310.8,309.6C311.2,316.7 310.9,318.5 308.8,323.2C305.5,330.4 301.3,335 294.8,338.5C290.5,340.9 288.1,341.4 281.5,341.7C276.4,341.9 272.2,341.5 269.9,340.6Z" style="fill:rgb(224,224,224);fill-rule:nonzero;"/>
                <path d="M269.9,340.6C256.4,335.4 248,322.3 249.3,308.4C251.6,283.9 279.8,271.7 299.4,286.7C306.8,292.4 310.3,299.3 310.8,309.6C311.2,316.7 310.9,318.5 308.8,323.2C305.5,330.4 301.3,335 294.8,338.5C290.5,340.9 288.1,341.4 281.5,341.7C276.4,341.9 272.2,341.5 269.9,340.6Z" style="fill:rgb(224,224,224);fill-rule:nonzero;"/>
                <path d="M483.2,340.4C477.1,338.1 468.7,330.1 465.9,323.8C462.4,315.9 462.6,305.4 466.3,297.8C471.4,287.3 480.9,281 492.5,280.2C505.7,279.4 516.2,285.6 522.2,297.7C525,303.4 525.4,305.3 525.3,311.4C525.2,323.4 519,333.4 508.6,338.7C502.2,342 489.9,342.8 483.2,340.4Z" style="fill:rgb(224,224,224);fill-rule:nonzero;"/>
            </g>
            <g id="layer102" transform="matrix(0.597994,0,0,0.597994,-24.3039,-8.5464)">
                <path d="M371.3,795C353.6,790.3 344,782.5 308,742.5C246.4,674.3 192.9,595.8 160.8,526.8C140.5,482.9 125.2,437.4 116.6,395C112.7,375.5 110.2,356.4 108.4,332.5C106.6,308.8 107.3,287.3 110.6,265.7C119.3,207.1 145.2,154.7 186.5,112.1C192,106.4 199,99.6 202.1,96.9L207.8,92L206.3,96.2C203.8,103.5 206.4,111.3 212.8,115.4C217.4,118.4 221.6,119.3 225.6,118.1C228.5,117.3 229.1,117.5 232.5,121L236.2,124.8L224,136.6C192.7,167 171.4,202.7 160.1,243.5C158.4,249.6 156.8,256.4 156.4,258.8C156,261.1 155.4,263 155.1,263C154.7,263 153.6,261.6 152.6,260C151,257.2 150.9,255.2 151.6,238L152.3,219.1L155,218C158.5,216.5 162.6,212.3 163.9,208.7C168.8,195.9 156.9,182.5 143.7,186.1C138.4,187.5 132.3,193.6 131.4,198.5C130.1,205.8 133.4,213.6 139.6,217.2L143.1,219.3L142.5,237.9C142.1,248.1 141.7,257.1 141.4,257.8C141.2,258.5 143.7,263.2 147.1,268.1L153.1,277.1L152.4,286.1C151.7,295.1 151.7,295.1 150.2,292C145.1,281.5 128,280.8 121.5,290.7C115.9,299.2 118.9,311.3 127.5,315.4L131,317.1L131,378.8L128,380C121.2,382.8 117,391.7 119,399C122.8,413.1 140.5,416.5 149.3,404.9C153.3,399.5 153.3,390.6 149.2,385.1C148.2,383.7 145.7,381.6 143.7,380.5L140,378.5L140,317L142.3,316.1C144.9,315.1 148,312.4 150.1,309.3C151.6,307.2 151.7,308.3 152.3,323.8C153.1,343.2 154.1,352.7 157.6,373.8C159.8,387.2 166.6,417.2 168.6,422.3C169.2,423.9 168.9,424 166.4,423.3C156.5,420.6 146.9,426.3 144.6,436.2C143.6,440.7 145.9,447.9 149.7,451.6C151.5,453.5 153.7,455 154.5,455C155.8,455 156,458.4 156,477.2L156,499.4L172.3,515.9C181.2,525 193.8,537.9 200.3,544.5L212,556.5L212,563.6C212,570.6 211.9,570.8 209,572C202,574.9 197.9,584 200,591.7C201.4,596.5 207.2,602.5 211.5,603.6C215.6,604.6 223,603.4 225.9,601.3C235.5,594.2 235.6,579.8 226.1,573C223.4,571.2 223.2,570.5 222.6,561.3L221.9,551.5L167.1,495.5L167,475.3C167,458.1 167.2,455 168.5,455C169.3,455 171.5,453.5 173.3,451.6L176.7,448.2L181.5,461.3C207.6,534.1 259.4,618.8 322.7,692.2L332,703L332,719.5L328.3,721.5C318.2,726.9 316.2,740.4 324.4,748.6C330.8,755 340.4,755.1 347.5,748.9C351.6,745.3 353.4,740.3 352.7,734.3C352.1,729.1 349.8,725.5 344.9,722.2C342.6,720.6 341.5,719 341.2,717C341,715.3 341,714 341.2,714C341.4,714 347,719.8 353.7,726.8L365.8,739.6L366.5,746.7C367.2,753.6 367.1,753.8 364.8,754.5C358.2,756.6 353,763.7 353,770.6C353,775.9 356.3,782.1 360.7,785C365.3,788.1 373.8,788.4 378.5,785.6C388.9,779.5 389.5,763.2 379.6,756.8C377.2,755.2 376,753.7 376,752.1C376,750.3 376.4,749.9 377.8,750.5C386.1,754 391.6,753.5 399,748.5L404,745.1L404,749.7C404,753.9 403.6,754.7 399.9,757.8C392.7,763.9 391.2,771.2 395.3,779.1C399.6,787.3 409.6,790.3 418,786C423.6,783.2 426.3,778.8 426.7,772.1C427.2,764.5 424.3,759.4 417.8,756.1L413,753.8L413,735.5L423.6,724C453.6,691.5 489.7,646.7 512.2,613.9L516,608.5L516,642.3L505.8,654.9C494.6,668.8 450.7,723.4 450.5,723.7C450.4,723.9 448.5,723.3 446.2,722.4C435.4,718.1 422.9,726.6 423,738.2C423.1,743 426.3,749.4 430,752C434.5,755.2 442.4,755.8 447.4,753.5C455.3,749.7 459.1,739.9 455.7,731.8C454.3,728.5 454.3,728.3 456,728.7C457.3,729.1 464.3,721.1 485.1,695.3C500.1,676.7 515.2,658 518.7,653.8L525,646.1L525,595.3L530.2,586.9C533,582.3 536.9,575.9 538.8,572.8C540.7,569.6 542.4,567 542.6,567C542.8,567 543,571.4 543,576.8L543,586.6L539.2,588.3C537,589.3 534.4,591.6 532.7,594.2C525.4,605.5 533.1,620 546.4,620C555.7,620 562.2,614.4 563.6,605.4C564.4,599.6 561,592.5 555.8,589.1L552.2,586.8L552,568.4L551.9,550.1L557.1,540.9C563.9,528.8 576.4,502.9 583.4,486C586.6,478.6 602.4,446.5 618.6,414.7L648.2,357L648,322.5L647.9,288.1L651.9,286.1C663,280.4 664.2,264.2 654.1,257.4C646.9,252.7 639.3,253 633.3,258.3C627.2,263.6 625.5,270.5 628.5,277.5C630,281.3 635.6,287 637.7,287C638.7,287 639,294 639,320.7L639,354.4L628.6,375C616.2,399.4 609,412.8 609,411.7C609,411.2 609.9,407.4 611,403.2C613.7,392.3 618.6,364.9 620.6,349C623.1,329.5 623.1,287.6 620.7,272C617,248.2 609.6,224.5 599.6,203.8L594.3,193L602,193L602,174.9L592.8,175.2L583.5,175.5L579.8,170.2C576.1,165 576,164.7 576,156L576,147L561.8,147L550.9,136.6C538.6,124.8 525,114.2 511.1,105.6C501.1,99.4 483.4,90.4 475.8,87.5C473.1,86.5 471,85.6 471,85.4C471,85.2 478.1,85 486.8,85L502.5,85L504.1,88.9C505,91 507.3,93.9 509.3,95.4C520.5,104 536.1,96.3 536.3,82.1C536.4,70.5 524.9,62.2 513.6,66C511.7,66.6 508.5,68.9 506.7,71.1L503.3,75L468.4,75C442.4,75 431.4,74.6 425.3,73.5C408.1,70.5 390.9,69.6 373.2,71C364,71.6 352.9,72.8 348.5,73.6C338.8,75.3 276,75.6 276,74C276,73.5 274.4,71.3 272.5,69.1C262,57.5 242.9,65.5 243,81.5C243.1,88.4 250.4,96.1 258.1,97.5C264.4,98.7 272,94.2 276.5,86.6C277.4,85.1 279.2,85 291,85.2L304.5,85.5L299.5,87.4C285.4,92.7 258.6,107.7 247.7,116.3L243.9,119.3L240,115.5C236.2,111.7 236.1,111.7 237.7,108.7C239.9,104.3 239.1,95.4 236,91.3C232.9,87.1 227.6,84.6 221.8,84.7C219.1,84.7 217,84.6 217,84.4C217,84.2 223.8,79.6 232,74.1C282.8,40.4 339.5,24.5 399,27.2C461.8,30 520,52.6 567.5,92.4L570.5,94.9L564.3,95L558,95L558,113L576,113L576,106.3L576.1,99.5L596.5,120.5L590.2,120.8L584,121.1L584,139L601.9,139L602.2,133.2L602.5,127.5L608.4,135C633,166.4 651.3,205.7 660.4,246.1C668.2,281.2 669.1,320.9 662.9,366C659.8,388 651.7,426.1 648.1,435.1C647.2,437.4 647.1,437.3 647.1,434.2C647,430.1 645.1,426.3 641.1,422.5C638.4,420 637,419.5 631.5,419.2C625.8,418.8 624.5,419.1 621.1,421.3C613.3,426.5 611.1,436.7 616.1,444.9L618.1,448.2L612.4,460.3C609.2,467 603.7,478.8 600,486.5C596.3,494.2 589.4,508.9 584.5,519.3L575.7,538L570.8,538C560.9,538 553.6,544.8 553.6,554C553.6,568.4 571.5,575.4 582.4,565.2C583.9,563.7 585.6,561.4 586.1,560.1C587.7,556.2 587.4,549.3 585.6,546.6C584.7,545.2 584,543.6 584,543C584,542.4 592.1,524.7 602.1,503.7C612.1,482.7 621.6,462.5 623.2,458.8C625.9,452.8 626.5,452.1 628.6,452.6C632.1,453.5 638.1,451.1 642.2,447.2L646,443.6L640.1,461.1C623.8,509.7 601.5,556 570.5,606C536.2,661.1 486.5,723.9 438.8,772.1C427.1,784 425.7,785.1 415.9,789.8C410.2,792.6 402.8,795.4 399.6,795.9C390.8,797.5 379.4,797.1 371.3,795ZM312.9,714.7C317.5,711.7 320.2,706.4 320.2,700.5C320.2,690.5 312.5,683.5 302.2,684.2L296.6,684.5L288,673.4C283.3,667.2 274.5,655.7 268.3,647.7L257.1,633.1L258.7,630C260.6,626.1 260.6,619 258.6,615.3C252.9,604.3 237.8,602.7 229.9,612.3C228.9,613.5 227.6,616.4 227,618.8C224,630.6 235,642.1 246.9,639.5C249.7,638.9 250.4,639.7 269.4,664.4L289.1,689.9L287.6,695.2C284.9,704.4 287.9,711.6 296.1,715.8C301.6,718.7 307.4,718.3 312.9,714.7ZM602,165L602,147L584,147L584,165L602,165ZM576,139L576,121L558,121L558,139L576,139ZM319.6,72.1C323.7,70.2 327.1,66.4 328.4,62.3L329.1,60L444.7,60L446.6,64.1C449.3,70.2 454.8,73.5 462,73.5C468.5,73.4 471.5,71.9 475.6,66.5C479.4,61.5 479.9,54.9 476.8,49C471.1,37.9 455.2,36.8 448.1,47.1L445.5,50.9L386.9,51L328.3,51L327.2,48.6C324.2,41.9 312.1,37.8 305.4,41.3C297.5,45.4 293.8,53 295.9,61C298.7,71.6 309.5,76.7 319.6,72.1Z" style="fill:rgb(224,224,224);fill-rule:nonzero;"/>
                <path d="M300.3,707.5C297,706.1 296,704.3 296,700.1C296,696.7 299.7,693 303.2,693C311.6,693 314.1,705 306.2,707.8C304.2,708.5 302.5,708.4 300.3,707.5Z" style="fill:rgb(224,224,224);fill-rule:nonzero;"/>
                <path d="M241,630.3C235.4,628.2 234,620.7 238.6,617.1C242.1,614.3 245.5,614.5 248.5,617.5C252.5,621.4 251.7,627.1 246.9,629.5C243.9,631.1 243.4,631.2 241,630.3Z" style="fill:rgb(224,224,224);fill-rule:nonzero;"/>
                <path d="M309.5,64C304,61.8 302.9,55.2 307.4,51.3C310.9,48.3 314.5,48.4 317.5,51.5C321.5,55.4 320.7,61.1 315.9,63.5C312.8,65.2 312.3,65.2 309.5,64Z" style="fill:rgb(224,224,224);fill-rule:nonzero;"/>
                <path d="M457.2,62.5C454.9,60.6 454,59 454,56.9C454,53.4 457.9,49 460.9,49C466.7,49 471,54.3 469.1,59.1C467,64.8 461.7,66.3 457.2,62.5Z" style="fill:rgb(224,224,224);fill-rule:nonzero;"/>
                <path d="M367.3,778C361.8,775.8 360.6,767.8 365.3,764.5C372.6,759.4 381.8,768.7 375.8,775.3C373.1,778.3 370.3,779.2 367.3,778Z" style="fill:rgb(224,224,224);fill-rule:nonzero;"/>
                <path d="M406.3,777.8C405.1,777.2 403.6,775.4 402.9,773.7C401.3,770 403.1,766.2 407.4,764.2C414.8,760.6 421.5,770.6 415.5,776.5C413,779.1 409.9,779.6 406.3,777.8Z" style="fill:rgb(224,224,224);fill-rule:nonzero;"/>
                <path d="M435,744C430.6,739.6 431.9,733.1 437.7,730.9C441,729.7 443.4,730.5 446,733.7C448.7,737.1 448.5,740.6 445.5,743.5C442.5,746.6 437.8,746.8 435,744Z" style="fill:rgb(224,224,224);fill-rule:nonzero;"/>
                <path d="M331.3,742.5C328.4,740.5 327.6,736.6 329.4,733.1C331.1,729.9 332.8,729 337,729C340.3,729 344,733 344,736.5C344,737.7 343.1,739.9 341.9,741.4C339.5,744.4 334.8,744.9 331.3,742.5Z" style="fill:rgb(224,224,224);fill-rule:nonzero;"/>
                <path d="M380.6,692.8L375,686.5L375,571.1L382.6,557.8C386.8,550.5 390.6,544 391.1,543.4C391.6,542.8 397.2,542 403.8,541.7C410.2,541.3 417.1,540.7 419,540.3L422.5,539.7L417.5,545.6C414.7,548.9 410.3,554.4 407.5,557.7C404,562.1 402.1,563.7 401,563.2C400.2,562.8 397,562.5 393.9,562.5C385,562.5 378.9,567.8 377.4,576.7C376.5,582.3 378.4,587.2 383,591.4C394.3,601.6 412.1,593.1 410.8,578.1C410.5,575.6 410,572.8 409.6,571.9C409.1,570.7 412.7,565.8 422.5,553.9L436.2,537.6L446.8,534.9C467.6,529.6 488.2,520.9 506.8,509.7L516,504.2L516,526.1L511.3,534.3C484.6,581.2 456.9,620.1 415.3,668.9L413.1,671.5L413,642.2L413,612.9L444.2,574.5L449.5,574.8C455.9,575.2 461.7,572.6 465.2,567.8C467,565.2 467.5,563.2 467.5,558C467.5,550.3 465.1,546.1 459,543C445.2,536 430.3,549.2 435.4,563.9C436.2,566.4 436.6,568.8 436.3,569.4C435.9,570 428.5,579.1 419.8,589.8L404,609.2L404,681.6L396.3,690C392.1,694.7 388.1,698.6 387.4,698.8C386.8,699 383.7,696.3 380.6,692.8Z" style="fill:rgb(224,224,224);fill-rule:nonzero;"/>
                <path d="M353.8,662.4L342,648.5L342,622.2L353.8,604.5L365.5,586.9L365.8,609.5C365.9,622 365.9,642.1 365.8,654.2L365.5,676.2L353.8,662.4Z" style="fill:rgb(224,224,224);fill-rule:nonzero;"/>
                <path d="M541.5,608.5C536.4,603.5 539.9,596 547.2,596C553,596 556.3,601.6 553.6,606.8C551.1,611.7 545.4,612.5 541.5,608.5Z" style="fill:rgb(224,224,224);fill-rule:nonzero;"/>
                <path d="M291.7,580.3C284.9,569.9 275.6,555.2 271,547.5C260.6,530 241.5,493 242.9,493C243.4,493 244.2,493.5 244.6,494.1C247.1,498.2 286.4,520.8 298.3,525.1C301.9,526.4 302,526.5 302,531.5C302,534.2 302.3,539.5 302.6,543.1L303.3,549.7L299.7,551.9C294.5,555.1 291.6,560.3 291.6,566.6C291.6,578.2 302.4,585.8 314.3,582.7C317,582 316.9,582.2 311.4,590.5C308.3,595.2 305.3,599 304.9,599C304.5,599 298.5,590.6 291.7,580.3Z" style="fill:rgb(224,224,224);fill-rule:nonzero;"/>
                <path d="M211.6,592.9C207,589.3 208.8,581 214.5,579.6C217.4,578.9 222.4,581.1 223.4,583.5C224.6,586.8 223.9,590.1 221.5,592.5C218.5,595.5 215.1,595.7 211.6,592.9Z" style="fill:rgb(224,224,224);fill-rule:nonzero;"/>
                <path d="M390.2,585.4C383.4,580.7 386.7,571 395.1,571C397.9,571 402,575.4 402,578.4C402,582.2 401,583.9 397.9,585.5C394.3,587.4 393,587.4 390.2,585.4Z" style="fill:rgb(224,224,224);fill-rule:nonzero;"/>
                <path d="M303.2,572C298.4,567.5 302,559 308.6,559C314.9,559 318.4,567.6 314,572C311.4,574.6 306,574.6 303.2,572Z" style="fill:rgb(224,224,224);fill-rule:nonzero;"/>
                <path d="M325.5,568.1C325.8,567.5 325.5,565.1 324.9,562.6C323.7,557.7 319.4,552.5 315.4,551C313.1,550.1 313,549.7 313,540.5C313,535.3 313.3,531 313.6,531C313.9,531 316.5,531.7 319.3,532.4C322.2,533.2 326.4,534.4 328.8,535L333,536.1L333,546.6C333,557 332.9,557.3 329.4,563.1C327.4,566.3 325.5,569 325.3,569C325.1,569 325.1,568.6 325.5,568.1Z" style="fill:rgb(224,224,224);fill-rule:nonzero;"/>
                <path d="M447.2,564.4C442.3,561 442.4,554.7 447.4,551.4C454.9,546.6 462.9,557.2 456.5,563.5C453.7,566.4 450.4,566.7 447.2,564.4Z" style="fill:rgb(224,224,224);fill-rule:nonzero;"/>
                <path d="M565.6,558.9C560.4,554.8 563.6,547 570.5,547C577.4,547 580.6,554.8 575.4,558.9C573.9,560.1 571.7,561 570.5,561C569.3,561 567.1,560.1 565.6,558.9Z" style="fill:rgb(224,224,224);fill-rule:nonzero;"/>
                <path d="M342.5,539C342.8,538.5 343.3,538 343.6,538C343.9,538 343.8,538.5 343.5,539C343.2,539.6 342.7,540 342.4,540C342.1,540 342.2,539.6 342.5,539Z" style="fill:rgb(224,224,224);fill-rule:nonzero;"/>
                <path d="M525.2,502C525.1,498.7 525.7,497.6 528.3,495.6C530,494.2 531.6,493.3 531.8,493.5C532.2,493.8 526.2,506 525.6,506C525.4,506 525.2,504.2 525.2,502Z" style="fill:rgb(224,224,224);fill-rule:nonzero;"/>
                <path d="M374,494.1C374,489 373.8,488.7 363,475L352,461.2L352,435.2L354.9,434C358.5,432.6 362.5,428.4 363.9,424.7C370.3,407.8 349.1,393.7 336.4,406.4C328.5,414.3 330,427.6 339.5,433.1L343,435.2L343,464.7L354,478.6C361.9,488.6 365,493.3 365,495.3C365,498.5 364.8,498.6 352.5,496.2C344.3,494.6 343.5,494.3 343.1,492C343,490.6 337.9,481.7 331.8,472L320.8,454.5L321,437.2C321,427.7 321.3,419.4 321.6,418.7C321.9,418 323.5,416.6 325.3,415.5C329,413.2 333,405.9 333,401.5C332.9,397 329.6,390.6 325.9,387.9C320.9,384.4 311.7,384 307,387.2C301.6,390.9 299,395.5 299,401.4C299,408.9 302.9,414.7 309.4,417.2L312.3,418.3L311.6,437.3L311,456.2L321.6,473.2C327.4,482.5 332,490.4 331.6,490.7C330.9,491.4 321.5,488.1 309.4,482.8L300.2,478.9L292.6,467.4L285,456L285.2,420.7L285.5,385.5L290.5,384.9C319.2,381.3 345.4,357.9 352.5,329.5C355,319.8 355,301.7 352.7,293C350,283.2 342.7,269.2 336.9,262.6C326.6,251.1 311.8,242 297.7,238.5C286.8,235.9 269.8,236.4 258.5,239.8C239.1,245.6 222.7,259.7 213.3,278.5C207.6,289.9 206.5,295 206.5,311.5C206.6,325.3 206.8,327.1 209.4,334.5C212.9,344.8 219.3,355 227.2,363.1C239.2,375.3 250.9,381.5 267.4,384.4L274.2,385.6L274.1,421.9C274,456.7 274.1,458.5 276,461.7L278,465.2L274.8,462.9C266.5,457.2 243,435.7 243,433.9C243,433.4 244.6,433.8 246.5,434.6C251.3,436.6 254.9,436.4 260,433.8C265.2,431.1 267.8,427.8 269,422.4C271.4,411.8 263.2,402.1 251.8,402L247.5,401.9L195.5,324.5L195.6,311C195.7,299.5 196.1,296.2 198.4,288.5C205.6,264.8 221.1,246 241.5,236.4C254.2,230.5 261.2,228.9 277.5,228.3C289.5,227.9 292.8,228.1 300.4,229.9C322.8,235.3 339.9,247 351.5,264.9C357,273.5 360.3,281 363.2,292.3C365.2,300.1 365.3,303.4 365.7,359.7L366.2,418.8L368.7,421.2C371.1,423.4 371.7,423.5 387.5,423.5C403.3,423.5 404,423.4 406.2,421.2L408.5,418.9L409.1,358.7C409.7,290.3 409.6,291.4 418.4,273.5C428.7,252.6 445.8,238.6 469.5,231.4C477.5,229 480.2,228.7 493.5,228.6C504.6,228.6 510.3,229 515.3,230.3C557.8,241 583.5,278.4 579,323.2C574.8,365.9 559.9,400.7 531.8,433.8L525.5,441.2L525.2,433.9C524.9,427.8 525.2,426.3 526.6,425.5C532.8,421.8 534.8,420 536.8,416C539.5,410.6 539.6,406.8 537.1,401.4C534.4,395.5 529.9,392.7 522.5,392.2C517.5,391.9 516,392.2 513.1,394.2C507.8,397.8 505.7,401.3 505.2,407.4C504.7,413.9 507.2,419.3 512.5,422.8L516,425L516,437.8L515.9,450.5L510.3,455C507.2,457.5 502.8,460.9 500.6,462.5L496.5,465.5L498.3,462.8C499.8,460.3 500,456.7 500,424.5L500,389L491,389L491,456.9L481.8,468C471.8,480.2 470.3,481.2 454,487.3C433.4,495 417.1,498 392.8,498.7L374,499.3L374,494.1ZM412,493.8C427.8,485.8 421.1,460.9 403.5,462.3C400.8,462.6 397.8,463 396.9,463.4C395.8,463.9 394.5,463 392.6,460.6L389.9,457L392.1,454C395.3,449.8 395.8,440.8 393.2,436C389.6,429.5 382,426 374.3,427.5C369,428.5 362.4,435.4 361.5,440.9C359.8,451.1 368,460.9 378.2,461C381,461.1 382.1,461.8 385.2,466.1C388.4,470.6 388.7,471.5 387.8,474.2C385.3,481.2 389.4,490.5 396.5,494C401.7,496.6 406.5,496.5 412,493.8ZM479,448L479,403L434,403L434,448L479,448ZM514.2,382.9C526.7,379.4 536.4,373.7 546.1,364.1C558.2,352 564.2,341.1 567.4,325.7C572.5,301.1 565.1,277.1 547,259C537.4,249.4 530.6,245 518.7,240.7C511.8,238.2 508.6,237.7 498,237.3C482.1,236.7 473.8,238.3 461,244.6C452.9,248.6 450.1,250.7 442,258.9C431.5,269.4 427,276.8 422.8,290C419.5,300.8 419.5,321.1 422.8,332C435.1,371.4 475.1,393.7 514.2,382.9Z" style="fill:rgb(224,224,224);fill-rule:nonzero;"/>
                <path d="M374,494.1C374,489 373.8,488.7 363,475L352,461.2L352,435.2L354.9,434C358.5,432.6 362.5,428.4 363.9,424.7C370.3,407.8 349.1,393.7 336.4,406.4C328.5,414.3 330,427.6 339.5,433.1L343,435.2L343,464.7L354,478.6C361.9,488.6 365,493.3 365,495.3C365,498.5 364.8,498.6 352.5,496.2C344.3,494.6 343.5,494.3 343.1,492C343,490.6 337.9,481.7 331.8,472L320.8,454.5L321,437.2C321,427.7 321.3,419.4 321.6,418.7C321.9,418 323.5,416.6 325.3,415.5C329,413.2 333,405.9 333,401.5C332.9,397 329.6,390.6 325.9,387.9C320.9,384.4 311.7,384 307,387.2C301.6,390.9 299,395.5 299,401.4C299,408.9 302.9,414.7 309.4,417.2L312.3,418.3L311.6,437.3L311,456.2L321.6,473.2C327.4,482.5 332,490.4 331.6,490.7C330.9,491.4 321.5,488.1 309.4,482.8L300.2,478.9L292.6,467.4L285,456L285.2,420.7L285.5,385.5L290.5,384.9C319.2,381.3 345.4,357.9 352.5,329.5C355,319.8 355,301.7 352.7,293C350,283.2 342.7,269.2 336.9,262.6C326.6,251.1 311.8,242 297.7,238.5C286.8,235.9 269.8,236.4 258.5,239.8C239.1,245.6 222.7,259.7 213.3,278.5C207.6,289.9 206.5,295 206.5,311.5C206.6,325.3 206.8,327.1 209.4,334.5C212.9,344.8 219.3,355 227.2,363.1C239.2,375.3 250.9,381.5 267.4,384.4L274.2,385.6L274.1,421.9C274,456.7 274.1,458.5 276,461.7L278,465.2L274.8,462.9C266.5,457.2 243,435.7 243,433.9C243,433.4 244.6,433.8 246.5,434.6C251.3,436.6 254.9,436.4 260,433.8C265.2,431.1 267.8,427.8 269,422.4C271.4,411.8 263.2,402.1 251.8,402L247.5,401.9L195.5,324.5L195.6,311C195.7,299.5 196.1,296.2 198.4,288.5C205.6,264.8 221.1,246 241.5,236.4C254.2,230.5 261.2,228.9 277.5,228.3C289.5,227.9 292.8,228.1 300.4,229.9C322.8,235.3 339.9,247 351.5,264.9C357,273.5 360.3,281 363.2,292.3C365.2,300.1 365.3,303.4 365.7,359.7L366.2,418.8L368.7,421.2C371.1,423.4 371.7,423.5 387.5,423.5C403.3,423.5 404,423.4 406.2,421.2L408.5,418.9L409.1,358.7C409.7,290.3 409.6,291.4 418.4,273.5C428.7,252.6 445.8,238.6 469.5,231.4C477.5,229 480.2,228.7 493.5,228.6C504.6,228.6 510.3,229 515.3,230.3C557.8,241 583.5,278.4 579,323.2C574.8,365.9 559.9,400.7 531.8,433.8L525.5,441.2L525.2,433.9C524.9,427.8 525.2,426.3 526.6,425.5C532.8,421.8 534.8,420 536.8,416C539.5,410.6 539.6,406.8 537.1,401.4C534.4,395.5 529.9,392.7 522.5,392.2C517.5,391.9 516,392.2 513.1,394.2C507.8,397.8 505.7,401.3 505.2,407.4C504.7,413.9 507.2,419.3 512.5,422.8L516,425L516,437.8L515.9,450.5L510.3,455C507.2,457.5 502.8,460.9 500.6,462.5L496.5,465.5L498.3,462.8C499.8,460.3 500,456.7 500,424.5L500,389L491,389L491,456.9L481.8,468C471.8,480.2 470.3,481.2 454,487.3C433.4,495 417.1,498 392.8,498.7L374,499.3L374,494.1ZM412,493.8C427.8,485.8 421.1,460.9 403.5,462.3C400.8,462.6 397.8,463 396.9,463.4C395.8,463.9 394.5,463 392.6,460.6L389.9,457L392.1,454C395.3,449.8 395.8,440.8 393.2,436C389.6,429.5 382,426 374.3,427.5C369,428.5 362.4,435.4 361.5,440.9C359.8,451.1 368,460.9 378.2,461C381,461.1 382.1,461.8 385.2,466.1C388.4,470.6 388.7,471.5 387.8,474.2C385.3,481.2 389.4,490.5 396.5,494C401.7,496.6 406.5,496.5 412,493.8ZM479,448L479,403L434,403L434,448L479,448ZM514.2,382.9C526.7,379.4 536.4,373.7 546.1,364.1C558.2,352 564.2,341.1 567.4,325.7C572.5,301.1 565.1,277.1 547,259C537.4,249.4 530.6,245 518.7,240.7C511.8,238.2 508.6,237.7 498,237.3C482.1,236.7 473.8,238.3 461,244.6C452.9,248.6 450.1,250.7 442,258.9C431.5,269.4 427,276.8 422.8,290C419.5,300.8 419.5,321.1 422.8,332C435.1,371.4 475.1,393.7 514.2,382.9Z" style="fill:rgb(224,224,224);fill-rule:nonzero;"/>
                <path d="M398.9,484.1C397.3,482.5 396,480.2 396,479C396,476.5 401.1,471 403.5,471C404.4,471 406.4,471.7 408,472.5C413.2,475.2 412.8,484 407.5,486C403.4,487.5 402.1,487.2 398.9,484.1Z" style="fill:rgb(224,224,224);fill-rule:nonzero;"/>
                <path d="M373.4,449.7C369.6,446.4 369.7,441.6 373.5,438.2C381,431.8 390.5,442.6 383.5,449.5C380.5,452.6 376.9,452.7 373.4,449.7Z" style="fill:rgb(224,224,224);fill-rule:nonzero;"/>
                <path d="M156,444.8C153.4,442 153.4,436.6 156,434C160.6,429.4 169,433.1 169,439.6C169,446 160.4,449.5 156,444.8Z" style="fill:rgb(224,224,224);fill-rule:nonzero;"/>
                <path d="M625.7,441.8C623,439.7 622.1,435.8 623.5,432.4C626.7,424.8 638,427.6 638,435.9C638,441.6 630.3,445.2 625.7,441.8Z" style="fill:rgb(224,224,224);fill-rule:nonzero;"/>
                <path d="M249.3,426C244.4,424 243.4,416.4 247.6,413.1C249.1,411.9 251.3,411 252.5,411C256.3,411 260,414.7 260,418.5C260,424.3 254.5,428.2 249.3,426Z" style="fill:rgb(224,224,224);fill-rule:nonzero;"/>
                <path d="M230.2,417.8C218.7,401.6 210.8,386.2 205.2,369C201.9,358.7 198.9,347.8 199.4,347.3C199.5,347.1 208.7,360.5 219.8,377.1L239.9,407.1L238,410.3C235.5,414.7 234.8,418.9 235.9,422.8C236.4,424.5 236.7,426 236.5,426C236.3,426 233.5,422.3 230.2,417.8Z" style="fill:rgb(224,224,224);fill-rule:nonzero;"/>
                <path d="M342.9,424.1C341.2,422.8 340.6,421.2 340.6,418.5C340.6,413.9 343.7,411 348.5,411C352.3,411 356,414.7 356,418.5C356,419.7 355.1,421.9 353.9,423.4C351.4,426.6 346.4,426.9 342.9,424.1Z" style="fill:rgb(224,224,224);fill-rule:nonzero;"/>
                <path d="M516.1,413.4C513.3,409.9 513.5,406.5 516.5,403.5C520.4,399.5 526.1,400.3 528.6,405.2C531.4,410.5 528,416 521.9,416C519,416 517.7,415.4 516.1,413.4Z" style="fill:rgb(224,224,224);fill-rule:nonzero;"/>
                <path d="M310.2,406.7C307.4,403.8 307.4,400 310.1,396.6C313.7,392 320.9,393.4 322.9,399C325.6,406.9 315.9,412.8 310.2,406.7Z" style="fill:rgb(224,224,224);fill-rule:nonzero;"/>
                <path d="M130.6,400.9C125.1,396.6 128.4,387.6 135.5,387.6C140.1,387.6 143,390.7 143,395.5C143,399.3 139.3,403 135.5,403C134.3,403 132.1,402.1 130.6,400.9Z" style="fill:rgb(224,224,224);fill-rule:nonzero;"/>
                <path d="M130.2,305.7C125.5,300.7 128.7,293 135.3,293C139.7,293 143,296.1 143,300.4C143,307.1 134.7,310.5 130.2,305.7Z" style="fill:rgb(224,224,224);fill-rule:nonzero;"/>
                <path d="M639,277C634.6,272.6 636,266.1 641.7,263.9C644.9,262.7 649.6,264.3 651,267.1C655.1,274.6 645,283 639,277Z" style="fill:rgb(224,224,224);fill-rule:nonzero;"/>
                <path d="M382.2,234.8C366.5,215.1 347.3,201.7 323,193.6C306.3,188 296.4,186.7 276,187.3C258,187.9 248.4,189.5 235.6,193.9C232,195.2 230.1,195.5 230.7,194.7C237.2,186.1 245.8,176.5 255,167.6L266.2,156.7L271.2,162.3L276.2,168L466.7,168L469.1,171.7C473.1,177.8 476.3,179.5 483.5,179.5C490.6,179.5 493.8,177.8 497.8,172C500.4,168 500.8,159.5 498.5,155C496.4,150.9 490.7,146.9 486.3,146.3C478.5,145.3 472,148.8 467.5,156.4C466.6,157.9 459.8,158.1 374.5,158.1C323.9,158 281.8,158 281,158C280.2,158 278.3,156.4 276.7,154.5L274,151.1L279.7,147.2C314.8,123.5 360.5,111.4 401.6,114.9C450.4,119.1 492.7,139 526,173.6C534.4,182.4 544,193.8 544,195.2C544,195.4 541,194.6 537.3,193.4C524.4,189.1 516,187.8 497.5,187.3C481.7,186.9 478.2,187.1 469,189C436.3,195.6 411.2,210.7 392.6,234.8C389.9,238.2 387.6,241 387.4,241C387.3,241 384.9,238.2 382.2,234.8ZM409.5,213.5L409.5,172L389.017,171.7L367,171.7L367,191.602C367,203.102 366.6,213.1 367,213.5C367.4,213.8 377.717,213.6 389.017,213.5L409.5,213.5ZM358.2,153C362.9,151.7 367.4,147.9 369,144L370.2,141L404,141L404.6,143.5C406.2,149.8 416.7,155 424,153C439.4,148.8 441.7,128.6 427.6,121.3C423.8,119.3 416.2,119.3 412.2,121.4C409,123 404,128.8 404,130.8C404,131.7 399.2,132 387.2,132L370.5,132L368.5,128.4C362.1,116.4 344.8,116.9 338.4,129.2C336.8,132.3 336.5,139.7 337.9,143.3C339.7,148.1 347.7,153.7 353,153.9C353.8,154 356.2,153.5 358.2,153Z" style="fill:rgb(224,224,224);fill-rule:nonzero;"/>
                <g transform="matrix(0.97131,0,0,0.934307,11.5477,12.9925)">
                    <rect x="374.108" y="178.417" width="28.392" height="27.899" style="fill:rgb(224,224,224);"/>
                </g>
                <path d="M348.2,141.7C342.3,135.4 349.3,126.5 357.5,129.6C360.2,130.7 362,135.8 360.8,139.2C359,144.4 352,145.8 348.2,141.7Z" style="fill:rgb(224,224,224);fill-rule:nonzero;"/>
                <path d="M414,141.3C408.1,133.7 418.7,124.6 425.5,131.5C428.5,134.5 428.7,137.9 425.9,141.4C423,145.1 417,145.1 414,141.3Z" style="fill:rgb(224,224,224);fill-rule:nonzero;"/>
                <path d="M142.9,208.1C140,205.8 139.8,200 142.5,197C145.3,193.9 151.3,194.3 153.9,197.6C156.7,201.1 156.5,204.5 153.5,207.5C150.6,210.5 146.2,210.8 142.9,208.1Z" style="fill:rgb(224,224,224);fill-rule:nonzero;"/>
                <path d="M478.6,168.9C476.6,167.3 476,166 476,163.1C476,158.3 478.8,155.6 483.7,155.6C490.5,155.6 493.5,163.6 488.5,168.5C485.5,171.5 482.1,171.7 478.6,168.9Z" style="fill:rgb(224,224,224);fill-rule:nonzero;"/>
                <path d="M217,107C215.8,105.8 215,103.7 215,101.5C215,97 217.9,94 222.3,94C229.1,94 232.6,102.3 227.7,106.8C224.7,109.6 219.7,109.7 217,107Z" style="fill:rgb(224,224,224);fill-rule:nonzero;"/>
                <path d="M514.6,87.9C509.4,83.8 512.8,74 519.5,74C523.1,74 527,78.2 527,82C527,85.8 523.1,90 519.7,90C518.4,90 516.1,89.1 514.6,87.9Z" style="fill:rgb(224,224,224);fill-rule:nonzero;"/>
                <path d="M255.7,86.8C253,84.7 252.1,80.8 253.5,77.4C254.9,74 256.7,73 261,73C264.3,73 268,77 268,80.5C268,84.2 264.3,88 260.6,88C258.8,88 256.6,87.4 255.7,86.8Z" style="fill:rgb(224,224,224);fill-rule:nonzero;"/>
                <g transform="matrix(0.954751,0,0,0.888,20.4451,47.3194)">
                    <rect x="442.435" y="409.071" width="28.803" height="32.583" style="fill:rgb(224,224,224);"/>
                </g>
            </g>
        </g>
    </g>
</svg>
