<?xml version="1.0" encoding="UTF-8" standalone="no"?>
<!DOCTYPE svg PUBLIC "-//W3C//DTD SVG 1.1//EN" "http://www.w3.org/Graphics/SVG/1.1/DTD/svg11.dtd">
<svg width="100%" height="100%" viewBox="0 0 1920 900" version="1.1" xmlns="http://www.w3.org/2000/svg" xmlns:xlink="http://www.w3.org/1999/xlink" xml:space="preserve" xmlns:serif="http://www.serif.com/" style="fill-rule:evenodd;clip-rule:evenodd;stroke-linejoin:round;stroke-miterlimit:2;">
    <g transform="matrix(-1.82316,0.00143544,-0.00133441,-1.69484,1884.51,1774.04)">
        <path d="M600.557,577.789L619.063,577.803L619.097,531.655L654.251,531.383L654.217,577.83L693.4,577.86L693.419,551.308L706.902,551.319L706.929,513.527L727.872,513.545L727.845,551.337L741.391,551.349L741.372,577.897L760.938,577.912L760.897,634.67L800.084,634.703L800.112,596.497L823.079,596.515L823.013,686.988L857.493,686.991L857.572,577.986L871.066,577.996L871.029,628.541L912.243,628.575L912.261,602.969L924.423,602.979L924.451,564.649L944.038,565.156L944.01,602.996L954.808,603.005L954.766,660.911L999.38,660.948L999.44,578.095L1078.32,578.155L1078.28,638.506L1098.43,638.506L1098.43,617.878L1132.28,617.878L1132.28,342.492L181.473,342.492L-39.836,464.061L-122.389,464.061L-174.861,481.232L-174.861,530.983L-103.426,530.983L-103.426,550.648L-85.83,550.648L-85.83,530.983L-39.836,530.983L-39.836,564.323L-11.822,564.323L-11.822,530.983L19.186,530.983L19.186,595.959L59.823,595.959L59.823,530.983L80.623,530.983L80.623,564.323L103.204,564.323L103.204,611.214L118.193,611.214L118.193,564.323L137.191,564.323L137.191,595.959L164.483,595.959L164.483,530.983L181.473,530.983L181.473,611.214L197.448,611.214L197.448,540.356L207.906,540.356L207.906,628.071L228.29,628.071L229.007,602.421L265.662,602.421L265.662,564.323L283.868,564.323L283.868,628.071L316.609,628.071L316.609,645.074L329.803,645.074L329.803,686.57L360.807,686.57L360.807,585.551L392.009,585.551L392.009,709.629L420.112,709.629L420.112,634.381L441.768,634.381L441.768,668.374L462.993,668.374L462.993,651.872L480.316,652.43L480.316,577.789L510.416,577.789L510.416,564.323L539.51,564.323L539.51,668.374L578.767,668.374L578.767,693.952L600.557,693.952L600.557,577.789Z" style="fill:white;fill-opacity:0.5;"/>
        <g transform="matrix(-1.40977,-0.001194,0.00110996,-1.51651,108.179,694.222)">
            <path d="M0,-10.394L-7.433,-10.394C-6.07,-1.316 2.85,0 2.85,0C-0.947,-3.497 -0.202,-8.789 0,-10.394" style="fill:white;fill-opacity:0.45;fill-rule:nonzero;"/>
        </g>
        <g transform="matrix(-1.40977,-0.001194,0.00110996,-1.51651,140.8,671.596)">
            <path d="M0,-12.244C-1.653,-14.062 -3.602,-14.969 -5.851,-14.969L-16.824,-14.969L-16.824,2.725L-5.851,2.725C-3.602,2.725 -1.653,1.816 0,-0.002C1.631,-1.796 2.455,-3.783 2.478,-6.123C2.455,-8.463 1.631,-10.451 0,-12.244M-5.075,-3.214C-5.941,-2.451 -7.116,-2.073 -8.603,-2.073L-10.902,-2.073L-10.902,-10.175L-8.603,-10.175C-7.116,-10.175 -5.941,-9.794 -5.075,-9.032C-4.234,-8.292 -3.803,-7.273 -3.78,-6.123C-3.803,-4.971 -4.234,-3.954 -5.075,-3.214" style="fill:white;fill-opacity:0.45;fill-rule:nonzero;"/>
        </g>
        <g transform="matrix(-1.40977,-0.001194,0.00110996,-1.51651,113.726,669.015)">
            <path d="M0,-15.798C-2.774,-17.183 -5.084,-17.261 -7.475,-17.123C-8.875,-17.04 -10.673,-16.737 -12.549,-16.128C-12.881,-16.017 -13.217,-15.897 -13.553,-15.764C-13.349,-15.148 -13.045,-14.609 -12.503,-14.086C-12.483,-14.069 -12.465,-14.046 -12.444,-14.027C-10.857,-12.575 -7.488,-13.264 -5.056,-12.903C-2.628,-12.541 -2.205,-10.238 -2.205,-10.238C-3.517,-10.952 -5.1,-11.372 -6.807,-11.372C-11.288,-11.372 -14.937,-8.494 -14.937,-4.958C-14.937,-1.533 -11.51,1.283 -7.224,1.438C-6.583,1.463 -5.449,1.429 -3.941,1.077C1.603,-0.221 4.028,1.104 4.028,1.104L4.028,-8.388C4.028,-13.027 2.273,-14.663 0,-15.798M-5.348,-2.205C-7.265,-2.205 -8.82,-3.422 -8.82,-4.926C-8.82,-6.426 -7.265,-7.643 -5.348,-7.643C-3.43,-7.643 -1.877,-6.426 -1.877,-4.926C-1.877,-3.422 -3.43,-2.205 -5.348,-2.205" style="fill:white;fill-opacity:0.45;fill-rule:nonzero;"/>
        </g>
        <g transform="matrix(-1.40977,-0.001194,0.00110996,-1.51651,53.6002,668.964)">
            <path d="M0,-15.798C-2.777,-17.183 -5.086,-17.261 -7.478,-17.123C-8.876,-17.04 -10.678,-16.737 -12.547,-16.128C-12.881,-16.017 -13.22,-15.897 -13.555,-15.764C-13.352,-15.148 -13.046,-14.609 -12.505,-14.086C-12.483,-14.069 -12.466,-14.046 -12.446,-14.027C-10.857,-12.575 -7.491,-13.264 -5.06,-12.903C-2.628,-12.541 -2.205,-10.238 -2.205,-10.238C-3.518,-10.952 -5.101,-11.372 -6.809,-11.372C-11.289,-11.372 -14.936,-8.494 -14.936,-4.958C-14.936,-1.533 -11.514,1.283 -7.228,1.438C-6.583,1.463 -5.449,1.429 -3.943,1.077C1.601,-0.221 4.027,1.104 4.027,1.104L4.027,-8.388C4.027,-13.027 2.271,-14.663 0,-15.798M-5.349,-2.205C-7.265,-2.205 -8.82,-3.422 -8.82,-4.926C-8.82,-6.426 -7.265,-7.643 -5.349,-7.643C-3.432,-7.643 -1.877,-6.426 -1.877,-4.926C-1.877,-3.422 -3.432,-2.205 -5.349,-2.205" style="fill:white;fill-opacity:0.45;fill-rule:nonzero;"/>
        </g>
        <g transform="matrix(-1.40977,-0.001194,0.00110996,-1.51651,77.7199,677.342)">
            <path d="M0,-4.724C0,-7.094 -0.703,-8.626 -2.023,-9.755C-3.284,-10.834 -4.889,-11.274 -6.584,-11.274C-8.124,-11.274 -9.319,-10.946 -10.28,-10.584C-15.282,-8.698 -18.197,-10.655 -18.197,-10.655L-18.197,6.55L-12.178,6.55L-12.178,-5.097C-12.178,-5.097 -11.028,-6.304 -9.105,-6.364C-7.178,-6.425 -6.011,-5.264 -6.011,-2.62L-6.016,6.55L0,6.55L0,-4.724Z" style="fill:white;fill-opacity:0.45;fill-rule:nonzero;"/>
        </g>
        <g transform="matrix(-1.40977,-0.001194,0.00110996,-1.51651,15.5705,665.667)">
            <path d="M0,-15.225L8.863,-15.225C7.501,-1.889 -4.174,0 -4.174,0C1.382,-5.124 0.292,-12.87 0,-15.225" style="fill:white;fill-opacity:0.45;fill-rule:nonzero;"/>
        </g>
        <g transform="matrix(-0.00110996,1.51651,1.40977,0.001194,9.29568,702.428)">
            <path d="M-3.028,-3.03C-4.702,-3.03 -6.057,-1.675 -6.057,-0.001C-6.057,1.671 -4.702,3.028 -3.028,3.028C-1.354,3.028 -0.001,1.671 -0.001,-0.001C-0.001,-1.675 -1.354,-3.03 -3.028,-3.03" style="fill:white;fill-opacity:0.45;fill-rule:nonzero;"/>
        </g>
        <g transform="matrix(-1.40977,-0.001194,0.00110996,-1.51651,366.728,1144.36)">
            <rect x="231.981" y="303.634" width="10.849" height="3.726" style="fill:white;fill-opacity:0.45;"/>
        </g>
    </g>
    <g transform="matrix(1,0,0,1,-3.00963,-267.857)">
        <g transform="matrix(3.51445,0.0946446,-0.0946446,3.51445,-307.49,-444.97)">
            <circle cx="317.78" cy="283.955" r="3.556"/>
        </g>
        <g transform="matrix(3.51445,0.0946446,-0.0946446,3.51445,-387.554,-464.986)">
            <circle cx="317.78" cy="283.955" r="3.556"/>
        </g>
        <g transform="matrix(3.51445,0.0946446,-0.0946446,3.51445,-469.158,-481.923)">
            <circle cx="317.78" cy="283.955" r="3.556"/>
        </g>
        <g transform="matrix(3.51445,0.0946446,-0.0946446,3.51445,-535.365,-521.955)">
            <circle cx="317.78" cy="283.955" r="3.556"/>
        </g>
        <g transform="matrix(3.51445,0.0946446,-0.0946446,3.51445,-615.429,-549.67)">
            <circle cx="317.78" cy="283.955" r="3.556"/>
        </g>
        <g transform="matrix(3.51445,0.0946446,-0.0946446,3.51445,-693.953,-563.527)">
            <circle cx="317.78" cy="283.955" r="3.556"/>
        </g>
        <g transform="matrix(3.51445,0.0946446,-0.0946446,3.51445,-777.097,-551.209)">
            <circle cx="317.78" cy="283.955" r="3.556"/>
        </g>
        <g transform="matrix(3.51445,0.0946446,-0.0946446,3.51445,-849.463,-529.654)">
            <circle cx="317.78" cy="283.955" r="3.556"/>
        </g>
        <g transform="matrix(3.51445,0.0946446,-0.0946446,3.51445,-923.368,-497.32)">
            <circle cx="317.78" cy="283.955" r="3.556"/>
        </g>
        <g transform="matrix(3.51445,0.0946446,-0.0946446,3.51445,-1003.43,-472.685)">
            <circle cx="317.78" cy="283.955" r="3.556"/>
        </g>
        <g transform="matrix(3.51445,0.0946446,-0.0946446,3.51445,-302.938,-450.454)">
            <circle cx="344.257" cy="283.955" r="3.556"/>
        </g>
        <g transform="matrix(3.51445,0.0946446,-0.0946446,3.51445,-303.476,-471.388)">
            <circle cx="370.737" cy="280.786" r="3.556"/>
        </g>
        <g transform="matrix(3.51445,0.0946446,-0.0946446,3.51445,-303.476,-471.388)">
            <circle cx="397.218" cy="271.621" r="3.556"/>
        </g>
        <g transform="matrix(3.51445,0.0946446,-0.0946446,3.51445,-303.476,-471.388)">
            <circle cx="423.684" cy="268.673" r="3.556"/>
        </g>
        <g transform="matrix(3.51445,0.0946446,-0.0946446,3.51445,-303.476,-471.388)">
            <circle cx="450.172" cy="260.125" r="3.556"/>
        </g>
        <g transform="matrix(3.51445,0.0946446,-0.0946446,3.51445,-303.476,-471.388)">
            <circle cx="476.641" cy="251.987" r="3.556"/>
        </g>
        <g transform="matrix(3.51445,0.0946446,-0.0946446,3.51445,-303.476,-471.388)">
            <circle cx="503.13" cy="246.77" r="3.556"/>
        </g>
        <g transform="matrix(3.51445,0.0946446,-0.0946446,3.51445,-303.476,-471.388)">
            <circle cx="529.614" cy="246.77" r="3.556"/>
        </g>
        <g transform="matrix(3.51445,0.0946446,-0.0946446,3.51445,-303.476,-471.388)">
            <circle cx="556.088" cy="249.358" r="3.556"/>
        </g>
        <g transform="matrix(3.51445,0.0946446,-0.0946446,3.51445,-233.49,-437.132)">
            <circle cx="556.088" cy="249.358" r="3.556"/>
        </g>
        <g transform="matrix(3.51445,0.0946446,-0.0946446,3.51445,-172.87,-398.504)">
            <circle cx="556.088" cy="249.358" r="3.556"/>
        </g>
        <g transform="matrix(3.51445,0.0946446,-0.0946446,3.51445,-110.42,-370.617)">
            <circle cx="556.088" cy="249.358" r="3.556"/>
        </g>
        <g transform="matrix(3.51445,0.0946446,-0.0946446,3.51445,-39.3558,-376.411)">
            <circle cx="556.088" cy="249.358" r="3.556"/>
        </g>
        <g transform="matrix(2.1049,0,0,2.1049,1562.72,612.5)">
            <path d="M133.073,29.026C133.073,29.026 98.382,-17.026 16.099,24.863C16.099,24.863 95.448,-28.387 133.073,29.026Z" style="fill:url(#_Linear1);"/>
        </g>
        <g transform="matrix(2.1049,0,0,2.1049,1562.72,612.5)">
            <path d="M141.278,28.108L141.289,28.039C150.387,27.835 156.541,27.453 156.541,26.999C156.541,26.537 149.846,26.129 140.106,25.936C137.039,25.212 137.112,21.923 138.667,18.906C142.332,9.653 144.646,2.937 144.185,2.737C143.734,2.54 140.93,8.215 137.285,16.501L137.26,16.486C137.25,16.544 137.222,16.595 137.216,16.652C136.604,18.024 135.979,19.478 135.334,20.986C134.21,22.474 133.198,21.996 132.392,20.937C127.493,9.267 123.342,0.465 122.788,0.693C122.246,0.911 125.224,9.4 129.67,20.469C130.768,24.44 129.477,25.889 127.012,26.04C111.492,26.054 99.072,26.603 99.072,27.053C99.072,27.492 110.879,28.033 125.847,28.054C131.336,28.203 130.746,31.74 130.367,32.946C130.297,33.125 130.231,33.298 130.156,33.467C130.139,33.51 130.125,33.532 130.125,33.532L130.128,33.538C126.168,43.44 123.611,50.763 124.1,50.97C124.629,51.184 128.483,43.166 133.141,32.28C133.767,31.648 134.327,32.064 134.756,32.697C138.895,42.339 142.196,49.196 142.685,48.991C143.138,48.803 141.015,42.532 137.597,33.774C136.2,28.357 141.278,28.108 141.278,28.108Z" style="fill:white;fill-opacity:0.76;fill-rule:nonzero;"/>
        </g>
        <g transform="matrix(2.1049,0,0,2.1049,1562.72,612.5)">
            <path d="M0,79.215L3.516,77.101C6,81.672 8.869,83.953 12.133,83.953C13.525,83.953 14.833,83.63 16.057,82.987C17.274,82.346 18.219,81.483 18.856,80.403C19.491,79.323 19.812,78.177 19.812,76.964C19.812,75.586 19.342,74.238 18.398,72.914C17.101,71.077 14.729,68.858 11.284,66.273C7.813,63.664 5.663,61.776 4.813,60.613C3.341,58.661 2.608,56.555 2.608,54.288C2.608,52.485 3.04,50.848 3.901,49.37C4.771,47.882 5.989,46.718 7.561,45.863C9.139,45.009 10.847,44.585 12.692,44.585C14.643,44.585 16.478,45.069 18.187,46.037C19.891,47.013 21.699,48.787 23.598,51.388L20.218,53.952C18.65,51.896 17.316,50.543 16.225,49.883C15.128,49.237 13.922,48.912 12.633,48.912C10.952,48.912 9.585,49.409 8.526,50.421C7.459,51.429 6.927,52.668 6.927,54.152C6.927,55.049 7.118,55.917 7.498,56.753C7.867,57.599 8.558,58.513 9.553,59.505C10.103,60.029 11.885,61.405 14.918,63.624C18.515,66.264 20.982,68.61 22.311,70.671C23.651,72.736 24.315,74.809 24.315,76.879C24.315,79.88 23.171,82.48 20.882,84.693C18.599,86.898 15.809,88 12.533,88C10.02,88 7.724,87.327 5.671,85.979C3.621,84.64 1.723,82.383 0,79.215Z" style="fill:white;fill-opacity:0.44;fill-rule:nonzero;"/>
        </g>
        <g transform="matrix(2.1049,0,0,2.1049,1562.72,612.5)">
            <path d="M52.904,48.64C49.856,48.64 46.965,49.436 44.245,51.021C41.518,52.611 39.382,54.756 37.853,57.45C36.324,60.149 35.552,63.154 35.552,66.467C35.552,71.366 37.246,75.503 40.637,78.887C44.034,82.265 48.12,83.953 52.904,83.953C56.096,83.953 59.054,83.173 61.776,81.618C64.496,80.067 66.611,77.944 68.134,75.251C69.664,72.555 70.418,69.56 70.418,66.264C70.418,62.995 69.664,60.029 68.134,57.38C66.611,54.729 64.47,52.611 61.701,51.021C58.938,49.436 56.005,48.64 52.904,48.64ZM52.72,44.585C58.976,44.585 64.205,46.671 68.424,50.853C72.627,55.029 74.744,60.173 74.744,66.277C74.744,72.328 72.644,77.461 68.44,81.683C64.232,85.895 59.106,88 53.063,88C46.935,88 41.765,85.906 37.552,81.709C33.333,77.514 31.229,72.431 31.229,66.478C31.229,62.503 32.189,58.83 34.108,55.429C36.034,52.043 38.644,49.379 41.961,47.469C45.273,45.542 48.865,44.585 52.72,44.585Z" style="fill:white;fill-opacity:0.44;fill-rule:nonzero;"/>
        </g>
        <g transform="matrix(2.1049,0,0,2.1049,1562.72,612.5)">
            <path d="M103.016,48.64C99.962,48.64 97.079,49.436 94.352,51.021C91.626,52.611 89.495,54.756 87.959,57.45C86.431,60.149 85.666,63.154 85.666,66.467C85.666,71.366 87.365,75.503 90.755,78.887C94.14,82.265 98.233,83.953 103.016,83.953C106.213,83.953 109.161,83.173 111.888,81.618C114.603,80.067 116.723,77.944 118.243,75.251C119.772,72.555 120.536,69.56 120.536,66.264C120.536,62.995 119.772,60.029 118.243,57.38C116.723,54.729 114.578,52.611 111.815,51.021C109.046,49.436 106.118,48.64 103.016,48.64ZM102.831,44.585C109.082,44.585 114.323,46.671 118.532,50.853C122.745,55.029 124.855,60.173 124.855,66.277C124.855,72.328 122.745,77.461 118.552,81.683C114.348,85.895 109.218,88 103.17,88C97.046,88 91.877,85.906 87.66,81.709C83.451,77.514 81.34,72.431 81.34,66.478C81.34,62.503 82.3,58.83 84.22,55.429C86.145,52.043 88.762,49.379 92.073,47.469C95.386,45.542 98.966,44.585 102.831,44.585Z" style="fill:white;fill-opacity:0.44;fill-rule:nonzero;"/>
        </g>
        <g transform="matrix(2.1049,0,0,2.1049,1562.72,612.5)">
            <path d="M146.199,45.573L150.338,45.573L150.338,82.958L166.374,82.958L166.374,87.013L146.199,87.013L146.199,45.573Z" style="fill:white;fill-opacity:0.44;fill-rule:nonzero;"/>
        </g>
        <g transform="matrix(2.1049,0,0,2.1049,1562.72,612.5)">
            <path d="M138.771,84.799L135.988,87.365C134.991,86.75 134.2,86.047 133.62,85.252C133.04,84.458 132.75,83.494 132.75,82.368L132.75,45.212L136.707,45.212L136.707,80.966C136.707,81.914 136.874,82.665 137.196,83.209C137.527,83.76 138.054,84.291 138.771,84.799Z" style="fill:white;fill-opacity:0.44;fill-rule:nonzero;"/>
        </g>
    </g>
    <defs>
        <linearGradient id="_Linear1" x1="0" y1="0" x2="1" y2="0" gradientUnits="userSpaceOnUse" gradientTransform="matrix(116.177,-7.76609,7.76609,116.177,16.5845,21.7417)"><stop offset="0" style="stop-color:white;stop-opacity:0"/><stop offset="0.8" style="stop-color:white;stop-opacity:0.8"/><stop offset="1" style="stop-color:white;stop-opacity:0.8"/></linearGradient>
    </defs>
</svg>
