<?xml version="1.0" encoding="UTF-8" standalone="no"?>
<!DOCTYPE svg PUBLIC "-//W3C//DTD SVG 1.1//EN" "http://www.w3.org/Graphics/SVG/1.1/DTD/svg11.dtd">
<svg width="100%" height="100%" viewBox="0 0 1920 900" version="1.1" xmlns="http://www.w3.org/2000/svg" xmlns:xlink="http://www.w3.org/1999/xlink" xml:space="preserve" xmlns:serif="http://www.serif.com/" style="fill-rule:evenodd;clip-rule:evenodd;stroke-linejoin:round;stroke-miterlimit:2;">
    <g transform="matrix(-1.82316,0.00143544,-0.00133441,-1.69484,1884.51,1774.04)">
        <path d="M600.557,577.789L619.063,577.803L619.097,531.655L654.251,531.383L654.217,577.83L693.4,577.86L693.419,551.308L706.902,551.319L706.929,513.527L727.872,513.545L727.845,551.337L741.391,551.349L741.372,577.897L760.938,577.912L760.897,634.67L800.084,634.703L800.112,596.497L823.079,596.515L823.048,638.299L857.528,638.302L857.572,577.986L871.066,577.996L871.029,628.541L912.243,628.575L912.261,602.969L924.423,602.979L924.451,564.649L944.038,565.156L944.01,602.996L954.808,603.005L954.789,628.704L999.403,628.741L999.44,578.095L1078.32,578.155L1078.28,638.506L1098.43,638.506L1098.43,617.878L1132.28,617.878L1132.28,342.492L181.473,342.492L-39.836,464.061L-122.389,464.061L-174.861,481.232L-174.861,530.983L-103.426,530.983L-103.426,550.648L-85.83,550.648L-85.83,530.983L-39.836,530.983L-39.836,564.323L-11.822,564.323L-11.822,530.983L19.186,530.983L19.186,595.959L59.823,595.959L59.823,530.983L80.623,530.983L80.623,564.323L103.204,564.323L103.204,611.214L118.193,611.214L118.193,564.323L137.191,564.323L137.191,595.959L164.483,595.959L164.483,530.983L181.473,530.983L181.473,611.214L197.448,611.214L197.448,540.356L207.906,540.356L207.906,628.071L228.29,628.071L229.007,602.421L265.662,602.421L265.662,564.323L283.868,564.323L283.868,628.071L316.609,628.071L316.609,645.074L329.803,645.074L329.803,686.57L360.807,686.57L360.807,585.551L392.009,585.551L392.009,709.629L420.112,709.629L420.112,634.381L441.768,634.381L441.768,668.374L462.993,668.374L462.993,651.872L480.316,652.43L480.316,577.789L510.416,577.789L510.416,564.323L539.51,564.323L539.51,668.374L578.767,668.374L578.767,693.952L600.557,693.952L600.557,577.789Z" style="fill-opacity:0.5;"/>
    </g>
    <g transform="matrix(1,0,0,1,-3.00963,-267.857)">
        <g transform="matrix(1.1297,0,0,1.1297,-78.3868,58.3661)">
            <g transform="matrix(1,0,0,1,3.00963,267.857)">
                <path d="M80,512L432,512L432,481.8L431.9,451.5L423,439.5C418,432.9 414,427.2 414,426.9C414,426.5 418.1,423.7 423,420.6L432,414.8L432,377.9C432,353.8 431.7,341 431,341C430.4,341 416.5,347.8 400,356L370,371L370,451L142,451L142,375L80,344L80,418.8L88,423.9C92.4,426.8 96,429.3 96,429.6C96,429.9 92.4,434.9 88,440.6L80,451.1L80,512Z" style="fill:white;fill-opacity:0.25;fill-rule:nonzero;"/>
            </g>
            <g transform="matrix(1,0,0,1,3.00963,267.857)">
                <path d="M433,0L82,0L82,121.9C82,255.5 81.8,251.8 88,270.2C91.1,279.3 96.9,291.6 102.6,301.2C105.2,305.5 112.4,316.2 118.2,323.2C122.437,328.351 130.166,337.395 140.019,346.958C153.885,360.414 171.406,375.279 184.5,385.1C207.2,402.2 250.4,429 255.3,429C256.9,429 268.6,422.7 283.5,413.7C313.1,395.9 344.2,372.3 366.9,350.5C382.138,339.343 415.753,294.652 418.9,281.9C424.7,269.8 427.4,262 430.3,249.5C432.5,240.2 432.7,222.9 433,13.3L433,0Z" style="fill:rgb(202,202,202);fill-opacity:0.5;fill-rule:nonzero;"/>
            </g>
            <g transform="matrix(1,0,0,1,3.00963,267.857)">
                <path d="M225.3,254.3C224.4,254 224,250.7 224,242.9L224,232L233,232L233,243C233,253.2 232.9,254 231.1,254C230,254 228.6,254.2 227.8,254.4C227.1,254.7 225.9,254.6 225.3,254.3Z" style="fill:white;fill-opacity:0.25;fill-rule:nonzero;"/>
            </g>
            <g transform="matrix(1,0,0,1,3.00963,267.857)">
                <path d="M211.3,226.3C210.9,225.3 210.6,203.7 210.8,178.3L211,132L288,132L288,228L250,228C214.8,228 212,227.9 211.3,226.3ZM255.9,212L261.1,203L270.3,202.9C275.4,202.8 280.3,202.8 281.3,202.9C283.8,203.2 283.4,201.5 279.3,194.1C272.4,181.8 272.7,183.2 276.2,177C277.9,174 280.4,169.6 281.7,167.3L284.1,163L261.2,163L255.8,153.5C252.9,148.3 250.1,144.1 249.6,144.3C249.1,144.5 246.3,148.6 243.5,153.6L238.3,162.5L227.2,162.8C221,162.9 216,163.4 216,163.8C216,164.3 217.4,166.7 219,169.3C220.7,171.9 222,174.4 222,174.8C222,175.2 222.9,176.6 224,178C225.1,179.4 226,181.3 226,182.3C226,183.2 223.8,187.9 221.1,192.7C218.3,197.5 216.3,201.7 216.6,202.2C216.9,202.6 221.8,203 227.5,203L238,203L240.3,206.8C241.6,208.8 244.2,212.9 246,215.8C247.7,218.6 249.6,221 250,221C250.4,221 253.1,217 255.9,212Z" style="fill:white;fill-opacity:0.25;fill-rule:nonzero;"/>
            </g>
            <g transform="matrix(1,0,0,1,3.00963,267.857)">
                <path d="M251.4,364L247.5,357L238.8,357C233.9,357 230,356.8 230,356.6C230,356.4 231.8,353 234,349.1C236.2,345.2 238,341.7 238,341.3C238,340.9 236.2,337.6 234,333.9C231.8,330.2 230,326.8 230,326.4C230,326 233.5,326 237.8,326.3C242,326.6 246,326.6 246.6,326.2C247.2,325.8 249.4,322.5 251.6,318.8C253.7,315 255.7,312 256,312C256.3,312 258.3,315.2 260.5,319C265,327 265.8,327.5 275.4,326.6C279,326.2 282,326.2 282,326.5C282,326.9 280.2,330.2 278,333.9C275.8,337.6 274,341 274,341.5C274,341.9 275.8,345.4 278,349.2C280.2,353.1 282,356.4 282,356.6C282,356.8 278,357 273.2,357L264.3,357L261.4,362.2C259.8,365.1 258.2,368.3 257.8,369.2C256.6,372.2 255.5,371.3 251.4,364Z" style="fill:white;fill-opacity:0.5;fill-rule:nonzero;"/>
            </g>
            <g transform="matrix(1,0,0,1,-118.483,113.732)">
                <path d="M251.4,364L247.5,357L238.8,357C233.9,357 230,356.8 230,356.6C230,356.4 231.8,353 234,349.1C236.2,345.2 238,341.7 238,341.3C238,340.9 236.2,337.6 234,333.9C231.8,330.2 230,326.8 230,326.4C230,326 233.5,326 237.8,326.3C242,326.6 246,326.6 246.6,326.2C247.2,325.8 249.4,322.5 251.6,318.8C253.7,315 255.7,312 256,312C256.3,312 258.3,315.2 260.5,319C265,327 265.8,327.5 275.4,326.6C279,326.2 282,326.2 282,326.5C282,326.9 280.2,330.2 278,333.9C275.8,337.6 274,341 274,341.5C274,341.9 275.8,345.4 278,349.2C280.2,353.1 282,356.4 282,356.6C282,356.8 278,357 273.2,357L264.3,357L261.4,362.2C259.8,365.1 258.2,368.3 257.8,369.2C256.6,372.2 255.5,371.3 251.4,364Z" style="fill:white;fill-opacity:0.5;fill-rule:nonzero;"/>
            </g>
            <g transform="matrix(1,0,0,1,125.005,113.732)">
                <path d="M251.4,364L247.5,357L238.8,357C233.9,357 230,356.8 230,356.6C230,356.4 231.8,353 234,349.1C236.2,345.2 238,341.7 238,341.3C238,340.9 236.2,337.6 234,333.9C231.8,330.2 230,326.8 230,326.4C230,326 233.5,326 237.8,326.3C242,326.6 246,326.6 246.6,326.2C247.2,325.8 249.4,322.5 251.6,318.8C253.7,315 255.7,312 256,312C256.3,312 258.3,315.2 260.5,319C265,327 265.8,327.5 275.4,326.6C279,326.2 282,326.2 282,326.5C282,326.9 280.2,330.2 278,333.9C275.8,337.6 274,341 274,341.5C274,341.9 275.8,345.4 278,349.2C280.2,353.1 282,356.4 282,356.6C282,356.8 278,357 273.2,357L264.3,357L261.4,362.2C259.8,365.1 258.2,368.3 257.8,369.2C256.6,372.2 255.5,371.3 251.4,364Z" style="fill:white;fill-opacity:0.5;fill-rule:nonzero;"/>
            </g>
            <g transform="matrix(1,0,0,1,2.00556,-18.8063)">
                <path d="M251.4,364L247.5,357L238.8,357C233.9,357 230,356.8 230,356.6C230,356.4 231.8,353 234,349.1C236.2,345.2 238,341.7 238,341.3C238,340.9 236.2,337.6 234,333.9C231.8,330.2 230,326.8 230,326.4C230,326 233.5,326 237.8,326.3C242,326.6 246,326.6 246.6,326.2C247.2,325.8 249.4,322.5 251.6,318.8C253.7,315 255.7,312 256,312C256.3,312 258.3,315.2 260.5,319C265,327 265.8,327.5 275.4,326.6C279,326.2 282,326.2 282,326.5C282,326.9 280.2,330.2 278,333.9C275.8,337.6 274,341 274,341.5C274,341.9 275.8,345.4 278,349.2C280.2,353.1 282,356.4 282,356.6C282,356.8 278,357 273.2,357L264.3,357L261.4,362.2C259.8,365.1 258.2,368.3 257.8,369.2C256.6,372.2 255.5,371.3 251.4,364Z" style="fill:white;fill-opacity:0.5;fill-rule:nonzero;"/>
            </g>
            <g transform="matrix(1,0,0,1,-3.01482,108.711)">
                <path d="M251.4,364L247.5,357L238.8,357C233.9,357 230,356.8 230,356.6C230,356.4 231.8,353 234,349.1C236.2,345.2 238,341.7 238,341.3C238,340.9 236.2,337.6 234,333.9C231.8,330.2 230,326.8 230,326.4C230,326 233.5,326 237.8,326.3C242,326.6 246,326.6 246.6,326.2C247.2,325.8 249.4,322.5 251.6,318.8C253.7,315 255.7,312 256,312C256.3,312 258.3,315.2 260.5,319C265,327 265.8,327.5 275.4,326.6C279,326.2 282,326.2 282,326.5C282,326.9 280.2,330.2 278,333.9C275.8,337.6 274,341 274,341.5C274,341.9 275.8,345.4 278,349.2C280.2,353.1 282,356.4 282,356.6C282,356.8 278,357 273.2,357L264.3,357L261.4,362.2C259.8,365.1 258.2,368.3 257.8,369.2C256.6,372.2 255.5,371.3 251.4,364Z" style="fill:white;fill-opacity:0.5;fill-rule:nonzero;"/>
            </g>
            <g transform="matrix(1,0,0,1,3.00963,267.857)">
                <path d="M144.4,343.8C128.8,328 122.2,320.3 113.6,308.1C108.4,300.8 107.9,299.7 109.2,298.2C111.6,295.4 154.6,247.2 162.9,238C187.1,211.2 203,193.1 203,192.2C203,191.3 199.7,187.4 169.5,153.5C105.3,81.2 90.2,64.1 88.3,61.7C86.2,59 86.2,58.2 86.3,32.2L86.5,5.5L114.5,5.2L142.5,5L155,19.2C161.9,27.1 171.6,38 176.5,43.5C181.5,49 188.9,57.3 193,62C197,66.7 206.9,77.9 215,87C244.4,120 250,126.4 250,127.2C250,127.6 240.2,128.1 228.3,128.2L206.5,128.5L206.5,180L206.4,231.5L212.7,238.1C218.9,244.6 219,244.8 219,250.2C219,259.1 218.9,259 229.1,259L237.9,259L238.2,253.3L238.5,247.5L273.3,247.2L308,247L308,142.6L292.8,128L277.3,128C267.4,128 262,127.6 262.2,127C262.4,126.5 287,98.8 317,65.5L371.5,5L428,5L428,58.5L422.2,65.1C414.7,73.7 360.3,134.4 352,143.5C335.9,161.1 309.5,191.2 309.5,192C309.5,193 329.3,215.6 381.4,274.3C393,287.4 402.7,298.5 402.8,299C402.875,299.225 402.613,299.886 402.102,300.835C401.252,302.417 399.712,304.8 397.9,307.3C388.1,320.7 378.5,331.4 358.7,350.8L351.3,358.2L335.3,340.3C326.6,330.5 314.6,317.1 308.8,310.5C298.3,298.5 287.2,286.1 267.2,263.8C261.5,257.3 256.4,252 256,252C255.5,252 249.9,258 243.3,265.2C188.1,327 159.9,358 159.1,358C158.8,358 152.1,351.6 144.4,343.8Z" style="fill:white;fill-opacity:0.5;fill-rule:nonzero;"/>
            </g>
            <g transform="matrix(1,0,0,1,3.00963,267.857)">
                <path d="M238.4,242.1C238.2,241.9 238,239.5 238,236.8L238,232L292,232L292,183.5C292,156.8 292.4,135 292.9,135C293.3,135 295.8,137.2 298.4,140L303,144.9L303,192.9C303,238.7 302.9,241 301.1,241.9C299.4,242.9 239.4,243 238.4,242.1Z" style="fill:white;fill-opacity:0.5;fill-rule:nonzero;"/>
            </g>
            <g transform="matrix(1,0,0,1,3.00963,267.857)">
                <path d="M216,234.5L213.7,232L216.8,232C219.5,232 220,232.4 220,234.5C220,235.9 219.6,237 219.2,237C218.7,237 217.3,235.9 216,234.5Z" style="fill:white;fill-opacity:0.5;fill-rule:nonzero;"/>
            </g>
            <g transform="matrix(1,0,0,1,3.00963,267.857)">
                <rect x="84" y="456" width="343" height="52" style="fill:white;fill-opacity:0.25;"/>
            </g>
            <g transform="matrix(1.33379,0,0,1.08716,-32.4365,169.621)">
                <g transform="matrix(30.4205,0,0,30.4205,113.46,545.507)">
                    <path d="M0.244,-0.286L0.17,-0.331C0.123,-0.359 0.09,-0.387 0.071,-0.415C0.051,-0.442 0.041,-0.474 0.041,-0.51C0.041,-0.563 0.06,-0.607 0.097,-0.641C0.134,-0.674 0.183,-0.691 0.242,-0.691C0.299,-0.691 0.351,-0.675 0.399,-0.643L0.399,-0.532C0.35,-0.579 0.297,-0.603 0.24,-0.603C0.208,-0.603 0.182,-0.596 0.162,-0.581C0.141,-0.566 0.131,-0.547 0.131,-0.524C0.131,-0.504 0.138,-0.485 0.154,-0.467C0.169,-0.449 0.193,-0.43 0.226,-0.411L0.301,-0.367C0.384,-0.317 0.426,-0.254 0.426,-0.177C0.426,-0.122 0.407,-0.078 0.371,-0.043C0.334,-0.009 0.287,0.008 0.228,0.008C0.161,0.008 0.099,-0.013 0.044,-0.054L0.044,-0.178C0.097,-0.112 0.158,-0.078 0.227,-0.078C0.258,-0.078 0.283,-0.087 0.303,-0.104C0.324,-0.121 0.334,-0.142 0.334,-0.168C0.334,-0.209 0.304,-0.249 0.244,-0.286Z" style="fill:white;fill-opacity:0.25;fill-rule:nonzero;"/>
                </g>
                <g transform="matrix(30.4205,0,0,30.4205,127.392,545.507)">
                    <path d="M0.293,-0.686L0.362,-0.686L0.667,0L0.568,0L0.477,-0.202L0.186,-0.202L0.1,0L0,0L0.293,-0.686ZM0.436,-0.289L0.326,-0.536L0.224,-0.289L0.436,-0.289Z" style="fill:white;fill-opacity:0.25;fill-rule:nonzero;"/>
                </g>
                <g transform="matrix(30.4205,0,0,30.4205,147.683,545.507)">
                    <path d="M0.07,0L0.07,-0.683L0.286,-0.683C0.351,-0.683 0.403,-0.666 0.442,-0.63C0.481,-0.595 0.5,-0.548 0.5,-0.489C0.5,-0.449 0.49,-0.414 0.47,-0.383C0.45,-0.353 0.423,-0.33 0.389,-0.317C0.354,-0.303 0.305,-0.296 0.24,-0.296L0.168,-0.296L0.168,0L0.07,0ZM0.269,-0.596L0.168,-0.596L0.168,-0.383L0.275,-0.383C0.315,-0.383 0.345,-0.392 0.367,-0.411C0.388,-0.43 0.399,-0.456 0.399,-0.491C0.399,-0.561 0.356,-0.596 0.269,-0.596Z" style="fill:white;fill-opacity:0.25;fill-rule:nonzero;"/>
                </g>
                <g transform="matrix(30.4205,0,0,30.4205,163.19,545.507)">
                    <path d="M0.075,-0.682L0.462,-0.682L0.462,-0.595L0.173,-0.595L0.173,-0.387L0.452,-0.387L0.452,-0.3L0.173,-0.3L0.173,-0.088L0.471,-0.088L0.471,-0.001L0.075,-0.001L0.075,-0.682Z" style="fill:white;fill-opacity:0.25;fill-rule:nonzero;"/>
                </g>
                <g transform="matrix(30.4205,0,0,30.4205,178.4,545.507)">
                    <path d="M0.078,0L0.078,-0.682L0.249,-0.682C0.318,-0.682 0.373,-0.665 0.413,-0.631C0.454,-0.597 0.474,-0.55 0.474,-0.492C0.474,-0.452 0.464,-0.418 0.444,-0.389C0.424,-0.36 0.396,-0.339 0.359,-0.324C0.381,-0.31 0.402,-0.29 0.423,-0.266C0.444,-0.241 0.473,-0.198 0.511,-0.136C0.535,-0.097 0.554,-0.068 0.568,-0.049L0.604,0L0.488,0L0.458,-0.045L0.433,-0.08L0.403,-0.13L0.37,-0.183C0.35,-0.211 0.332,-0.234 0.315,-0.25C0.298,-0.267 0.283,-0.279 0.269,-0.286C0.256,-0.293 0.233,-0.297 0.201,-0.297L0.176,-0.297L0.176,0L0.078,0ZM0.205,-0.599L0.176,-0.599L0.176,-0.384L0.213,-0.384C0.262,-0.384 0.296,-0.388 0.315,-0.396C0.333,-0.405 0.347,-0.418 0.358,-0.435C0.368,-0.452 0.373,-0.471 0.373,-0.493C0.373,-0.515 0.367,-0.534 0.356,-0.552C0.345,-0.569 0.329,-0.581 0.308,-0.588C0.287,-0.596 0.253,-0.599 0.205,-0.599Z" style="fill:white;fill-opacity:0.25;fill-rule:nonzero;"/>
                </g>
                <g transform="matrix(30.4205,0,0,30.4205,196.774,545.507)">
                    <path d="M0.075,-0.682L0.462,-0.682L0.462,-0.595L0.173,-0.595L0.173,-0.387L0.452,-0.387L0.452,-0.3L0.173,-0.3L0.173,-0.088L0.471,-0.088L0.471,-0.001L0.075,-0.001L0.075,-0.682Z" style="fill:white;fill-opacity:0.25;fill-rule:nonzero;"/>
                </g>
                <g transform="matrix(30.4205,0,0,30.4205,242.747,545.507)">
                    <path d="M0.293,-0.686L0.362,-0.686L0.667,0L0.568,0L0.477,-0.202L0.186,-0.202L0.1,0L0,0L0.293,-0.686ZM0.436,-0.289L0.326,-0.536L0.224,-0.289L0.436,-0.289Z" style="fill:white;fill-opacity:0.25;fill-rule:nonzero;"/>
                </g>
                <g transform="matrix(30.4205,0,0,30.4205,262.428,545.507)">
                    <path d="M0.55,-0.682L0.648,-0.682L0.648,-0.295C0.648,-0.243 0.644,-0.203 0.636,-0.176C0.629,-0.15 0.619,-0.127 0.608,-0.11C0.597,-0.092 0.583,-0.076 0.567,-0.062C0.513,-0.015 0.442,0.008 0.355,0.008C0.266,0.008 0.195,-0.015 0.141,-0.062C0.125,-0.076 0.111,-0.092 0.1,-0.11C0.089,-0.127 0.079,-0.149 0.072,-0.175C0.065,-0.201 0.061,-0.241 0.061,-0.296L0.061,-0.682L0.159,-0.682L0.159,-0.295C0.159,-0.231 0.167,-0.186 0.181,-0.161C0.196,-0.136 0.218,-0.116 0.248,-0.101C0.278,-0.086 0.313,-0.078 0.354,-0.078C0.412,-0.078 0.459,-0.093 0.496,-0.124C0.515,-0.14 0.529,-0.159 0.537,-0.181C0.546,-0.203 0.55,-0.241 0.55,-0.295L0.55,-0.682Z" style="fill:white;fill-opacity:0.25;fill-rule:nonzero;"/>
                </g>
                <g transform="matrix(30.4205,0,0,30.4205,283.966,545.507)">
                    <path d="M0.076,-0.001L0.076,-0.682L0.306,-0.682C0.399,-0.682 0.472,-0.668 0.526,-0.64C0.58,-0.613 0.623,-0.572 0.655,-0.518C0.687,-0.464 0.703,-0.405 0.703,-0.341C0.703,-0.295 0.694,-0.252 0.677,-0.21C0.659,-0.168 0.634,-0.132 0.602,-0.1C0.568,-0.068 0.53,-0.043 0.486,-0.026C0.46,-0.016 0.437,-0.01 0.415,-0.006C0.394,-0.003 0.353,-0.001 0.292,-0.001L0.076,-0.001ZM0.296,-0.595L0.174,-0.595L0.174,-0.088L0.299,-0.088C0.348,-0.088 0.386,-0.091 0.413,-0.098C0.44,-0.105 0.462,-0.113 0.48,-0.123C0.498,-0.134 0.515,-0.146 0.53,-0.161C0.578,-0.21 0.602,-0.272 0.602,-0.346C0.602,-0.419 0.577,-0.479 0.528,-0.525C0.51,-0.543 0.489,-0.557 0.465,-0.568C0.441,-0.579 0.419,-0.586 0.398,-0.59C0.377,-0.593 0.343,-0.595 0.296,-0.595Z" style="fill:white;fill-opacity:0.25;fill-rule:nonzero;"/>
                </g>
                <g transform="matrix(30.4205,0,0,30.4205,306.781,545.507)">
                    <path d="M0.075,-0.682L0.462,-0.682L0.462,-0.595L0.173,-0.595L0.173,-0.387L0.452,-0.387L0.452,-0.3L0.173,-0.3L0.173,-0.088L0.471,-0.088L0.471,-0.001L0.075,-0.001L0.075,-0.682Z" style="fill:white;fill-opacity:0.25;fill-rule:nonzero;"/>
                </g>
            </g>
            <g transform="matrix(1,0,0,1,3.00963,267.857)">
                <path d="M87,450.4C87,450.1 93.4,441.5 101.2,431.2C109,420.9 120.3,406 126.2,398.1L137,383.6L137,451L112,451C98.3,451 87,450.7 87,450.4Z" style="fill:white;fill-opacity:0.25;fill-rule:nonzero;"/>
            </g>
            <g transform="matrix(1,0,0,1,3.00963,267.857)">
                <path d="M375,417.3C375,389 375.2,383.8 376.3,385C377.8,386.7 423.2,447.8 424.4,449.8C425,450.7 419.8,451 400.1,451L375,451L375,417.3Z" style="fill:white;fill-opacity:0.25;fill-rule:nonzero;"/>
            </g>
            <g transform="matrix(1,0,0,1,3.00963,267.857)">
                <path d="M91.8,420.7L85,416.5L85,352L103.8,361.4C114.1,366.5 125.6,372.2 129.3,373.9C134.3,376.2 135.9,377.4 135.3,378.4C134.9,379.2 129.9,385.8 124.3,393.2C118.6,400.5 111,410.5 107.3,415.4C103.5,420.3 100.1,424.5 99.5,424.7C99,424.8 95.5,423.1 91.8,420.7Z" style="fill:white;fill-opacity:0.25;fill-rule:nonzero;"/>
            </g>
            <g transform="matrix(1,0,0,1,3.00963,267.857)">
                <path d="M393,399.5C383.4,386.7 375.4,375.7 375.2,375.1C375,374.5 386.6,368.2 400.9,361L427,348L427,412.5L421.8,415.7C418.9,417.5 415.1,419.8 413.5,420.9L410.4,422.9L393,399.5Z" style="fill:white;fill-opacity:0.25;fill-rule:nonzero;"/>
            </g>
        </g>
        <g transform="matrix(3.51445,0.0946446,-0.0946446,3.51445,-307.49,-444.97)">
            <circle cx="317.78" cy="283.955" r="3.556"/>
        </g>
        <g transform="matrix(3.51445,0.0946446,-0.0946446,3.51445,-387.554,-464.986)">
            <circle cx="317.78" cy="283.955" r="3.556"/>
        </g>
        <g transform="matrix(3.51445,0.0946446,-0.0946446,3.51445,-469.158,-481.923)">
            <circle cx="317.78" cy="283.955" r="3.556"/>
        </g>
        <g transform="matrix(3.51445,0.0946446,-0.0946446,3.51445,-535.365,-521.955)">
            <circle cx="317.78" cy="283.955" r="3.556"/>
        </g>
        <g transform="matrix(3.51445,0.0946446,-0.0946446,3.51445,-302.938,-450.454)">
            <circle cx="344.257" cy="283.955" r="3.556"/>
        </g>
        <g transform="matrix(3.51445,0.0946446,-0.0946446,3.51445,-303.476,-471.388)">
            <circle cx="370.737" cy="280.786" r="3.556"/>
        </g>
        <g transform="matrix(3.51445,0.0946446,-0.0946446,3.51445,-303.476,-471.388)">
            <circle cx="397.218" cy="271.621" r="3.556"/>
        </g>
        <g transform="matrix(3.51445,0.0946446,-0.0946446,3.51445,-303.476,-471.388)">
            <circle cx="423.684" cy="268.673" r="3.556"/>
        </g>
        <g transform="matrix(3.51445,0.0946446,-0.0946446,3.51445,-303.476,-471.388)">
            <circle cx="450.172" cy="260.125" r="3.556"/>
        </g>
        <g transform="matrix(3.51445,0.0946446,-0.0946446,3.51445,-303.476,-471.388)">
            <circle cx="476.641" cy="251.987" r="3.556"/>
        </g>
        <g transform="matrix(3.51445,0.0946446,-0.0946446,3.51445,-303.476,-471.388)">
            <circle cx="503.13" cy="246.77" r="3.556"/>
        </g>
        <g transform="matrix(3.51445,0.0946446,-0.0946446,3.51445,-303.476,-471.388)">
            <circle cx="529.614" cy="246.77" r="3.556"/>
        </g>
        <g transform="matrix(3.51445,0.0946446,-0.0946446,3.51445,-303.476,-471.388)">
            <circle cx="556.088" cy="249.358" r="3.556"/>
        </g>
        <g transform="matrix(3.51445,0.0946446,-0.0946446,3.51445,-233.49,-437.132)">
            <circle cx="556.088" cy="249.358" r="3.556"/>
        </g>
        <g transform="matrix(3.51445,0.0946446,-0.0946446,3.51445,-172.87,-398.504)">
            <circle cx="556.088" cy="249.358" r="3.556"/>
        </g>
        <g transform="matrix(3.51445,0.0946446,-0.0946446,3.51445,-110.42,-370.617)">
            <circle cx="556.088" cy="249.358" r="3.556"/>
        </g>
        <g transform="matrix(3.51445,0.0946446,-0.0946446,3.51445,-39.3558,-376.411)">
            <circle cx="556.088" cy="249.358" r="3.556"/>
        </g>
    </g>
</svg>
