<?xml version="1.0" encoding="UTF-8" standalone="no"?>
<!DOCTYPE svg PUBLIC "-//W3C//DTD SVG 1.1//EN" "http://www.w3.org/Graphics/SVG/1.1/DTD/svg11.dtd">
<svg width="100%" height="100%" viewBox="0 0 1920 900" version="1.1" xmlns="http://www.w3.org/2000/svg" xmlns:xlink="http://www.w3.org/1999/xlink" xml:space="preserve" xmlns:serif="http://www.serif.com/" style="fill-rule:evenodd;clip-rule:evenodd;stroke-linejoin:round;stroke-miterlimit:2;">
    <g transform="matrix(-1.82316,0.00143544,-0.00133441,-1.69484,1884.51,1774.04)">
        <path d="M600.557,577.789L619.063,577.803L619.097,531.655L654.251,531.383L654.217,577.83L693.4,577.86L693.419,551.308L706.902,551.319L706.929,513.527L727.872,513.545L727.845,551.337L741.391,551.349L741.372,577.897L760.938,577.912L760.897,634.67L800.084,634.703L800.112,596.497L823.079,596.515L823.013,686.988L857.493,686.991L857.572,577.986L871.066,577.996L871.029,628.541L912.243,628.575L912.261,602.969L924.423,602.979L924.451,564.649L944.038,565.156L944.01,602.996L954.808,603.005L954.766,660.911L999.38,660.948L999.44,578.095L1078.32,578.155L1078.28,638.506L1098.43,638.506L1098.43,617.878L1132.28,617.878L1132.28,342.492L181.473,342.492L-39.836,464.061L-122.389,464.061L-174.861,481.232L-174.861,530.983L-103.426,530.983L-103.426,550.648L-85.83,550.648L-85.83,530.983L-39.836,530.983L-39.836,564.323L-11.822,564.323L-11.822,530.983L19.186,530.983L19.186,595.959L59.823,595.959L59.823,530.983L80.623,530.983L80.623,564.323L103.204,564.323L103.204,611.214L118.193,611.214L118.193,564.323L137.191,564.323L137.191,595.959L164.483,595.959L164.483,530.983L181.473,530.983L181.473,611.214L197.448,611.214L197.448,540.356L207.906,540.356L207.906,628.071L228.29,628.071L229.007,602.421L265.662,602.421L265.662,564.323L283.868,564.323L283.868,628.071L316.609,628.071L316.609,645.074L329.803,645.074L329.803,686.57L360.807,686.57L360.807,585.551L392.009,585.551L392.009,709.629L420.112,709.629L420.112,634.381L441.768,634.381L441.768,668.374L462.993,668.374L462.993,651.872L480.316,652.43L480.316,577.789L510.416,577.789L510.416,564.323L539.51,564.323L539.51,668.374L578.767,668.374L578.767,693.952L600.557,693.952L600.557,577.789Z" style="fill-opacity:0.5;"/>
    </g>
    <g transform="matrix(1,0,0,1,-3.00963,-267.857)">
        <g transform="matrix(0.372496,0,0,0.372496,-269.919,383.564)">
            <path d="M1441.38,168.034C1361.1,186.71 1299.46,257.67 1299.46,343.515L1299.46,351.024C1428.28,377.138 1491.73,462.979 1491.73,576.849C1491.73,703.822 1387.21,808.334 1260.27,808.334C1133.33,808.334 1013.87,701.942 1013.87,543.257C1013.87,350.984 1178.15,169.878 1413.36,164.244C1418.96,164.244 1424.56,164.244 1432.03,166.154C1379.78,145.608 1323.76,134.411 1265.87,134.411C1011.99,134.411 808.496,332.313 808.496,576.844C808.496,821.406 1012,1019.34 1265.87,1019.34C1517.88,1019.34 1721.38,821.406 1721.38,576.844C1721.38,393.93 1605.67,235.239 1441.38,168.034" style="fill:white;fill-opacity:0.47;fill-rule:nonzero;"/>
        </g>
        <g transform="matrix(3.51445,0.0946446,-0.0946446,3.51445,-307.49,-444.97)">
            <circle cx="317.78" cy="283.955" r="3.556" style="fill:white;"/>
        </g>
        <g transform="matrix(3.51445,0.0946446,-0.0946446,3.51445,-387.554,-464.986)">
            <circle cx="317.78" cy="283.955" r="3.556" style="fill:white;"/>
        </g>
        <g transform="matrix(3.51445,0.0946446,-0.0946446,3.51445,-469.158,-481.923)">
            <circle cx="317.78" cy="283.955" r="3.556" style="fill:white;"/>
        </g>
        <g transform="matrix(3.51445,0.0946446,-0.0946446,3.51445,-535.365,-521.955)">
            <circle cx="317.78" cy="283.955" r="3.556" style="fill:white;"/>
        </g>
        <g transform="matrix(3.51445,0.0946446,-0.0946446,3.51445,-302.938,-450.454)">
            <circle cx="344.257" cy="283.955" r="3.556" style="fill:white;"/>
        </g>
        <g transform="matrix(3.51445,0.0946446,-0.0946446,3.51445,-303.476,-471.388)">
            <circle cx="370.737" cy="280.786" r="3.556" style="fill:white;"/>
        </g>
        <g transform="matrix(3.51445,0.0946446,-0.0946446,3.51445,-303.476,-471.388)">
            <circle cx="397.218" cy="271.621" r="3.556" style="fill:white;"/>
        </g>
        <g transform="matrix(3.51445,0.0946446,-0.0946446,3.51445,-303.476,-471.388)">
            <circle cx="423.684" cy="268.673" r="3.556" style="fill:white;"/>
        </g>
        <g transform="matrix(3.51445,0.0946446,-0.0946446,3.51445,-303.476,-471.388)">
            <circle cx="450.172" cy="260.125" r="3.556" style="fill:white;"/>
        </g>
        <g transform="matrix(3.51445,0.0946446,-0.0946446,3.51445,-303.476,-471.388)">
            <circle cx="476.641" cy="251.987" r="3.556" style="fill:white;"/>
        </g>
        <g transform="matrix(3.51445,0.0946446,-0.0946446,3.51445,-303.476,-471.388)">
            <circle cx="503.13" cy="246.77" r="3.556" style="fill:white;"/>
        </g>
        <g transform="matrix(3.51445,0.0946446,-0.0946446,3.51445,-303.476,-471.388)">
            <circle cx="529.614" cy="246.77" r="3.556" style="fill:white;"/>
        </g>
        <g transform="matrix(3.51445,0.0946446,-0.0946446,3.51445,-303.476,-471.388)">
            <circle cx="556.088" cy="249.358" r="3.556" style="fill:white;"/>
        </g>
        <g transform="matrix(3.51445,0.0946446,-0.0946446,3.51445,-233.49,-437.132)">
            <circle cx="556.088" cy="249.358" r="3.556" style="fill:white;"/>
        </g>
        <g transform="matrix(3.51445,0.0946446,-0.0946446,3.51445,-172.87,-398.504)">
            <circle cx="556.088" cy="249.358" r="3.556" style="fill:white;"/>
        </g>
        <g transform="matrix(3.51445,0.0946446,-0.0946446,3.51445,-110.42,-370.617)">
            <circle cx="556.088" cy="249.358" r="3.556" style="fill:white;"/>
        </g>
        <g transform="matrix(3.51445,0.0946446,-0.0946446,3.51445,-39.3558,-376.411)">
            <circle cx="556.088" cy="249.358" r="3.556" style="fill:white;"/>
        </g>
        <g transform="matrix(0.218556,0,0,0.218556,-72.5456,550.336)">
            <path d="M537.815,1168.64L491.156,1304.94L444.496,1168.64L384.729,1168.64L457.538,1368.39L522.899,1368.39L595.708,1168.64L537.815,1168.64M1002.67,1086.52L1002.67,1185.44C985.878,1172.4 965.327,1164.92 944.782,1164.92C888.774,1164.92 843.953,1211.59 843.953,1267.59C843.953,1325.45 888.733,1370.24 944.782,1370.24C965.327,1370.24 985.878,1362.76 1002.67,1351.6L1002.67,1368.39L1053.05,1368.39L1053.05,1086.52L1002.67,1086.52M898.122,1267.59C898.122,1237.73 920.512,1213.43 950.38,1213.43C980.213,1213.43 1004.51,1237.69 1004.51,1267.59C1004.51,1297.43 980.249,1321.73 950.38,1321.73C920.512,1321.73 898.122,1297.46 898.122,1267.59ZM1247.24,1168.64L1247.24,1185.44L1245.36,1185.44C1230.41,1172.4 1209.9,1164.92 1187.44,1164.92C1133.31,1164.92 1088.52,1211.59 1088.52,1267.59C1088.52,1325.45 1133.3,1370.24 1187.44,1370.24C1209.9,1370.24 1230.41,1362.76 1247.21,1351.6L1247.21,1368.39L1297.59,1368.39L1297.59,1168.68L1247.24,1168.68M1140.81,1267.59C1140.81,1237.73 1165.05,1213.43 1194.95,1213.43C1224.85,1213.43 1249.08,1237.69 1249.08,1267.59C1249.08,1297.43 1224.84,1321.73 1194.95,1321.73C1165.04,1321.73 1140.81,1297.46 1140.81,1267.59ZM1437.63,1168.64L1405.89,1168.64L1405.89,1155.57C1405.89,1144.38 1405.89,1127.58 1426.43,1127.58L1435.75,1127.58L1435.75,1082.76L1422.71,1082.76C1376.02,1084.64 1355.5,1099.56 1355.5,1148.1L1355.5,1168.64L1331.24,1168.64L1331.24,1215.31L1355.5,1215.31L1355.5,1368.36L1405.89,1368.36L1405.89,1215.31L1437.63,1215.31L1437.63,1168.64M1747.52,1185.44C1762.47,1172.4 1782.98,1164.92 1805.41,1164.92C1852.07,1164.92 1880.06,1194.79 1880.06,1233.98L1880.06,1368.39L1827.8,1368.39L1827.8,1250.8C1827.8,1222.77 1807.25,1213.46 1790.46,1213.46C1775.54,1213.46 1747.52,1220.96 1749.4,1256.4L1749.4,1368.39L1695.26,1368.39L1695.26,1168.67L1747.52,1168.67L1747.52,1185.44M2064.89,1245.2C2061.17,1222.78 2040.62,1209.71 2018.23,1209.71C1993.96,1209.71 1975.29,1222.78 1971.53,1245.2L2064.89,1245.2M1969.69,1284.38C1971.53,1308.65 1992.08,1327.33 2018.23,1327.33C2038.74,1327.33 2051.85,1319.85 2059.29,1304.94L2115.3,1304.94C2105.95,1334.8 2072.33,1370.24 2020.04,1370.24C1958.5,1370.24 1915.53,1323.57 1915.53,1267.59C1915.53,1211.59 1962.19,1164.92 2020.04,1164.92C2079.81,1164.92 2120.91,1215.31 2120.91,1267.59C2120.91,1278.79 2119.03,1284.39 2119.03,1284.39L1969.69,1284.39L1969.69,1284.38ZM746.915,1170.52C728.275,1176.12 715.172,1192.91 715.172,1211.58L715.172,1213.46C745.035,1220.96 759.987,1239.57 759.987,1267.62C759.987,1297.46 735.718,1321.76 705.849,1321.76C675.95,1321.76 647.931,1295.61 647.931,1260.15C647.931,1213.49 685.273,1172.42 741.286,1170.55L745.005,1170.55C733.807,1164.95 720.735,1163.04 705.849,1163.04C647.931,1163.04 599.427,1209.7 599.427,1267.62C599.427,1323.6 647.967,1370.26 705.849,1370.26C765.55,1370.26 814.09,1323.6 814.09,1267.62C814.12,1224.66 786.101,1187.31 746.915,1170.52M1555.25,1164.92C1497.33,1164.92 1448.83,1209.68 1448.83,1267.59C1448.83,1310.54 1476.85,1347.88 1514.19,1362.79C1532.83,1359.07 1547.78,1342.28 1547.78,1321.73C1517.91,1314.25 1502.96,1293.74 1502.96,1267.59C1502.96,1237.73 1527.23,1213.43 1557.16,1213.43C1587.03,1213.43 1615.02,1237.69 1615.02,1275.04C1615.02,1321.7 1575.84,1362.76 1521.67,1364.64L1516.07,1364.64C1529.1,1368.36 1542.21,1372.15 1555.28,1372.15C1614.99,1372.15 1663.53,1325.46 1663.53,1267.6C1663.52,1209.71 1614.99,1164.92 1555.25,1164.92" style="fill:white;fill-opacity:0.47;fill-rule:nonzero;"/>
        </g>
    </g>
</svg>
