<?xml version="1.0" encoding="UTF-8" standalone="no"?>
<!DOCTYPE svg PUBLIC "-//W3C//DTD SVG 1.1//EN" "http://www.w3.org/Graphics/SVG/1.1/DTD/svg11.dtd">
<svg width="100%" height="100%" viewBox="0 0 400 150" version="1.1" xmlns="http://www.w3.org/2000/svg" xmlns:xlink="http://www.w3.org/1999/xlink" xml:space="preserve" xmlns:serif="http://www.serif.com/" style="fill-rule:evenodd;clip-rule:evenodd;stroke-linejoin:round;stroke-miterlimit:2;">
    <g transform="matrix(0.313366,0,0,0.313366,-10.1001,-3.17988)">
        <g transform="matrix(130.599,0,0,130.599,48.1155,108.52)">
            <path d="M0.575,-0.597L0.558,-0.48C0.515,-0.515 0.466,-0.533 0.409,-0.533C0.345,-0.533 0.29,-0.51 0.242,-0.463C0.194,-0.416 0.17,-0.362 0.17,-0.3C0.17,-0.244 0.187,-0.199 0.221,-0.165C0.256,-0.13 0.3,-0.113 0.355,-0.113C0.405,-0.113 0.459,-0.129 0.517,-0.16L0.498,-0.03C0.445,-0.002 0.392,0.011 0.337,0.011C0.242,0.011 0.167,-0.019 0.114,-0.079C0.06,-0.139 0.033,-0.21 0.033,-0.292C0.033,-0.401 0.069,-0.489 0.141,-0.553C0.213,-0.618 0.292,-0.651 0.378,-0.651C0.456,-0.651 0.522,-0.633 0.575,-0.597Z" style="fill:black;fill-rule:nonzero;"/>
        </g>
        <g transform="matrix(93.2851,0,0,93.2851,124.256,108.52)">
            <path d="M0.039,-0.315C0.039,-0.404 0.073,-0.481 0.141,-0.545C0.208,-0.61 0.29,-0.642 0.385,-0.642C0.478,-0.642 0.557,-0.609 0.625,-0.545C0.692,-0.48 0.725,-0.403 0.725,-0.315C0.725,-0.221 0.692,-0.141 0.626,-0.076C0.559,-0.011 0.478,0.021 0.382,0.021C0.287,0.021 0.206,-0.012 0.139,-0.077C0.072,-0.142 0.039,-0.222 0.039,-0.315ZM0.635,-0.311C0.635,-0.379 0.61,-0.437 0.561,-0.484C0.511,-0.531 0.45,-0.555 0.378,-0.555C0.309,-0.555 0.25,-0.531 0.201,-0.483C0.152,-0.435 0.128,-0.378 0.128,-0.311C0.128,-0.243 0.153,-0.185 0.203,-0.138C0.254,-0.091 0.315,-0.068 0.388,-0.068C0.455,-0.068 0.513,-0.092 0.562,-0.14C0.61,-0.188 0.635,-0.245 0.635,-0.311Z" style="fill:black;fill-rule:nonzero;"/>
        </g>
        <g transform="matrix(93.2851,0,0,93.2851,196.178,108.52)">
            <path d="M0.578,-0.648L0.749,0L0.665,0L0.562,-0.396L0.385,0.024L0.207,-0.399L0.103,0L0.02,0L0.19,-0.648L0.385,-0.184L0.578,-0.648Z" style="fill:black;fill-rule:nonzero;"/>
        </g>
        <g transform="matrix(93.2851,0,0,93.2851,268.101,108.52)">
            <path d="M0.578,-0.648L0.749,0L0.665,0L0.562,-0.396L0.385,0.024L0.207,-0.399L0.103,0L0.02,0L0.19,-0.648L0.385,-0.184L0.578,-0.648Z" style="fill:black;fill-rule:nonzero;"/>
        </g>
        <g transform="matrix(93.2851,0,0,93.2851,340.023,108.52)">
            <path d="M0.062,-0.621L0.147,-0.621L0.147,-0.239C0.147,-0.182 0.161,-0.138 0.188,-0.107C0.215,-0.076 0.253,-0.061 0.303,-0.061C0.353,-0.061 0.391,-0.075 0.419,-0.104C0.446,-0.132 0.46,-0.172 0.46,-0.224L0.46,-0.621L0.545,-0.621L0.545,-0.23C0.545,-0.154 0.523,-0.093 0.48,-0.047C0.436,-0.002 0.378,0.021 0.306,0.021C0.232,0.021 0.173,-0.002 0.129,-0.048C0.084,-0.095 0.062,-0.163 0.062,-0.253L0.062,-0.621Z" style="fill:black;fill-rule:nonzero;"/>
        </g>
        <g transform="matrix(93.2851,0,0,93.2851,396.368,108.52)">
            <path d="M0.06,-0.647L0.52,-0.174L0.52,-0.622L0.605,-0.622L0.605,0.029L0.145,-0.442L0.145,0L0.06,0L0.06,-0.647Z" style="fill:black;fill-rule:nonzero;"/>
        </g>
        <g transform="matrix(93.2851,0,0,93.2851,458.588,108.52)">
            <rect x="0.063" y="-0.622" width="0.084" height="0.622" style="fill:black;fill-rule:nonzero;"/>
        </g>
        <g transform="matrix(93.2851,0,0,93.2851,479.04,108.52)">
            <path d="M0.027,-0.622L0.407,-0.622L0.407,-0.537L0.259,-0.537L0.259,0L0.175,0L0.175,-0.537L0.027,-0.537L0.027,-0.622Z" style="fill:black;fill-rule:nonzero;"/>
        </g>
        <g transform="matrix(93.2851,0,0,93.2851,519.898,108.52)">
            <path d="M0.028,-0.622L0.122,-0.622L0.275,-0.372L0.426,-0.622L0.52,-0.622L0.316,-0.285L0.316,0L0.231,0L0.231,-0.284L0.028,-0.622Z" style="fill:black;fill-rule:nonzero;"/>
        </g>
        <g transform="matrix(112.402,0,0,112.402,48.1155,220.923)">
            <path d="M0.066,-0.622L0.217,-0.622C0.336,-0.622 0.425,-0.59 0.483,-0.527C0.542,-0.464 0.571,-0.392 0.571,-0.311C0.571,-0.229 0.541,-0.157 0.48,-0.094C0.42,-0.031 0.333,0 0.218,0L0.066,0L0.066,-0.622ZM0.151,-0.539L0.151,-0.084L0.156,-0.084C0.219,-0.084 0.266,-0.087 0.298,-0.093C0.33,-0.098 0.361,-0.111 0.389,-0.13C0.418,-0.149 0.441,-0.175 0.458,-0.206C0.474,-0.238 0.483,-0.273 0.483,-0.311C0.483,-0.359 0.469,-0.402 0.442,-0.441C0.415,-0.48 0.383,-0.506 0.345,-0.519C0.308,-0.532 0.257,-0.539 0.194,-0.539L0.151,-0.539Z" style="fill:black;fill-rule:nonzero;"/>
        </g>
        <g transform="matrix(80.2875,0,0,80.2875,116.007,220.923)">
            <path d="M0.058,-0.622L0.403,-0.622L0.403,-0.537L0.142,-0.537L0.142,-0.382L0.403,-0.382L0.403,-0.298L0.142,-0.298L0.142,-0.084L0.403,-0.084L0.403,0L0.058,0L0.058,-0.622Z" style="fill:black;fill-rule:nonzero;"/>
        </g>
        <g transform="matrix(80.2875,0,0,80.2875,151.172,220.923)">
            <path d="M0.115,-0.641L0.237,-0.641C0.318,-0.641 0.38,-0.625 0.422,-0.592C0.465,-0.559 0.486,-0.511 0.486,-0.448C0.486,-0.399 0.474,-0.356 0.451,-0.318C0.428,-0.281 0.389,-0.256 0.335,-0.243L0.46,0L0.326,0L0.207,-0.232L0.187,-0.232L0.153,0L0.02,0L0.115,-0.641ZM0.231,-0.528L0.204,-0.347L0.231,-0.346C0.264,-0.346 0.293,-0.355 0.316,-0.374C0.339,-0.392 0.351,-0.415 0.351,-0.442C0.351,-0.472 0.341,-0.494 0.322,-0.507C0.302,-0.521 0.272,-0.528 0.231,-0.528Z" style="fill:black;fill-rule:nonzero;"/>
        </g>
        <g transform="matrix(80.2875,0,0,80.2875,193.786,220.923)">
            <rect x="0.063" y="-0.622" width="0.084" height="0.622" style="fill:black;fill-rule:nonzero;"/>
        </g>
        <g transform="matrix(80.2875,0,0,80.2875,211.388,220.923)">
            <path d="M0.013,-0.621L0.103,-0.621L0.298,-0.181L0.495,-0.621L0.585,-0.621L0.297,0.021L0.013,-0.621Z" style="fill:black;fill-rule:nonzero;"/>
        </g>
        <g transform="matrix(80.2875,0,0,80.2875,259.882,220.923)">
            <path d="M0.105,-0.641L0.452,-0.641L0.435,-0.528L0.221,-0.528L0.199,-0.386L0.403,-0.386L0.385,-0.271L0.182,-0.271L0.158,-0.114L0.366,-0.114L0.349,0L0.008,0L0.105,-0.641Z" style="fill:black;fill-rule:nonzero;"/>
        </g>
        <g transform="matrix(80.2875,0,0,80.2875,294.145,220.923)">
            <path d="M0.066,-0.622L0.217,-0.622C0.336,-0.622 0.425,-0.59 0.483,-0.527C0.542,-0.464 0.571,-0.392 0.571,-0.311C0.571,-0.229 0.541,-0.157 0.48,-0.094C0.42,-0.031 0.333,0 0.218,0L0.066,0L0.066,-0.622ZM0.151,-0.539L0.151,-0.084L0.156,-0.084C0.219,-0.084 0.266,-0.087 0.298,-0.093C0.33,-0.098 0.361,-0.111 0.389,-0.13C0.418,-0.149 0.441,-0.175 0.458,-0.206C0.474,-0.238 0.483,-0.273 0.483,-0.311C0.483,-0.359 0.469,-0.402 0.442,-0.441C0.415,-0.48 0.383,-0.506 0.345,-0.519C0.308,-0.532 0.257,-0.539 0.194,-0.539L0.151,-0.539Z" style="fill:black;fill-rule:nonzero;"/>
        </g>
        <g transform="matrix(106.664,0,0,106.664,48.1155,327.587)">
            <path d="M0.297,-0.646L0.591,0L0.502,0L0.43,-0.159L0.166,-0.159L0.094,0L0.006,0L0.297,-0.646ZM0.297,-0.452L0.197,-0.23L0.397,-0.23L0.297,-0.452Z" style="fill:black;fill-rule:nonzero;"/>
        </g>
        <g transform="matrix(76.1886,0,0,76.1886,112.541,327.587)">
            <path d="M0.062,-0.621L0.147,-0.621L0.147,-0.239C0.147,-0.182 0.161,-0.138 0.188,-0.107C0.215,-0.076 0.253,-0.061 0.303,-0.061C0.353,-0.061 0.391,-0.075 0.419,-0.104C0.446,-0.132 0.46,-0.172 0.46,-0.224L0.46,-0.621L0.545,-0.621L0.545,-0.23C0.545,-0.154 0.523,-0.093 0.48,-0.047C0.436,-0.002 0.378,0.021 0.306,0.021C0.232,0.021 0.173,-0.002 0.129,-0.048C0.084,-0.095 0.062,-0.163 0.062,-0.253L0.062,-0.621Z" style="fill:black;fill-rule:nonzero;"/>
        </g>
        <g transform="matrix(76.1886,0,0,76.1886,158.559,327.587)">
            <path d="M0.027,-0.622L0.407,-0.622L0.407,-0.537L0.259,-0.537L0.259,0L0.175,0L0.175,-0.537L0.027,-0.537L0.027,-0.622Z" style="fill:black;fill-rule:nonzero;"/>
        </g>
        <g transform="matrix(76.1886,0,0,76.1886,190.404,327.587)">
            <path d="M0.039,-0.315C0.039,-0.404 0.073,-0.481 0.141,-0.545C0.208,-0.61 0.29,-0.642 0.385,-0.642C0.478,-0.642 0.557,-0.609 0.625,-0.545C0.692,-0.48 0.725,-0.403 0.725,-0.315C0.725,-0.221 0.692,-0.141 0.626,-0.076C0.559,-0.011 0.478,0.021 0.382,0.021C0.287,0.021 0.206,-0.012 0.139,-0.077C0.072,-0.142 0.039,-0.222 0.039,-0.315ZM0.635,-0.311C0.635,-0.379 0.61,-0.437 0.561,-0.484C0.511,-0.531 0.45,-0.555 0.378,-0.555C0.309,-0.555 0.25,-0.531 0.201,-0.483C0.152,-0.435 0.128,-0.378 0.128,-0.311C0.128,-0.243 0.153,-0.185 0.203,-0.138C0.254,-0.091 0.315,-0.068 0.388,-0.068C0.455,-0.068 0.513,-0.092 0.562,-0.14C0.61,-0.188 0.635,-0.245 0.635,-0.311Z" style="fill:black;fill-rule:nonzero;"/>
        </g>
        <g transform="matrix(76.1886,0,0,76.1886,249.145,327.587)">
            <path d="M0.578,-0.648L0.749,0L0.665,0L0.562,-0.396L0.385,0.024L0.207,-0.399L0.103,0L0.02,0L0.19,-0.648L0.385,-0.184L0.578,-0.648Z" style="fill:black;fill-rule:nonzero;"/>
        </g>
        <g transform="matrix(76.1886,0,0,76.1886,307.886,327.587)">
            <path d="M0.326,-0.641L0.418,-0.641L0.582,0L0.457,0L0.425,-0.129L0.188,-0.129L0.118,0L-0.018,0L0.326,-0.641ZM0.349,-0.43L0.248,-0.241L0.397,-0.241L0.349,-0.43Z" style="fill:black;fill-rule:nonzero;"/>
        </g>
        <g transform="matrix(76.1886,0,0,76.1886,353.197,327.587)">
            <path d="M0.069,-0.641L0.462,-0.641L0.445,-0.528L0.314,-0.528L0.237,0L0.106,0L0.182,-0.528L0.053,-0.528L0.069,-0.641Z" style="fill:black;fill-rule:nonzero;"/>
        </g>
        <g transform="matrix(76.1886,0,0,76.1886,385.711,327.587)">
            <path d="M0.105,-0.641L0.452,-0.641L0.435,-0.528L0.221,-0.528L0.199,-0.386L0.403,-0.386L0.385,-0.271L0.182,-0.271L0.158,-0.114L0.366,-0.114L0.349,0L0.008,0L0.105,-0.641Z" style="fill:black;fill-rule:nonzero;"/>
        </g>
        <g transform="matrix(76.1886,0,0,76.1886,418.225,327.587)">
            <path d="M0.066,-0.622L0.217,-0.622C0.336,-0.622 0.425,-0.59 0.483,-0.527C0.542,-0.464 0.571,-0.392 0.571,-0.311C0.571,-0.229 0.541,-0.157 0.48,-0.094C0.42,-0.031 0.333,0 0.218,0L0.066,0L0.066,-0.622ZM0.151,-0.539L0.151,-0.084L0.156,-0.084C0.219,-0.084 0.266,-0.087 0.298,-0.093C0.33,-0.098 0.361,-0.111 0.389,-0.13C0.418,-0.149 0.441,-0.175 0.458,-0.206C0.474,-0.238 0.483,-0.273 0.483,-0.311C0.483,-0.359 0.469,-0.402 0.442,-0.441C0.415,-0.48 0.383,-0.506 0.345,-0.519C0.308,-0.532 0.257,-0.539 0.194,-0.539L0.151,-0.539Z" style="fill:black;fill-rule:nonzero;"/>
        </g>
    </g>
    <g transform="matrix(1.10929,0,0,1.10929,5.15272,135.005)">
        <g transform="matrix(22.2575,0,0,22.2575,0,0)">
            <rect x="0.063" y="-0.622" width="0.084" height="0.622" style="fill:black;fill-rule:nonzero;"/>
        </g>
        <g transform="matrix(22.2575,0,0,22.2575,4.8797,0)">
            <path d="M0.06,-0.647L0.52,-0.174L0.52,-0.622L0.605,-0.622L0.605,0.029L0.145,-0.442L0.145,0L0.06,0L0.06,-0.647Z" style="fill:black;fill-rule:nonzero;"/>
        </g>
        <g transform="matrix(22.2575,0,0,22.2575,19.7253,0)">
            <path d="M0.445,-0.553L0.376,-0.498C0.358,-0.516 0.341,-0.531 0.327,-0.54C0.312,-0.549 0.29,-0.554 0.262,-0.554C0.232,-0.554 0.207,-0.547 0.188,-0.533C0.169,-0.519 0.16,-0.501 0.16,-0.48C0.16,-0.461 0.168,-0.444 0.185,-0.43C0.201,-0.415 0.229,-0.4 0.269,-0.382C0.309,-0.365 0.34,-0.349 0.363,-0.334C0.385,-0.32 0.403,-0.303 0.418,-0.285C0.432,-0.268 0.442,-0.249 0.449,-0.229C0.456,-0.209 0.46,-0.188 0.46,-0.166C0.46,-0.114 0.441,-0.07 0.404,-0.034C0.366,0.003 0.32,0.021 0.267,0.021C0.215,0.021 0.169,0.007 0.129,-0.022C0.089,-0.05 0.059,-0.093 0.037,-0.15L0.122,-0.174C0.153,-0.104 0.2,-0.069 0.264,-0.069C0.295,-0.069 0.321,-0.078 0.341,-0.097C0.362,-0.115 0.372,-0.138 0.372,-0.167C0.372,-0.184 0.367,-0.201 0.356,-0.218C0.345,-0.235 0.332,-0.249 0.316,-0.26C0.3,-0.271 0.275,-0.283 0.24,-0.298C0.205,-0.312 0.178,-0.325 0.159,-0.337C0.14,-0.349 0.124,-0.363 0.11,-0.379C0.097,-0.396 0.087,-0.412 0.08,-0.428C0.074,-0.445 0.071,-0.462 0.071,-0.481C0.071,-0.525 0.089,-0.563 0.125,-0.595C0.16,-0.626 0.204,-0.642 0.255,-0.642C0.289,-0.642 0.323,-0.634 0.358,-0.62C0.393,-0.605 0.422,-0.583 0.445,-0.553Z" style="fill:black;fill-rule:nonzero;"/>
        </g>
        <g transform="matrix(22.2575,0,0,22.2575,30.854,0)">
            <path d="M0.062,-0.621L0.147,-0.621L0.147,-0.239C0.147,-0.182 0.161,-0.138 0.188,-0.107C0.215,-0.076 0.253,-0.061 0.303,-0.061C0.353,-0.061 0.391,-0.075 0.419,-0.104C0.446,-0.132 0.46,-0.172 0.46,-0.224L0.46,-0.621L0.545,-0.621L0.545,-0.23C0.545,-0.154 0.523,-0.093 0.48,-0.047C0.436,-0.002 0.378,0.021 0.306,0.021C0.232,0.021 0.173,-0.002 0.129,-0.048C0.084,-0.095 0.062,-0.163 0.062,-0.253L0.062,-0.621Z" style="fill:black;fill-rule:nonzero;"/>
        </g>
        <g transform="matrix(22.2575,0,0,22.2575,44.2976,0)">
            <path d="M0.077,-0.622L0.161,-0.622L0.161,-0.084L0.364,-0.084L0.364,0L0.077,0L0.077,-0.622Z" style="fill:black;fill-rule:nonzero;"/>
        </g>
        <g transform="matrix(22.2575,0,0,22.2575,52.8616,0)">
            <rect x="0.063" y="-0.622" width="0.084" height="0.622" style="fill:black;fill-rule:nonzero;"/>
        </g>
        <g transform="matrix(22.2575,0,0,22.2575,57.7413,0)">
            <path d="M0.06,-0.647L0.52,-0.174L0.52,-0.622L0.605,-0.622L0.605,0.029L0.145,-0.442L0.145,0L0.06,0L0.06,-0.647Z" style="fill:black;fill-rule:nonzero;"/>
        </g>
        <g transform="matrix(22.2575,0,0,22.2575,81.1834,0)">
            <path d="M0.066,-0.622L0.217,-0.622C0.336,-0.622 0.425,-0.59 0.483,-0.527C0.542,-0.464 0.571,-0.392 0.571,-0.311C0.571,-0.229 0.541,-0.157 0.48,-0.094C0.42,-0.031 0.333,0 0.218,0L0.066,0L0.066,-0.622ZM0.151,-0.539L0.151,-0.084L0.156,-0.084C0.219,-0.084 0.266,-0.087 0.298,-0.093C0.33,-0.098 0.361,-0.111 0.389,-0.13C0.418,-0.149 0.441,-0.175 0.458,-0.206C0.474,-0.238 0.483,-0.273 0.483,-0.311C0.483,-0.359 0.469,-0.402 0.442,-0.441C0.415,-0.48 0.383,-0.506 0.345,-0.519C0.308,-0.532 0.257,-0.539 0.194,-0.539L0.151,-0.539Z" style="fill:black;fill-rule:nonzero;"/>
        </g>
        <g transform="matrix(22.2575,0,0,22.2575,94.627,0)">
            <path d="M0.058,-0.622L0.403,-0.622L0.403,-0.537L0.142,-0.537L0.142,-0.382L0.403,-0.382L0.403,-0.298L0.142,-0.298L0.142,-0.084L0.403,-0.084L0.403,0L0.058,0L0.058,-0.622Z" style="fill:black;fill-rule:nonzero;"/>
        </g>
        <g transform="matrix(22.2575,0,0,22.2575,104.375,0)">
            <path d="M0.077,-0.622L0.161,-0.622L0.161,-0.084L0.364,-0.084L0.364,0L0.077,0L0.077,-0.622Z" style="fill:black;fill-rule:nonzero;"/>
        </g>
        <g transform="matrix(22.2575,0,0,22.2575,112.939,0)">
            <rect x="0.063" y="-0.622" width="0.084" height="0.622" style="fill:black;fill-rule:nonzero;"/>
        </g>
        <g transform="matrix(22.2575,0,0,22.2575,117.819,0)">
            <path d="M0.013,-0.621L0.103,-0.621L0.298,-0.181L0.495,-0.621L0.585,-0.621L0.297,0.021L0.013,-0.621Z" style="fill:black;fill-rule:nonzero;"/>
        </g>
        <g transform="matrix(22.2575,0,0,22.2575,131.263,0)">
            <path d="M0.058,-0.622L0.403,-0.622L0.403,-0.537L0.142,-0.537L0.142,-0.382L0.403,-0.382L0.403,-0.298L0.142,-0.298L0.142,-0.084L0.403,-0.084L0.403,0L0.058,0L0.058,-0.622Z" style="fill:black;fill-rule:nonzero;"/>
        </g>
        <g transform="matrix(22.2575,0,0,22.2575,141.011,0)">
            <path d="M0.078,-0.622L0.213,-0.622C0.28,-0.622 0.335,-0.605 0.377,-0.572C0.419,-0.539 0.44,-0.496 0.44,-0.444C0.44,-0.402 0.426,-0.365 0.399,-0.334C0.372,-0.302 0.329,-0.279 0.271,-0.266L0.452,0L0.355,0L0.182,-0.256L0.163,-0.256L0.163,0L0.078,0L0.078,-0.622ZM0.163,-0.547L0.163,-0.33C0.288,-0.327 0.351,-0.364 0.351,-0.439C0.351,-0.465 0.344,-0.487 0.329,-0.504C0.314,-0.52 0.295,-0.532 0.271,-0.538C0.246,-0.544 0.21,-0.547 0.163,-0.547Z" style="fill:black;fill-rule:nonzero;"/>
        </g>
        <g transform="matrix(22.2575,0,0,22.2575,151.031,0)">
            <path d="M0.028,-0.622L0.122,-0.622L0.275,-0.372L0.426,-0.622L0.52,-0.622L0.316,-0.285L0.316,0L0.231,0L0.231,-0.284L0.028,-0.622Z" style="fill:black;fill-rule:nonzero;"/>
        </g>
        <g transform="matrix(22.2575,0,0,22.2575,171.909,0)">
            <path d="M0.027,-0.622L0.407,-0.622L0.407,-0.537L0.259,-0.537L0.259,0L0.175,0L0.175,-0.537L0.027,-0.537L0.027,-0.622Z" style="fill:black;fill-rule:nonzero;"/>
        </g>
        <g transform="matrix(22.2575,0,0,22.2575,181.657,0)">
            <path d="M0.078,-0.622L0.213,-0.622C0.28,-0.622 0.335,-0.605 0.377,-0.572C0.419,-0.539 0.44,-0.496 0.44,-0.444C0.44,-0.402 0.426,-0.365 0.399,-0.334C0.372,-0.302 0.329,-0.279 0.271,-0.266L0.452,0L0.355,0L0.182,-0.256L0.163,-0.256L0.163,0L0.078,0L0.078,-0.622ZM0.163,-0.547L0.163,-0.33C0.288,-0.327 0.351,-0.364 0.351,-0.439C0.351,-0.465 0.344,-0.487 0.329,-0.504C0.314,-0.52 0.295,-0.532 0.271,-0.538C0.246,-0.544 0.21,-0.547 0.163,-0.547Z" style="fill:black;fill-rule:nonzero;"/>
        </g>
        <g transform="matrix(22.2575,0,0,22.2575,192.786,0)">
            <rect x="0.063" y="-0.622" width="0.084" height="0.622" style="fill:black;fill-rule:nonzero;"/>
        </g>
        <g transform="matrix(22.2575,0,0,22.2575,197.666,0)">
            <path d="M0.297,-0.646L0.591,0L0.502,0L0.43,-0.159L0.166,-0.159L0.094,0L0.006,0L0.297,-0.646ZM0.297,-0.452L0.197,-0.23L0.397,-0.23L0.297,-0.452Z" style="fill:black;fill-rule:nonzero;"/>
        </g>
        <g transform="matrix(22.2575,0,0,22.2575,211.109,0)">
            <path d="M0.077,-0.622L0.161,-0.622L0.161,-0.084L0.364,-0.084L0.364,0L0.077,0L0.077,-0.622Z" style="fill:black;fill-rule:nonzero;"/>
        </g>
    </g>
</svg>
