<?xml version="1.0" encoding="UTF-8" standalone="no"?>
<svg
   width="512"
   height="80"
   viewBox="0 0 512 80"
   version="1.1"
   id="svg5"
   inkscape:export-filename="email.svg"
   inkscape:export-xdpi="96"
   inkscape:export-ydpi="96"
   xmlns:inkscape="http://www.inkscape.org/namespaces/inkscape"
   xmlns:sodipodi="http://sodipodi.sourceforge.net/DTD/sodipodi-0.dtd"
   xmlns="http://www.w3.org/2000/svg"
   xmlns:svg="http://www.w3.org/2000/svg">
  <sodipodi:namedview
     id="namedview7"
     pagecolor="#ffffff"
     bordercolor="#111111"
     borderopacity="1"
     inkscape:showpageshadow="0"
     inkscape:pageopacity="0"
     inkscape:pagecheckerboard="1"
     inkscape:deskcolor="#d1d1d1"
     inkscape:document-units="px"
     showgrid="false" />
  <defs
     id="defs2" />
  <g
     inkscape:label="Layer 1"
     inkscape:groupmode="layer"
     id="layer1">
    <g
       transform="matrix(1.7797214,0,0,1.7797214,18.549555,-8.6921105)"
       id="text119"
       style="font-size:17.3333px;white-space:pre;inline-size:293.882">
      <path
         d="m 90.169672,27.438959 h 0.621888 v -2.456458 c 0,-0.831776 -0.551926,-1.368155 -1.391475,-1.368155 -0.412001,0 -0.824002,0.132152 -1.16604,0.396455 v -2.316534 h -0.621889 v 5.744692 h 0.621889 v -2.899554 c 0.287623,-0.256529 0.629661,-0.380906 0.99502,-0.380906 0.606342,0 0.940607,0.342039 0.940607,0.948379 z"
         style="font-family:Cantarell;-inkscape-font-specification:Cantarell;stroke-width:0.448478"
         id="path279" />
      <path
         d="m 93.706656,27.516695 c 0.427548,0 0.893964,-0.101057 1.228229,-0.27985 L 94.79496,26.785976 c -0.287623,0.139925 -0.652983,0.225434 -0.979474,0.225434 -0.792907,0 -1.290418,-0.474189 -1.383701,-1.27487 h 2.61193 c 0.01555,-0.116604 0.03109,-0.388681 0.03109,-0.536378 0,-0.940606 -0.621888,-1.585816 -1.546946,-1.585816 -1.041663,0 -1.74906,0.816229 -1.74906,1.966722 0,1.197135 0.738491,1.935627 1.927852,1.935627 z m -1.282644,-2.246571 c 0.05442,-0.730719 0.427548,-1.127172 1.057209,-1.127172 0.637436,0 1.010569,0.412001 1.010569,1.127172 z"
         style="font-family:Cantarell;-inkscape-font-specification:Cantarell;stroke-width:0.448478"
         id="path281" />
      <path
         d="m 96.971568,27.4856 c 0.202113,0 0.443095,-0.04664 0.590793,-0.124377 l -0.139924,-0.435322 c -0.09328,0.03887 -0.178793,0.06219 -0.272076,0.06219 -0.264303,0 -0.404227,-0.178792 -0.404227,-0.466415 v -4.827408 h -0.621889 v 4.905143 c 0,0.536378 0.334265,0.88619 0.847323,0.886189 z"
         style="font-family:Cantarell;-inkscape-font-specification:Cantarell;stroke-width:0.448478"
         id="path283" />
      <path
         d="m 99.132629,27.4856 c 0.202112,0 0.443094,-0.04664 0.590792,-0.124377 l -0.139924,-0.435322 c -0.09328,0.03887 -0.178793,0.06219 -0.272076,0.06219 -0.264303,0 -0.404227,-0.178792 -0.404227,-0.466415 v -4.827408 h -0.621889 v 4.905143 c 0,0.536378 0.334265,0.88619 0.847324,0.886189 z"
         style="font-family:Cantarell;-inkscape-font-specification:Cantarell;stroke-width:0.448478"
         id="path285" />
      <path
         d="m 101.95444,27.516695 c 1.10386,0 1.85012,-0.800681 1.85012,-1.997816 0,-1.158267 -0.69185,-1.904533 -1.75683,-1.904533 -1.10385,0 -1.84235,0.792908 -1.84235,1.990043 0,1.158267 0.68408,1.912306 1.74906,1.912306 z m 0.0855,-0.544152 c -0.72294,0 -1.21268,-0.58302 -1.21268,-1.445891 0,-0.831775 0.4431,-1.368153 1.13495,-1.368153 0.72294,0 1.22045,0.590793 1.22045,1.44589 0,0.824001 -0.45087,1.368154 -1.14272,1.368154 z"
         style="font-family:Cantarell;-inkscape-font-specification:Cantarell;stroke-width:0.448478"
         id="path287" />
      <path
         d="m 108.07226,28.698282 c 0.57525,0 1.08831,-0.116604 1.46922,-0.279849 l -0.13993,-0.466417 c -0.36536,0.147699 -0.83178,0.233209 -1.28264,0.233209 -1.61691,0 -2.71299,-1.119399 -2.71299,-2.790724 0,-1.710192 1.15049,-2.899553 2.85291,-2.899553 1.57027,0 2.55752,1.002795 2.55752,2.472006 0,0.893964 -0.36536,1.539173 -0.92506,1.539173 -0.23321,0 -0.41978,-0.132151 -0.41978,-0.404228 l 0.15547,-2.33208 h -0.52083 l -0.0777,0.30317 c -0.21766,-0.264302 -0.52861,-0.396453 -0.88619,-0.396453 -0.83178,0 -1.59359,0.722945 -1.59359,1.834569 0,0.925059 0.54415,1.539174 1.29819,1.539174 0.41977,0 0.81623,-0.19434 1.11162,-0.481964 0.16325,0.27985 0.48197,0.427548 0.86287,0.427548 0.94061,0 1.5625,-0.878416 1.5625,-2.145514 0,-1.77238 -1.22823,-2.884006 -3.05503,-2.884006 -2.0911,0 -3.49812,1.453664 -3.49812,3.482574 0,1.990042 1.34484,3.249365 3.24159,3.249365 z m 0.76182,-2.596383 c -0.1788,0.240982 -0.50529,0.412001 -0.80846,0.412001 -0.47419,0 -0.80068,-0.404227 -0.80068,-1.088304 0,-0.707398 0.34981,-1.228229 0.89397,-1.228229 0.31871,0 0.63743,0.19434 0.80845,0.505284 z"
         style="font-family:Cantarell;-inkscape-font-specification:Cantarell;stroke-width:0.448478"
         id="path289" />
      <path
         d="m 115.18511,27.438959 h 0.62189 v -2.456458 c 0,-0.831776 -0.55193,-1.368155 -1.39148,-1.368155 -0.42754,0 -0.85509,0.147699 -1.21268,0.412002 l -0.13993,-0.334265 h -0.43532 v 3.746876 h 0.62189 v -2.930648 c 0.28762,-0.225435 0.62966,-0.349812 0.99502,-0.349812 0.60634,0 0.94061,0.342039 0.94061,0.948379 z"
         style="font-family:Cantarell;-inkscape-font-specification:Cantarell;stroke-width:0.448478"
         id="path291" />
      <path
         d="m 119.35176,27.438959 h 0.43532 v -2.433138 c 0,-0.893963 -0.52861,-1.391475 -1.50808,-1.391475 -0.48974,0 -1.01834,0.132152 -1.42257,0.357586 l 0.15547,0.458643 c 0.38868,-0.171019 0.77736,-0.256529 1.14272,-0.256529 0.66853,0 1.01057,0.27985 1.01057,0.831775 v 0.248756 c -1.6791,0.01554 -2.40982,0.365359 -2.40982,1.16604 0,0.668529 0.49751,1.096078 1.2671,1.096078 0.47419,0 0.87842,-0.155472 1.18159,-0.427549 z m -0.18657,-0.839549 c -0.23321,0.233207 -0.57524,0.373133 -0.96393,0.373133 -0.49751,0 -0.824,-0.248756 -0.824,-0.621889 0,-0.466416 0.52861,-0.660756 1.78793,-0.668529 z"
         style="font-family:Cantarell;-inkscape-font-specification:Cantarell;stroke-width:0.448478"
         id="path293" />
      <path
         d="m 122.15025,27.516695 c 0.92505,0 1.49253,-0.435322 1.49253,-1.127172 0,-1.375928 -2.2388,-0.862871 -2.2388,-1.710193 0,-0.326491 0.34981,-0.536378 0.90951,-0.536378 0.31872,0 0.69185,0.06996 1.01057,0.178793 l 0.1477,-0.505284 c -0.31872,-0.132152 -0.69962,-0.202115 -1.09608,-0.202115 -0.9717,0 -1.59359,0.427549 -1.59359,1.134946 0,1.344834 2.23102,0.785134 2.23102,1.702419 0,0.342039 -0.30316,0.536379 -0.81623,0.536379 -0.39644,0 -0.92505,-0.108831 -1.32151,-0.27985 l -0.1477,0.505285 c 0.42755,0.19434 0.94839,0.30317 1.42258,0.30317 z"
         style="font-family:Cantarell;-inkscape-font-specification:Cantarell;stroke-width:0.448478"
         id="path295" />
      <path
         d="m 126.09147,27.516695 c 0.45087,0 0.91728,-0.10883 1.22823,-0.295398 l -0.13993,-0.450868 c -0.31094,0.147698 -0.65298,0.233208 -0.9406,0.233208 -0.77737,0 -1.22046,-0.544152 -1.22046,-1.453663 0,-0.901738 0.43532,-1.391475 1.21269,-1.391475 0.29539,0 0.62966,0.06996 0.9406,0.209887 l 0.1477,-0.505284 c -0.34204,-0.163246 -0.7074,-0.248756 -1.08053,-0.248756 -1.11163,0 -1.85789,0.824002 -1.85789,2.060005 0,1.158266 0.63743,1.842344 1.71019,1.842344 z"
         style="font-family:Cantarell;-inkscape-font-specification:Cantarell;stroke-width:0.448478"
         id="path297" />
      <path
         d="m 129.93941,27.516695 c 0.42754,0 0.89396,-0.101057 1.22823,-0.27985 l -0.13993,-0.450869 c -0.28762,0.139925 -0.65298,0.225434 -0.97948,0.225434 -0.7929,0 -1.29041,-0.474189 -1.38369,-1.27487 h 2.61193 c 0.0155,-0.116604 0.0311,-0.388681 0.0311,-0.536378 0,-0.940606 -0.62189,-1.585816 -1.54695,-1.585816 -1.04166,0 -1.74905,0.816229 -1.74905,1.966722 0,1.197135 0.73848,1.935627 1.92785,1.935627 z m -1.28265,-2.246571 c 0.0544,-0.730719 0.42755,-1.127172 1.05721,-1.127172 0.63744,0 1.01057,0.412001 1.01057,1.127172 z"
         style="font-family:Cantarell;-inkscape-font-specification:Cantarell;stroke-width:0.448478"
         id="path299" />
      <path
         d="m 134.91451,27.438959 h 0.62189 v -2.456458 c 0,-0.831776 -0.55193,-1.368155 -1.39148,-1.368155 -0.42755,0 -0.85509,0.147699 -1.21268,0.412002 l -0.13992,-0.334265 H 132.357 v 3.746876 h 0.62188 v -2.930648 c 0.28762,-0.225435 0.62967,-0.349812 0.99503,-0.349812 0.60633,0 0.9406,0.342039 0.9406,0.948379 z"
         style="font-family:Cantarell;-inkscape-font-specification:Cantarell;stroke-width:0.448478"
         id="path301" />
      <path
         d="m 138.23383,27.516695 c 0.45087,0 0.91729,-0.10883 1.22824,-0.295398 l -0.13993,-0.450868 c -0.31094,0.147698 -0.65298,0.233208 -0.94061,0.233208 -0.77735,0 -1.22045,-0.544152 -1.22045,-1.453663 0,-0.901738 0.43532,-1.391475 1.21267,-1.391475 0.29541,0 0.62967,0.06996 0.94061,0.209887 l 0.14771,-0.505284 c -0.34205,-0.163246 -0.70741,-0.248756 -1.08054,-0.248756 -1.11162,0 -1.85789,0.824002 -1.85789,2.060005 0,1.158266 0.63744,1.842344 1.71019,1.842344 z"
         style="font-family:Cantarell;-inkscape-font-specification:Cantarell;stroke-width:0.448478"
         id="path303" />
      <path
         d="m 142.08178,27.516695 c 0.42755,0 0.89396,-0.101057 1.22822,-0.27985 l -0.13992,-0.450869 c -0.28762,0.139925 -0.65298,0.225434 -0.97947,0.225434 -0.79291,0 -1.29042,-0.474189 -1.38371,-1.27487 h 2.61194 c 0.0156,-0.116604 0.0311,-0.388681 0.0311,-0.536378 0,-0.940606 -0.62188,-1.585816 -1.54694,-1.585816 -1.04167,0 -1.74906,0.816229 -1.74906,1.966722 0,1.197135 0.73849,1.935627 1.92785,1.935627 z m -1.28265,-2.246571 c 0.0544,-0.730719 0.42756,-1.127172 1.05721,-1.127172 0.63744,0 1.01057,0.412001 1.01057,1.127172 z"
         style="font-family:Cantarell;-inkscape-font-specification:Cantarell;stroke-width:0.448478"
         id="path305" />
      <path
         d="m 146.09295,27.516695 c 1.07276,0 1.78793,-0.800681 1.78793,-1.997816 0,-1.142719 -0.68408,-1.904533 -1.71019,-1.904533 -0.41978,0 -0.77736,0.124378 -1.04944,0.36536 v -2.285439 h -0.62189 v 5.744692 h 0.43533 l 0.12437,-0.287623 c 0.26431,0.240981 0.61412,0.365359 1.03389,0.365359 z m -0.9717,-2.938421 c 0.20989,-0.272077 0.52861,-0.419775 0.90174,-0.419775 0.74627,0 1.236,0.590793 1.236,1.453663 0,0.816228 -0.44309,1.360381 -1.16604,1.360381 -0.412,0 -0.74627,-0.17102 -0.9717,-0.47419 z"
         style="font-family:Cantarell;-inkscape-font-specification:Cantarell;stroke-width:0.448478"
         id="path307" />
      <path
         d="m 148.93032,27.438959 h 0.62189 v -3.746876 h -0.62189 z m 0.31872,-4.625293 c 0.27985,0 0.44309,-0.163246 0.44309,-0.443096 0,-0.279849 -0.16324,-0.443095 -0.44309,-0.443095 -0.27985,0 -0.4431,0.163246 -0.4431,0.443095 0,0.27985 0.16325,0.443096 0.4431,0.443096 z"
         style="font-family:Cantarell;-inkscape-font-specification:Cantarell;stroke-width:0.448478"
         id="path309" />
      <path
         d="m 152.35071,27.516695 c 1.10384,0 1.85011,-0.800681 1.85011,-1.997816 0,-1.158267 -0.69185,-1.904533 -1.75683,-1.904533 -1.10385,0 -1.84235,0.792908 -1.84235,1.990043 0,1.158267 0.68408,1.912306 1.74907,1.912306 z m 0.0855,-0.544152 c -0.72294,0 -1.21268,-0.58302 -1.21268,-1.445891 0,-0.831775 0.4431,-1.368153 1.13495,-1.368153 0.72294,0 1.22045,0.590793 1.22045,1.44589 0,0.824001 -0.45086,1.368154 -1.14272,1.368154 z"
         style="font-family:Cantarell;-inkscape-font-specification:Cantarell;stroke-width:0.448478"
         id="path311" />
      <path
         d="m 160.28755,27.438959 h 0.62188 v -2.456458 c 0,-0.831776 -0.54414,-1.368155 -1.37592,-1.368155 -0.49751,0 -0.98725,0.202115 -1.36815,0.5597 -0.23321,-0.357585 -0.62967,-0.5597 -1.14273,-0.5597 -0.42754,0 -0.84732,0.147699 -1.19713,0.404228 l -0.13993,-0.326491 h -0.43532 v 3.746876 h 0.62189 v -2.930648 c 0.27985,-0.225435 0.61411,-0.349812 0.9717,-0.349812 0.59857,0 0.92506,0.342039 0.92506,0.948379 v 2.332081 h 0.62189 v -2.456458 c 0,-0.155473 -0.0155,-0.295397 -0.0544,-0.427548 0.28762,-0.25653 0.64521,-0.396454 1.02612,-0.396454 0.59857,0 0.92506,0.342039 0.92506,0.948379 z"
         style="font-family:Cantarell;-inkscape-font-specification:Cantarell;stroke-width:0.448478"
         id="path313" />
      <path
         d="m 163.82453,27.516695 c 0.42756,0 0.89397,-0.101057 1.22823,-0.27985 l -0.13992,-0.450869 c -0.28763,0.139925 -0.65299,0.225434 -0.97947,0.225434 -0.79291,0 -1.29042,-0.474189 -1.3837,-1.27487 h 2.61192 c 0.0156,-0.116604 0.0311,-0.388681 0.0311,-0.536378 0,-0.940606 -0.62189,-1.585816 -1.54695,-1.585816 -1.04166,0 -1.74906,0.816229 -1.74906,1.966722 0,1.197135 0.73849,1.935627 1.92785,1.935627 z m -1.28264,-2.246571 c 0.0544,-0.730719 0.42755,-1.127172 1.05721,-1.127172 0.63743,0 1.01057,0.412001 1.01057,1.127172 z"
         style="font-family:Cantarell;-inkscape-font-specification:Cantarell;stroke-width:0.448478"
         id="path315" />
      <path
         d="m 167.67246,27.516695 c 0.45087,0 0.83178,-0.163246 1.11941,-0.443095 l 0.15546,0.365359 h 0.43533 v -5.744692 h -0.62189 v 2.254345 c -0.2643,-0.217661 -0.60634,-0.334266 -1.00279,-0.334266 -1.05722,0 -1.75684,0.792908 -1.75684,1.98227 0,1.150492 0.66853,1.920079 1.67132,1.920079 z m 1.08831,-0.971701 c -0.20989,0.272077 -0.52861,0.427549 -0.90951,0.427549 -0.74627,0 -1.22823,-0.58302 -1.22823,-1.445891 0,-0.824001 0.43532,-1.368153 1.15827,-1.368153 0.41977,0 0.75404,0.171019 0.97947,0.466416 z"
         style="font-family:Cantarell;-inkscape-font-specification:Cantarell;stroke-width:0.448478"
         id="path317" />
      <path
         d="m 171.02288,27.516695 c 0.2954,0 0.49751,-0.209888 0.49751,-0.49751 0,-0.287624 -0.20211,-0.497511 -0.49751,-0.497511 -0.29539,0 -0.49751,0.209887 -0.49751,0.497511 0,0.287622 0.20212,0.49751 0.49751,0.49751 z"
         style="font-family:Cantarell;-inkscape-font-specification:Cantarell;stroke-width:0.448478"
         id="path319" />
      <path
         d="m 174.13233,27.516695 c 0.45087,0 0.91728,-0.10883 1.22823,-0.295398 l -0.13993,-0.450868 c -0.31094,0.147698 -0.65298,0.233208 -0.9406,0.233208 -0.77736,0 -1.22046,-0.544152 -1.22046,-1.453663 0,-0.901738 0.43533,-1.391475 1.21269,-1.391475 0.29539,0 0.62965,0.06996 0.9406,0.209887 l 0.1477,-0.505284 c -0.34204,-0.163246 -0.7074,-0.248756 -1.08053,-0.248756 -1.11163,0 -1.85789,0.824002 -1.85789,2.060005 0,1.158266 0.63743,1.842344 1.71019,1.842344 z"
         style="font-family:Cantarell;-inkscape-font-specification:Cantarell;stroke-width:0.448478"
         id="path321" />
      <path
         d="m 177.80148,27.516695 c 1.10385,0 1.85011,-0.800681 1.85011,-1.997816 0,-1.158267 -0.69185,-1.904533 -1.75683,-1.904533 -1.10385,0 -1.84235,0.792908 -1.84235,1.990043 0,1.158267 0.68408,1.912306 1.74907,1.912306 z m 0.0855,-0.544152 c -0.72294,0 -1.21268,-0.58302 -1.21268,-1.445891 0,-0.831775 0.4431,-1.368153 1.13494,-1.368153 0.72295,0 1.22046,0.590793 1.22046,1.44589 0,0.824001 -0.45086,1.368154 -1.14272,1.368154 z"
         style="font-family:Cantarell;-inkscape-font-specification:Cantarell;stroke-width:0.448478"
         id="path323" />
      <path
         d="m 185.73832,27.438959 h 0.62188 v -2.456458 c 0,-0.831776 -0.54415,-1.368155 -1.37592,-1.368155 -0.49751,0 -0.98725,0.202115 -1.36815,0.5597 -0.23322,-0.357585 -0.62966,-0.5597 -1.14273,-0.5597 -0.42754,0 -0.84732,0.147699 -1.19713,0.404228 l -0.13992,-0.326491 h -0.43532 v 3.746876 h 0.62188 v -2.930648 c 0.27985,-0.225435 0.61412,-0.349812 0.97171,-0.349812 0.59856,0 0.92505,0.342039 0.92505,0.948379 v 2.332081 h 0.62189 v -2.456458 c 0,-0.155473 -0.0156,-0.295397 -0.0544,-0.427548 0.28763,-0.25653 0.64521,-0.396454 1.02612,-0.396454 0.59857,0 0.92506,0.342039 0.92506,0.948379 z"
         style="font-family:Cantarell;-inkscape-font-specification:Cantarell;stroke-width:0.448478"
         id="path325" />
    </g>
  </g>
</svg>
