<?xml version="1.0" encoding="UTF-8" standalone="no"?>
<!DOCTYPE svg PUBLIC "-//W3C//DTD SVG 1.1//EN" "http://www.w3.org/Graphics/SVG/1.1/DTD/svg11.dtd">
<svg width="100%" height="100%" viewBox="0 0 135 148" version="1.1" xmlns="http://www.w3.org/2000/svg" xmlns:xlink="http://www.w3.org/1999/xlink" xml:space="preserve" xmlns:serif="http://www.serif.com/" style="fill-rule:evenodd;clip-rule:evenodd;stroke-linejoin:round;stroke-miterlimit:2;">
    <g transform="matrix(1.30641,0.737698,-0.7377,1.30641,145.407,57.8753)">
        <path d="M0,66.143C-7.031,73.145 -16.037,78.019 -25.592,80.039C-30.365,81.052 -35.255,81.411 -40.058,80.968C-44.875,80.699 -49.61,79.526 -54.091,77.877C-63.07,74.508 -70.886,68.504 -76.469,60.963L-78.478,58.077C-79.093,57.081 -79.644,56.044 -80.223,55.031C-80.498,54.516 -80.814,54.024 -81.054,53.491L-81.764,51.889L-82.468,50.289C-82.711,49.76 -82.935,49.224 -83.101,48.664L-84.188,45.351C-84.533,44.244 -84.723,43.091 -84.992,41.967L-85.363,40.272C-85.452,39.701 -85.508,39.124 -85.58,38.552C-85.708,37.403 -85.872,36.261 -85.96,35.115C-85.973,32.81 -86.148,30.515 -85.858,28.232L-85.711,26.522C-85.665,25.953 -85.622,25.383 -85.497,24.822L-84.864,21.454C-84.778,20.891 -84.615,20.343 -84.451,19.796L-83.969,18.156L-83.486,16.521C-83.328,15.975 -83.076,15.46 -82.875,14.929C-82.444,13.878 -82.034,12.82 -81.582,11.784L-80.006,8.777C-75.601,0.887 -68.952,-5.618 -61.125,-9.767C-57.204,-11.803 -53.06,-13.444 -48.737,-14.235L-47.133,-14.585L-45.501,-14.777C-44.413,-14.891 -43.333,-15.059 -42.246,-15.123C-40.063,-15.135 -37.891,-15.268 -35.727,-15.055C-27.07,-14.359 -18.742,-11.102 -12.012,-5.907C-19.111,-10.595 -27.488,-13.128 -35.814,-13.182C-37.897,-13.235 -39.966,-12.947 -42.025,-12.79C-43.049,-12.653 -44.06,-12.415 -45.075,-12.234L-46.592,-11.945L-48.074,-11.502C-52.061,-10.47 -55.789,-8.65 -59.244,-6.523C-66.14,-2.19 -71.649,4.134 -75.003,11.349L-76.192,14.082C-76.518,15.02 -76.803,15.971 -77.112,16.91C-77.253,17.384 -77.444,17.841 -77.543,18.327L-77.853,19.777L-78.165,21.222C-78.274,21.702 -78.383,22.181 -78.416,22.676L-78.745,25.606C-78.822,26.09 -78.819,26.583 -78.819,27.075L-78.833,28.547C-78.953,30.506 -78.629,32.453 -78.495,34.391C-78.346,35.353 -78.129,36.304 -77.955,37.257C-77.859,37.732 -77.782,38.211 -77.674,38.682L-77.251,40.073C-76.952,40.993 -76.74,41.937 -76.381,42.833L-75.278,45.503C-75.114,45.954 -74.894,46.382 -74.657,46.801L-73.978,48.072L-73.306,49.34C-73.082,49.763 -72.783,50.144 -72.527,50.547C-71.988,51.338 -71.486,52.151 -70.929,52.923L-69.122,55.139C-64.149,60.901 -57.581,65.155 -50.455,67.23C-46.892,68.234 -43.225,68.883 -39.538,68.791C-35.862,68.874 -32.206,68.31 -28.736,67.296C-21.783,65.269 -15.538,61.21 -10.908,55.846C-8.198,52.708 -3.458,52.36 -0.319,55.07C2.819,57.779 3.167,62.519 0.457,65.658C0.337,65.797 0.213,65.93 0.085,66.059L0,66.143Z" style="fill:rgb(39,127,186);fill-rule:nonzero;"/>
    </g>
</svg>
